<svg width="4" height="8" viewBox="0 0 4 8" fill="none" xmlns="http://www.w3.org/2000/svg">
<path d="M3.573 7.57301L0.176999 4.17701C0.153718 4.15378 0.135246 4.1262 0.122643 4.09582C0.110039 4.06545 0.103552 4.03289 0.103552 4.00001C0.103552 3.96712 0.110039 3.93456 0.122643 3.90419C0.135246 3.87382 0.153718 3.84623 0.176999 3.82301L3.573 0.427006C3.60796 0.391953 3.65255 0.368071 3.7011 0.358387C3.74966 0.348704 3.79999 0.353656 3.84573 0.372614C3.89147 0.391573 3.93054 0.423685 3.95801 0.46488C3.98547 0.506074 4.00009 0.554496 4 0.604006L4 7.39601C4.00009 7.44552 3.98547 7.49394 3.95801 7.53513C3.93055 7.57633 3.89147 7.60844 3.84573 7.6274C3.79999 7.64636 3.74966 7.65131 3.7011 7.64163C3.65255 7.63194 3.60796 7.60806 3.573 7.57301Z" fill="white" fill-opacity="0.5"/>
</svg>
