<svg width="4" height="8" viewBox="0 0 4 8" fill="none" xmlns="http://www.w3.org/2000/svg">
<path d="M0.427 0.426994L3.823 3.82299C3.84628 3.84622 3.86475 3.8738 3.87736 3.90418C3.88996 3.93455 3.89645 3.96711 3.89645 3.99999C3.89645 4.03288 3.88996 4.06544 3.87736 4.09581C3.86475 4.12618 3.84628 4.15377 3.823 4.17699L0.427 7.57299C0.392036 7.60805 0.34745 7.63193 0.298896 7.64161C0.250342 7.6513 0.200005 7.64634 0.154269 7.62739C0.108532 7.60843 0.0694545 7.57631 0.0419902 7.53512C0.0145259 7.49393 -8.81823e-05 7.4455 4.00328e-07 7.39599V0.603994C-8.81823e-05 0.554483 0.0145259 0.506062 0.0419902 0.464867C0.0694545 0.423672 0.108532 0.39156 0.154269 0.372601C0.200005 0.353643 0.250342 0.348691 0.298896 0.358374C0.34745 0.368058 0.392036 0.39194 0.427 0.426994Z" fill="white"/>
</svg>
