<svg width="101" height="126" viewBox="0 0 101 126" fill="none" xmlns="http://www.w3.org/2000/svg">
<circle cx="22.5" cy="22.5" r="22.5" fill="#747474"/>
<path d="M23.0859 23.0195H18.7617L18.7383 21.2031H22.6641C23.3125 21.2031 23.8789 21.0938 24.3633 20.875C24.8477 20.6562 25.2227 20.3438 25.4883 19.9375C25.7617 19.5234 25.8984 19.0312 25.8984 18.4609C25.8984 17.8359 25.7773 17.3281 25.5352 16.9375C25.3008 16.5391 24.9375 16.25 24.4453 16.0703C23.9609 15.8828 23.3438 15.7891 22.5938 15.7891H19.2656V31H17.0039V13.9375H22.5938C23.4688 13.9375 24.25 14.0273 24.9375 14.207C25.625 14.3789 26.207 14.6523 26.6836 15.0273C27.168 15.3945 27.5352 15.8633 27.7852 16.4336C28.0352 17.0039 28.1602 17.6875 28.1602 18.4844C28.1602 19.1875 27.9805 19.8242 27.6211 20.3945C27.2617 20.957 26.7617 21.418 26.1211 21.7773C25.4883 22.1367 24.7461 22.3672 23.8945 22.4688L23.0859 23.0195ZM22.9805 31H17.8711L19.1484 29.1602H22.9805C23.6992 29.1602 24.3086 29.0352 24.8086 28.7852C25.3164 28.5352 25.7031 28.1836 25.9688 27.7305C26.2344 27.2695 26.3672 26.7266 26.3672 26.1016C26.3672 25.4688 26.2539 24.9219 26.0273 24.4609C25.8008 24 25.4453 23.6445 24.9609 23.3945C24.4766 23.1445 23.8516 23.0195 23.0859 23.0195H19.8633L19.8867 21.2031H24.293L24.7734 21.8594C25.5938 21.9297 26.2891 22.1641 26.8594 22.5625C27.4297 22.9531 27.8633 23.4531 28.1602 24.0625C28.4648 24.6719 28.6172 25.3438 28.6172 26.0781C28.6172 27.1406 28.3828 28.0391 27.9141 28.7734C27.4531 29.5 26.8008 30.0547 25.957 30.4375C25.1133 30.8125 24.1211 31 22.9805 31Z" fill="white"/>
<circle cx="50.5" cy="22.5" r="22.5" fill="#CDCDCD"/>
<path d="M51.2031 24.3086H46.6445V22.4688H51.2031C52.0859 22.4688 52.8008 22.3281 53.3477 22.0469C53.8945 21.7656 54.293 21.375 54.543 20.875C54.8008 20.375 54.9297 19.8047 54.9297 19.1641C54.9297 18.5781 54.8008 18.0273 54.543 17.5117C54.293 16.9961 53.8945 16.582 53.3477 16.2695C52.8008 15.9492 52.0859 15.7891 51.2031 15.7891H47.1719V31H44.9102V13.9375H51.2031C52.4922 13.9375 53.582 14.1602 54.4727 14.6055C55.3633 15.0508 56.0391 15.668 56.5 16.457C56.9609 17.2383 57.1914 18.1328 57.1914 19.1406C57.1914 20.2344 56.9609 21.168 56.5 21.9414C56.0391 22.7148 55.3633 23.3047 54.4727 23.7109C53.582 24.1094 52.4922 24.3086 51.2031 24.3086Z" fill="white"/>
<circle cx="78.5" cy="22.5" r="22.5" fill="#7698A3"/>
<path d="M82.9648 25.5742H85.2148C85.0977 26.6523 84.7891 27.6172 84.2891 28.4688C83.7891 29.3203 83.082 29.9961 82.168 30.4961C81.2539 30.9883 80.1133 31.2344 78.7461 31.2344C77.7461 31.2344 76.8359 31.0469 76.0156 30.6719C75.2031 30.2969 74.5039 29.7656 73.918 29.0781C73.332 28.3828 72.8789 27.5508 72.5586 26.582C72.2461 25.6055 72.0898 24.5195 72.0898 23.3242V21.625C72.0898 20.4297 72.2461 19.3477 72.5586 18.3789C72.8789 17.4023 73.3359 16.5664 73.9297 15.8711C74.5312 15.1758 75.2539 14.6406 76.0977 14.2656C76.9414 13.8906 77.8906 13.7031 78.9453 13.7031C80.2344 13.7031 81.3242 13.9453 82.2148 14.4297C83.1055 14.9141 83.7969 15.5859 84.2891 16.4453C84.7891 17.2969 85.0977 18.2852 85.2148 19.4102H82.9648C82.8555 18.6133 82.6523 17.9297 82.3555 17.3594C82.0586 16.7812 81.6367 16.3359 81.0898 16.0234C80.543 15.7109 79.8281 15.5547 78.9453 15.5547C78.1875 15.5547 77.5195 15.6992 76.9414 15.9883C76.3711 16.2773 75.8906 16.6875 75.5 17.2188C75.1172 17.75 74.8281 18.3867 74.6328 19.1289C74.4375 19.8711 74.3398 20.6953 74.3398 21.6016V23.3242C74.3398 24.1602 74.4258 24.9453 74.5977 25.6797C74.7773 26.4141 75.0469 27.0586 75.4062 27.6133C75.7656 28.168 76.2227 28.6055 76.7773 28.9258C77.332 29.2383 77.9883 29.3945 78.7461 29.3945C79.707 29.3945 80.4727 29.2422 81.043 28.9375C81.6133 28.6328 82.043 28.1953 82.332 27.625C82.6289 27.0547 82.8398 26.3711 82.9648 25.5742Z" fill="white"/>
<path d="M11.39 61.07C9.69 61.07 8.13733 61.308 6.732 61.784C5.34933 62.2373 4.012 63.0193 2.72 64.13L1.19 62.09C2.482 60.9793 4.00067 60.1067 5.746 59.472C7.514 58.8373 9.50867 58.52 11.73 58.52C13.4753 58.52 15.0053 58.6787 16.32 58.996C17.6347 59.3133 18.734 59.7553 19.618 60.322C20.502 60.8887 21.1593 61.5573 21.59 62.328C22.0433 63.0987 22.27 63.926 22.27 64.81C22.27 66.2607 21.9187 67.462 21.216 68.414C20.5133 69.3433 19.3913 70.0687 17.85 70.59C19.55 71.0207 20.876 71.746 21.828 72.766C22.8027 73.7633 23.29 75.078 23.29 76.71C23.29 77.6847 23.0633 78.6027 22.61 79.464C22.1567 80.3027 21.4427 81.0393 20.468 81.674C19.516 82.286 18.3033 82.7733 16.83 83.136C15.3567 83.4987 13.6 83.68 11.56 83.68C9.33867 83.68 7.28733 83.3287 5.406 82.626C3.54733 81.9233 1.972 80.9713 0.68 79.77L2.38 77.73C3.672 78.9313 5.04333 79.804 6.494 80.348C7.94467 80.8693 9.52 81.13 11.22 81.13C13.6 81.13 15.3227 80.6767 16.388 79.77C17.476 78.8633 18.02 77.73 18.02 76.37C18.02 75.01 17.5893 73.9673 16.728 73.242C15.8667 72.494 14.5407 72.12 12.75 72.12H5.78V69.57H12.07C15.3567 69.57 17 68.0967 17 65.15C17 63.9487 16.5127 62.974 15.538 62.226C14.5633 61.4553 13.1807 61.07 11.39 61.07ZM38.942 60.9C38.058 60.9 37.1966 61.0927 36.358 61.478C35.5193 61.8407 34.7713 62.43 34.114 63.246C33.4793 64.062 32.958 65.116 32.55 66.408C32.1646 67.7 31.972 69.264 31.972 71.1C31.972 72.936 32.1646 74.5 32.55 75.792C32.958 77.084 33.4793 78.138 34.114 78.954C34.7713 79.77 35.5193 80.3707 36.358 80.756C37.1966 81.1187 38.058 81.3 38.942 81.3C39.826 81.3 40.6873 81.1187 41.526 80.756C42.3646 80.3707 43.1013 79.77 43.736 78.954C44.3933 78.138 44.9146 77.084 45.3 75.792C45.708 74.5 45.912 72.936 45.912 71.1C45.912 69.264 45.708 67.7 45.3 66.408C44.9146 65.116 44.3933 64.062 43.736 63.246C43.1013 62.43 42.3646 61.8407 41.526 61.478C40.6873 61.0927 39.826 60.9 38.942 60.9ZM38.942 58.52C40.7326 58.52 42.376 58.7807 43.872 59.302C45.368 59.8007 46.66 60.5713 47.748 61.614C48.836 62.6567 49.6746 63.9713 50.264 65.558C50.876 67.122 51.182 68.9693 51.182 71.1C51.182 73.2307 50.876 75.0893 50.264 76.676C49.6746 78.24 48.836 79.5433 47.748 80.586C46.66 81.6287 45.368 82.4107 43.872 82.932C42.376 83.4307 40.7326 83.68 38.942 83.68C37.1513 83.68 35.508 83.4307 34.012 82.932C32.516 82.4107 31.224 81.6287 30.136 80.586C29.048 79.5433 28.198 78.24 27.586 76.676C26.9966 75.0893 26.702 73.2307 26.702 71.1C26.702 68.9693 26.9966 67.122 27.586 65.558C28.198 63.9713 29.048 62.6567 30.136 61.614C31.224 60.5713 32.516 59.8007 34.012 59.302C35.508 58.7807 37.1513 58.52 38.942 58.52ZM66.8326 60.9C65.9486 60.9 65.0872 61.0927 64.2486 61.478C63.4099 61.8407 62.6619 62.43 62.0046 63.246C61.3699 64.062 60.8486 65.116 60.4406 66.408C60.0552 67.7 59.8626 69.264 59.8626 71.1C59.8626 72.936 60.0552 74.5 60.4406 75.792C60.8486 77.084 61.3699 78.138 62.0046 78.954C62.6619 79.77 63.4099 80.3707 64.2486 80.756C65.0872 81.1187 65.9486 81.3 66.8326 81.3C67.7166 81.3 68.5779 81.1187 69.4166 80.756C70.2552 80.3707 70.9919 79.77 71.6266 78.954C72.2839 78.138 72.8052 77.084 73.1906 75.792C73.5986 74.5 73.8026 72.936 73.8026 71.1C73.8026 69.264 73.5986 67.7 73.1906 66.408C72.8052 65.116 72.2839 64.062 71.6266 63.246C70.9919 62.43 70.2552 61.8407 69.4166 61.478C68.5779 61.0927 67.7166 60.9 66.8326 60.9ZM66.8326 58.52C68.6232 58.52 70.2666 58.7807 71.7626 59.302C73.2586 59.8007 74.5506 60.5713 75.6386 61.614C76.7266 62.6567 77.5652 63.9713 78.1546 65.558C78.7666 67.122 79.0726 68.9693 79.0726 71.1C79.0726 73.2307 78.7666 75.0893 78.1546 76.676C77.5652 78.24 76.7266 79.5433 75.6386 80.586C74.5506 81.6287 73.2586 82.4107 71.7626 82.932C70.2666 83.4307 68.6232 83.68 66.8326 83.68C65.0419 83.68 63.3986 83.4307 61.9026 82.932C60.4066 82.4107 59.1146 81.6287 58.0266 80.586C56.9386 79.5433 56.0886 78.24 55.4766 76.676C54.8872 75.0893 54.5926 73.2307 54.5926 71.1C54.5926 68.9693 54.8872 67.122 55.4766 65.558C56.0886 63.9713 56.9386 62.6567 58.0266 61.614C59.1146 60.5713 60.4066 59.8007 61.9026 59.302C63.3986 58.7807 65.0419 58.52 66.8326 58.52ZM98.1232 73.48H91.6632V79.94H88.2632V73.48H81.8032V70.42H88.2632V63.96H91.6632V70.42H98.1232V73.48Z" fill="white"/>
<path d="M2.38574 95.6035H3.19922L3.07617 98.2695C3.04427 98.9805 2.96452 99.598 2.83691 100.122C2.71387 100.642 2.5612 101.086 2.37891 101.455C2.19661 101.82 1.99609 102.127 1.77734 102.378C1.56315 102.624 1.3444 102.831 1.12109 103H0.676758L0.69043 102.303L0.895508 102.296C1.02767 102.136 1.16439 101.956 1.30566 101.756C1.4515 101.551 1.59049 101.3 1.72266 101.004C1.85482 100.708 1.96875 100.339 2.06445 99.8965C2.16016 99.4544 2.22396 98.9121 2.25586 98.2695L2.38574 95.6035ZM2.65234 95.6035H6.74707V103H5.93359V96.3691H2.65234V95.6035ZM0.362305 102.296H7.51953V105.174H6.69922V103H1.1416V105.174H0.362305V102.296ZM8.64746 99.418V99.1924C8.64746 98.6546 8.72493 98.1579 8.87988 97.7021C9.03483 97.2464 9.25586 96.8522 9.54297 96.5195C9.83464 96.1868 10.1833 95.9294 10.5889 95.7471C10.9945 95.5602 11.4456 95.4668 11.9424 95.4668C12.4437 95.4668 12.8971 95.5602 13.3027 95.7471C13.7083 95.9294 14.057 96.1868 14.3486 96.5195C14.6403 96.8522 14.8636 97.2464 15.0186 97.7021C15.1735 98.1579 15.251 98.6546 15.251 99.1924V99.418C15.251 99.9557 15.1735 100.452 15.0186 100.908C14.8636 101.359 14.6403 101.751 14.3486 102.084C14.0615 102.417 13.7152 102.676 13.3096 102.863C12.904 103.046 12.4528 103.137 11.9561 103.137C11.4548 103.137 11.0013 103.046 10.5957 102.863C10.1901 102.676 9.84147 102.417 9.5498 102.084C9.25814 101.751 9.03483 101.359 8.87988 100.908C8.72493 100.452 8.64746 99.9557 8.64746 99.418ZM9.46094 99.1924V99.418C9.46094 99.8236 9.51562 100.209 9.625 100.573C9.73438 100.933 9.89388 101.255 10.1035 101.537C10.3132 101.815 10.5729 102.034 10.8828 102.193C11.1927 102.353 11.5505 102.433 11.9561 102.433C12.3571 102.433 12.7103 102.353 13.0156 102.193C13.3255 102.034 13.5853 101.815 13.7949 101.537C14.0046 101.255 14.1618 100.933 14.2666 100.573C14.376 100.209 14.4307 99.8236 14.4307 99.418V99.1924C14.4307 98.7913 14.376 98.4108 14.2666 98.0508C14.1618 97.6908 14.0023 97.3695 13.7881 97.0869C13.5785 96.8044 13.3187 96.5811 13.0088 96.417C12.6989 96.2529 12.3434 96.1709 11.9424 96.1709C11.5413 96.1709 11.1859 96.2529 10.876 96.417C10.5706 96.5811 10.3109 96.8044 10.0967 97.0869C9.88704 97.3695 9.72754 97.6908 9.61816 98.0508C9.51335 98.4108 9.46094 98.7913 9.46094 99.1924ZM20.2139 99.5889H17.6162L17.6025 98.9053H19.8174C20.264 98.9053 20.6354 98.8574 20.9316 98.7617C21.2324 98.6615 21.458 98.5133 21.6084 98.3174C21.7633 98.1214 21.8408 97.8799 21.8408 97.5928C21.8408 97.374 21.7952 97.1826 21.7041 97.0186C21.6175 96.8545 21.4854 96.7201 21.3076 96.6152C21.1344 96.5104 20.9157 96.4329 20.6514 96.3828C20.3916 96.3281 20.0885 96.3008 19.7422 96.3008H17.8486V103H17.0352V95.6035H19.7422C20.1934 95.6035 20.5967 95.6445 20.9521 95.7266C21.3122 95.804 21.6198 95.9225 21.875 96.082C22.1302 96.2415 22.3239 96.4466 22.4561 96.6973C22.5928 96.9434 22.6611 97.235 22.6611 97.5723C22.6611 97.8001 22.6178 98.0143 22.5312 98.2148C22.4447 98.4108 22.3171 98.5885 22.1484 98.748C21.9844 98.903 21.7816 99.0306 21.54 99.1309C21.2985 99.2266 21.0205 99.2858 20.7061 99.3086L20.2139 99.5889ZM20.2139 103H17.3633L17.6777 102.303H20.2139C20.624 102.303 20.9727 102.25 21.2598 102.146C21.5469 102.041 21.7633 101.886 21.9092 101.681C22.0596 101.476 22.1348 101.227 22.1348 100.936C22.1348 100.662 22.0596 100.425 21.9092 100.225C21.7633 100.024 21.5469 99.8691 21.2598 99.7598C20.9727 99.6458 20.624 99.5889 20.2139 99.5889H18.3271L18.3408 98.9053H20.7676L21.1162 99.165C21.4899 99.1969 21.8135 99.2972 22.0869 99.4658C22.3604 99.6344 22.5723 99.8486 22.7227 100.108C22.873 100.364 22.9482 100.644 22.9482 100.949C22.9482 101.286 22.8844 101.585 22.7568 101.845C22.6292 102.1 22.4447 102.314 22.2031 102.487C21.9661 102.656 21.679 102.784 21.3418 102.87C21.0046 102.957 20.6286 103 20.2139 103ZM24.3291 99.418V99.1924C24.3291 98.6546 24.4066 98.1579 24.5615 97.7021C24.7165 97.2464 24.9375 96.8522 25.2246 96.5195C25.5163 96.1868 25.8649 95.9294 26.2705 95.7471C26.6761 95.5602 27.1273 95.4668 27.624 95.4668C28.1253 95.4668 28.5788 95.5602 28.9844 95.7471C29.39 95.9294 29.7386 96.1868 30.0303 96.5195C30.3219 96.8522 30.5452 97.2464 30.7002 97.7021C30.8551 98.1579 30.9326 98.6546 30.9326 99.1924V99.418C30.9326 99.9557 30.8551 100.452 30.7002 100.908C30.5452 101.359 30.3219 101.751 30.0303 102.084C29.7432 102.417 29.3968 102.676 28.9912 102.863C28.5856 103.046 28.1344 103.137 27.6377 103.137C27.1364 103.137 26.6829 103.046 26.2773 102.863C25.8717 102.676 25.5231 102.417 25.2314 102.084C24.9398 101.751 24.7165 101.359 24.5615 100.908C24.4066 100.452 24.3291 99.9557 24.3291 99.418ZM25.1426 99.1924V99.418C25.1426 99.8236 25.1973 100.209 25.3066 100.573C25.416 100.933 25.5755 101.255 25.7852 101.537C25.9948 101.815 26.2546 102.034 26.5645 102.193C26.8743 102.353 27.2321 102.433 27.6377 102.433C28.0387 102.433 28.3919 102.353 28.6973 102.193C29.0072 102.034 29.2669 101.815 29.4766 101.537C29.6862 101.255 29.8434 100.933 29.9482 100.573C30.0576 100.209 30.1123 99.8236 30.1123 99.418V99.1924C30.1123 98.7913 30.0576 98.4108 29.9482 98.0508C29.8434 97.6908 29.6839 97.3695 29.4697 97.0869C29.2601 96.8044 29.0003 96.5811 28.6904 96.417C28.3805 96.2529 28.0251 96.1709 27.624 96.1709C27.223 96.1709 26.8675 96.2529 26.5576 96.417C26.2523 96.5811 25.9925 96.8044 25.7783 97.0869C25.5687 97.3695 25.4092 97.6908 25.2998 98.0508C25.195 98.4108 25.1426 98.7913 25.1426 99.1924ZM37.5361 95.6035V96.3145H33.79V95.6035H37.5361ZM38.1992 95.6035V103H37.3857V95.6035H38.1992ZM33.5713 95.6035H34.3848L34.2207 99.0693C34.1934 99.6299 34.1478 100.127 34.084 100.56C34.0247 100.993 33.9427 101.364 33.8379 101.674C33.7331 101.979 33.5986 102.23 33.4346 102.426C33.2751 102.622 33.0814 102.768 32.8535 102.863C32.6257 102.954 32.359 103 32.0537 103H31.7461V102.262L31.999 102.255C32.195 102.246 32.3659 102.205 32.5117 102.132C32.6621 102.059 32.7897 101.943 32.8945 101.783C33.0039 101.624 33.0928 101.414 33.1611 101.154C33.234 100.895 33.291 100.578 33.332 100.204C33.3776 99.8258 33.4118 99.3815 33.4346 98.8711L33.5713 95.6035ZM41.0156 98.2832H43.4287C44.012 98.2832 44.5042 98.3857 44.9053 98.5908C45.3063 98.7913 45.6094 99.0693 45.8145 99.4248C46.0241 99.7803 46.1289 100.181 46.1289 100.628C46.1289 100.965 46.0697 101.28 45.9512 101.571C45.8372 101.858 45.6641 102.109 45.4316 102.323C45.2038 102.537 44.9212 102.704 44.584 102.822C44.2513 102.941 43.8662 103 43.4287 103H40.4961V95.6035H41.3096V102.296H43.4287C43.8799 102.296 44.2445 102.218 44.5225 102.063C44.8005 101.904 45.001 101.699 45.124 101.448C45.2516 101.198 45.3154 100.931 45.3154 100.648C45.3154 100.37 45.2516 100.106 45.124 99.8555C45.001 99.6003 44.8005 99.3929 44.5225 99.2334C44.2445 99.0693 43.8799 98.9873 43.4287 98.9873H41.0156V98.2832ZM52.9443 98.9121V99.6094H48.5557V98.9121H52.9443ZM48.7676 95.6035V103H47.9541V95.6035H48.7676ZM53.5732 95.6035V103H52.7529V95.6035H53.5732ZM56.3828 98.2832H58.7959C59.3792 98.2832 59.8714 98.3857 60.2725 98.5908C60.6735 98.7913 60.9766 99.0693 61.1816 99.4248C61.3913 99.7803 61.4961 100.181 61.4961 100.628C61.4961 100.965 61.4368 101.28 61.3184 101.571C61.2044 101.858 61.0312 102.109 60.7988 102.323C60.571 102.537 60.2884 102.704 59.9512 102.822C59.6185 102.941 59.2334 103 58.7959 103H55.8633V95.6035H56.6768V102.296H58.7959C59.2471 102.296 59.6117 102.218 59.8896 102.063C60.1676 101.904 60.3682 101.699 60.4912 101.448C60.6188 101.198 60.6826 100.931 60.6826 100.648C60.6826 100.37 60.6188 100.106 60.4912 99.8555C60.3682 99.6003 60.1676 99.3929 59.8896 99.2334C59.6117 99.0693 59.2471 98.9873 58.7959 98.9873H56.3828V98.2832ZM64.0049 95.6035V103H63.1914V95.6035H64.0049ZM66.6094 95.6035L68.6055 98.5908L70.6084 95.6035H71.5791L69.0703 99.2266L71.6816 103H70.7246L68.6123 99.876L66.5068 103H65.5498L68.1611 99.2266L65.6523 95.6035H66.6094ZM1.94141 115.604V123H1.12109V115.604H1.94141ZM6.80859 115.604L3.41797 119.609H1.6543L1.56543 118.878H3.06934L5.77637 115.604H6.80859ZM6.07031 123L2.9873 119.5L3.50684 118.871L7.15039 123H6.07031ZM13.3506 115.604V116.314H9.60449V115.604H13.3506ZM14.0137 115.604V123H13.2002V115.604H14.0137ZM9.38574 115.604H10.1992L10.0352 119.069C10.0078 119.63 9.96224 120.127 9.89844 120.56C9.83919 120.993 9.75716 121.364 9.65234 121.674C9.54753 121.979 9.41309 122.23 9.24902 122.426C9.08952 122.622 8.89583 122.768 8.66797 122.863C8.4401 122.954 8.1735 123 7.86816 123H7.56055V122.262L7.81348 122.255C8.00944 122.246 8.18034 122.205 8.32617 122.132C8.47656 122.059 8.60417 121.943 8.70898 121.783C8.81836 121.624 8.90723 121.414 8.97559 121.154C9.0485 120.895 9.10547 120.578 9.14648 120.204C9.19206 119.826 9.22624 119.382 9.24902 118.871L9.38574 115.604ZM17.083 121.674L21.082 115.604H21.9023V123H21.082V116.93L17.083 123H16.2764V115.604H17.083V121.674ZM26.9541 123.137C26.471 123.137 26.0267 123.048 25.6211 122.87C25.2201 122.692 24.8691 122.442 24.5684 122.118C24.2721 121.795 24.042 121.412 23.8779 120.97C23.7184 120.523 23.6387 120.035 23.6387 119.507V119.213C23.6387 118.643 23.723 118.128 23.8916 117.668C24.0602 117.208 24.2926 116.813 24.5889 116.485C24.8851 116.157 25.2223 115.907 25.6006 115.733C25.9834 115.556 26.3844 115.467 26.8037 115.467C27.2731 115.467 27.6901 115.551 28.0547 115.72C28.4193 115.884 28.7246 116.118 28.9707 116.424C29.2214 116.725 29.4105 117.082 29.5381 117.497C29.6657 117.907 29.7295 118.361 29.7295 118.857V119.356H24.1309V118.659H28.916V118.563C28.9069 118.149 28.8226 117.761 28.6631 117.401C28.5081 117.037 28.2757 116.741 27.9658 116.513C27.6559 116.285 27.2686 116.171 26.8037 116.171C26.4574 116.171 26.1383 116.244 25.8467 116.39C25.5596 116.535 25.3112 116.745 25.1016 117.019C24.8965 117.287 24.737 117.609 24.623 117.982C24.5137 118.352 24.459 118.762 24.459 119.213V119.507C24.459 119.917 24.5182 120.3 24.6367 120.655C24.7598 121.006 24.9329 121.316 25.1562 121.585C25.3841 121.854 25.653 122.063 25.9629 122.214C26.2728 122.364 26.6146 122.439 26.9883 122.439C27.4258 122.439 27.8132 122.36 28.1504 122.2C28.4876 122.036 28.7907 121.779 29.0596 121.428L29.5723 121.824C29.4128 122.061 29.2122 122.28 28.9707 122.48C28.7337 122.681 28.4489 122.84 28.1162 122.959C27.7835 123.077 27.3962 123.137 26.9541 123.137ZM36.3877 118.912V119.609H31.999V118.912H36.3877ZM32.2109 115.604V123H31.3975V115.604H32.2109ZM37.0166 115.604V123H36.1963V115.604H37.0166ZM41.8291 115.604V123H41.0156V115.604H41.8291ZM44.5225 115.604V116.301H38.418V115.604H44.5225ZM45.1377 119.418V119.192C45.1377 118.655 45.2152 118.158 45.3701 117.702C45.5251 117.246 45.7461 116.852 46.0332 116.52C46.3249 116.187 46.6735 115.929 47.0791 115.747C47.4847 115.56 47.9359 115.467 48.4326 115.467C48.9339 115.467 49.3874 115.56 49.793 115.747C50.1986 115.929 50.5472 116.187 50.8389 116.52C51.1305 116.852 51.3538 117.246 51.5088 117.702C51.6637 118.158 51.7412 118.655 51.7412 119.192V119.418C51.7412 119.956 51.6637 120.452 51.5088 120.908C51.3538 121.359 51.1305 121.751 50.8389 122.084C50.5518 122.417 50.2054 122.676 49.7998 122.863C49.3942 123.046 48.943 123.137 48.4463 123.137C47.945 123.137 47.4915 123.046 47.0859 122.863C46.6803 122.676 46.3317 122.417 46.04 122.084C45.7484 121.751 45.5251 121.359 45.3701 120.908C45.2152 120.452 45.1377 119.956 45.1377 119.418ZM45.9512 119.192V119.418C45.9512 119.824 46.0059 120.209 46.1152 120.573C46.2246 120.933 46.3841 121.255 46.5938 121.537C46.8034 121.815 47.0632 122.034 47.373 122.193C47.6829 122.353 48.0407 122.433 48.4463 122.433C48.8473 122.433 49.2005 122.353 49.5059 122.193C49.8158 122.034 50.0755 121.815 50.2852 121.537C50.4948 121.255 50.652 120.933 50.7568 120.573C50.8662 120.209 50.9209 119.824 50.9209 119.418V119.192C50.9209 118.791 50.8662 118.411 50.7568 118.051C50.652 117.691 50.4925 117.369 50.2783 117.087C50.0687 116.804 49.8089 116.581 49.499 116.417C49.1891 116.253 48.8337 116.171 48.4326 116.171C48.0316 116.171 47.6761 116.253 47.3662 116.417C47.0609 116.581 46.8011 116.804 46.5869 117.087C46.3773 117.369 46.2178 117.691 46.1084 118.051C46.0036 118.411 45.9512 118.791 45.9512 119.192ZM56.7041 119.589H54.1064L54.0928 118.905H56.3076C56.7542 118.905 57.1257 118.857 57.4219 118.762C57.7227 118.661 57.9482 118.513 58.0986 118.317C58.2536 118.121 58.3311 117.88 58.3311 117.593C58.3311 117.374 58.2855 117.183 58.1943 117.019C58.1077 116.854 57.9756 116.72 57.7979 116.615C57.6247 116.51 57.4059 116.433 57.1416 116.383C56.8818 116.328 56.5788 116.301 56.2324 116.301H54.3389V123H53.5254V115.604H56.2324C56.6836 115.604 57.0869 115.645 57.4424 115.727C57.8024 115.804 58.11 115.923 58.3652 116.082C58.6204 116.242 58.8141 116.447 58.9463 116.697C59.083 116.943 59.1514 117.235 59.1514 117.572C59.1514 117.8 59.1081 118.014 59.0215 118.215C58.9349 118.411 58.8073 118.589 58.6387 118.748C58.4746 118.903 58.2718 119.031 58.0303 119.131C57.7887 119.227 57.5107 119.286 57.1963 119.309L56.7041 119.589ZM56.7041 123H53.8535L54.168 122.303H56.7041C57.1143 122.303 57.4629 122.25 57.75 122.146C58.0371 122.041 58.2536 121.886 58.3994 121.681C58.5498 121.476 58.625 121.227 58.625 120.936C58.625 120.662 58.5498 120.425 58.3994 120.225C58.2536 120.024 58.0371 119.869 57.75 119.76C57.4629 119.646 57.1143 119.589 56.7041 119.589H54.8174L54.8311 118.905H57.2578L57.6064 119.165C57.9801 119.197 58.3037 119.297 58.5771 119.466C58.8506 119.634 59.0625 119.849 59.2129 120.108C59.3633 120.364 59.4385 120.644 59.4385 120.949C59.4385 121.286 59.3747 121.585 59.2471 121.845C59.1195 122.1 58.9349 122.314 58.6934 122.487C58.4564 122.656 58.1693 122.784 57.832 122.87C57.4948 122.957 57.1188 123 56.7041 123Z" fill="white" fill-opacity="0.7"/>
</svg>
