<svg width="123" height="123" viewBox="0 0 123 123" fill="none" xmlns="http://www.w3.org/2000/svg">
<path d="M39.3202 100.095C18.0458 87.8126 10.7567 60.6092 23.0395 39.3348C35.3222 18.0605 62.5257 10.7713 83.8 23.0541C105.074 35.3369 112.364 62.5403 100.081 83.8147C87.798 105.089 60.5946 112.378 39.3202 100.095Z" fill="#2D2D2D"/>
<path d="M26.8703 89.0735L26.357 88.5374C26.5875 88.3168 26.8046 88.1764 27.0085 88.1164C27.2101 88.0587 27.4059 88.056 27.5958 88.1085C27.7835 88.1586 27.9693 88.2421 28.1533 88.3589C28.335 88.4734 28.5211 88.5949 28.7117 88.7234C28.9476 88.8851 29.1947 89.009 29.453 89.0952C29.7067 89.1813 29.9755 89.2079 30.2594 89.175C30.541 89.1397 30.8417 89.0253 31.1613 88.832C31.4787 88.6363 31.819 88.3398 32.1822 87.9425L32.5067 87.6319L33.0199 88.168L32.6955 88.4786C32.2604 88.8951 31.8413 89.2175 31.438 89.4458C31.0325 89.6718 30.6449 89.8153 30.2752 89.8764C29.9055 89.9374 29.5546 89.9263 29.2226 89.8431C28.8883 89.7575 28.5749 89.6114 28.2824 89.4047C28.0716 89.2551 27.8831 89.1335 27.7171 89.0401C27.5487 88.949 27.3966 88.9031 27.2608 88.9024C27.1227 88.8994 26.9925 88.9564 26.8703 89.0735ZM29.4897 88.0462C29.2511 87.7969 29.0818 87.5331 28.982 87.2546C28.8822 86.9762 28.8445 86.6945 28.8692 86.4095C28.8938 86.1245 28.9782 85.8455 29.1223 85.5724C29.2617 85.2991 29.4549 85.0443 29.7018 84.808L29.7794 84.7337C30.0451 84.4793 30.3292 84.2817 30.6315 84.141C30.9293 84.0001 31.2337 83.9227 31.5449 83.9088C31.8514 83.8947 32.153 83.9485 32.4496 84.0701C32.744 84.1893 33.0195 84.3829 33.2762 84.651C33.5328 84.9191 33.7154 85.2039 33.8239 85.5056C33.9302 85.8049 33.9708 86.1085 33.9457 86.4165C33.9182 86.7267 33.8287 87.0287 33.6773 87.3224C33.5212 87.616 33.3103 87.89 33.0446 88.1443L32.967 88.2186C32.9083 88.2749 32.8405 88.3195 32.7638 88.3523C32.6871 88.3852 32.6048 88.4145 32.5167 88.4402C32.4264 88.4636 32.336 88.4938 32.2454 88.531C31.9504 88.6466 31.6404 88.7158 31.3153 88.7386C30.9879 88.7591 30.6677 88.7165 30.3546 88.6107C30.0368 88.5047 29.7486 88.3166 29.4897 88.0462ZM30.1438 87.6633C30.3734 87.9031 30.6178 88.0477 30.8769 88.0971C31.1337 88.1441 31.3898 88.1175 31.6453 88.0172C31.8984 87.9191 32.1307 87.7687 32.3424 87.5661L32.42 87.4918C32.5987 87.3208 32.7477 87.1375 32.8671 86.9421C32.9864 86.7467 33.0679 86.547 33.1115 86.3431C33.1505 86.139 33.1422 85.9374 33.0867 85.7382C33.0289 85.5366 32.9134 85.3453 32.74 85.1642C32.5667 84.9832 32.3817 84.8606 32.1851 84.7964C31.9885 84.7323 31.7886 84.7164 31.5853 84.7488C31.3796 84.7835 31.1766 84.8562 30.9762 84.967C30.7757 85.0777 30.5862 85.2186 30.4075 85.3897L30.3299 85.464C30.17 85.6171 30.0386 85.7834 29.9357 85.9631C29.8328 86.1427 29.7677 86.3289 29.7405 86.5217C29.711 86.7122 29.7287 86.9048 29.7935 87.0996C29.8537 87.2943 29.9705 87.4822 30.1438 87.6633Z" fill="white" fill-opacity="0.2"/>
<path d="M29.2022 83.4807L29.1098 83.5446C28.7968 83.7616 28.475 83.9173 28.1444 84.0118C27.8112 84.1081 27.4862 84.1392 27.1695 84.1052C26.8502 84.0731 26.5513 83.9733 26.2729 83.8058C25.9918 83.6402 25.7465 83.4063 25.5369 83.104C25.3255 82.799 25.1917 82.4858 25.1353 82.1645C25.0744 81.8423 25.0849 81.5261 25.1669 81.2158C25.2443 80.9046 25.3867 80.6099 25.5938 80.3317C25.7983 80.0553 26.0571 79.8086 26.3701 79.5917L26.4624 79.5277C26.7754 79.3107 27.0973 79.155 27.4278 79.0606C27.7584 78.9661 28.0843 78.9363 28.4055 78.9711C28.7222 79.0051 29.021 79.1049 29.3022 79.2705C29.5787 79.4353 29.8227 79.6701 30.0341 79.9751C30.2455 80.2801 30.3807 80.5924 30.4398 80.9119C30.4961 81.2332 30.4856 81.5495 30.4082 81.8606C30.3262 82.1709 30.1829 82.4642 29.9784 82.7406C29.7739 83.017 29.5152 83.2637 29.2022 83.4807ZM28.5953 82.8022L28.6876 82.7382C28.9043 82.588 29.0913 82.4207 29.2487 82.2364C29.4035 82.0539 29.5192 81.8608 29.5959 81.6572C29.6707 81.4509 29.6971 81.2404 29.6752 81.0259C29.6506 80.8133 29.5669 80.6039 29.4241 80.3979C29.2832 80.1946 29.1184 80.0454 28.9298 79.9504C28.7366 79.8546 28.5312 79.8068 28.3136 79.8071C28.096 79.8075 27.8746 79.848 27.6494 79.9288C27.4197 80.0088 27.1965 80.1239 26.9798 80.2741L26.8875 80.3381C26.6734 80.4865 26.49 80.6532 26.3371 80.8384C26.1797 81.0227 26.0636 81.2181 25.9888 81.4244C25.9094 81.6299 25.8807 81.8399 25.9026 82.0544C25.9227 82.2663 26.0041 82.4752 26.1469 82.6812C26.2878 82.8845 26.4549 83.0341 26.6481 83.1299C26.8394 83.2231 27.0461 83.2699 27.2682 83.2704C27.4858 83.2701 27.7086 83.2286 27.9364 83.1459C28.1616 83.0651 28.3812 82.9505 28.5953 82.8022Z" fill="white" fill-opacity="0.2"/>
<path d="M22.1458 76.0171L22.8181 75.6914L23.9317 77.9895L23.2594 78.3153L22.1458 76.0171ZM21.7987 75.3009L26.5532 72.9971L26.9471 73.81L22.1926 76.1138L21.7987 75.3009ZM23.3552 78.513L22.9592 77.6957L25.3125 76.7073C25.6769 76.556 26.0067 76.4379 26.3018 76.3527C26.5926 76.2661 26.8539 76.2154 27.0855 76.2009C27.3158 76.1833 27.5208 76.2034 27.7006 76.2609C27.8761 76.317 28.0321 76.4114 28.1688 76.5441C28.3025 76.6782 28.4205 76.8508 28.5227 77.0617L28.6462 77.3165L27.9299 77.6636L27.8316 77.4942C27.7618 77.3725 27.6807 77.2798 27.5883 77.216C27.4945 77.1494 27.3843 77.1087 27.2579 77.094C27.1284 77.0807 26.9769 77.0927 26.8032 77.1298C26.628 77.1641 26.4286 77.2227 26.2048 77.3058C25.9796 77.386 25.7221 77.4891 25.4322 77.6151L23.3552 78.513Z" fill="white" fill-opacity="0.2"/>
<path d="M25.8484 69.1059C25.9527 69.4587 25.9879 69.7962 25.9541 70.1185C25.9162 70.4385 25.8185 70.7339 25.6608 71.0045C25.5022 71.2719 25.2892 71.5046 25.0218 71.7024C24.7544 71.9002 24.4427 72.0516 24.0869 72.1567L23.8902 72.2148C23.4781 72.3366 23.0933 72.3841 22.7358 72.3573C22.3751 72.3314 22.0515 72.2471 21.765 72.1044C21.4784 71.9616 21.2382 71.7746 21.0443 71.5434C20.8504 71.3121 20.7115 71.0545 20.6276 70.7704C20.5206 70.4083 20.4908 70.0776 20.5382 69.7785C20.5847 69.4763 20.6954 69.2076 20.8704 68.9727C21.0423 68.7386 21.2676 68.5363 21.5465 68.3657C21.8222 68.196 22.138 68.0585 22.4939 67.9534L22.8825 67.8386L24.0002 71.6223L23.2932 71.8312L22.4314 68.9138L22.3658 68.9332C22.1447 69.012 21.94 69.1234 21.7517 69.2673C21.5625 69.4081 21.4245 69.5846 21.3379 69.7968C21.2513 70.0091 21.2517 70.2636 21.3394 70.5601C21.3975 70.7568 21.4931 70.9254 21.6263 71.066C21.7563 71.2075 21.92 71.3135 22.1174 71.3842C22.3148 71.4549 22.5402 71.4884 22.7937 71.4848C23.0472 71.4812 23.3269 71.4342 23.6329 71.3438L23.8296 71.2858C24.0699 71.2147 24.2866 71.1151 24.4795 70.9868C24.6684 70.8564 24.8235 70.7036 24.9449 70.5286C25.0654 70.3504 25.1437 70.1559 25.1798 69.945C25.215 69.7309 25.1976 69.5053 25.1275 69.268C25.0371 68.9621 24.8982 68.7214 24.7106 68.546C24.523 68.3706 24.3011 68.2342 24.0449 68.1367L24.3067 67.4892C24.5045 67.5496 24.7032 67.6419 24.9028 67.7662C25.1025 67.8905 25.2855 68.0622 25.452 68.2811C25.6176 68.497 25.7498 68.7719 25.8484 69.1059Z" fill="white" fill-opacity="0.2"/>
<path d="M25.106 63.5078C25.1554 63.8724 25.1388 64.2113 25.0564 64.5247C24.9703 64.8352 24.8287 65.1122 24.6317 65.3557C24.4343 65.5959 24.1884 65.7934 23.894 65.9482C23.5996 66.103 23.2685 66.2053 22.9008 66.2551L22.6975 66.2826C22.2717 66.3402 21.8842 66.3286 21.5349 66.2477C21.1824 66.1673 20.8754 66.0348 20.6139 65.85C20.3524 65.6653 20.1434 65.444 19.987 65.1859C19.8305 64.9279 19.7324 64.6521 19.6927 64.3585C19.6421 63.9843 19.6629 63.653 19.7553 63.3646C19.8473 63.0729 19.9976 62.8243 20.2063 62.6187C20.4117 62.4135 20.6652 62.2478 20.9668 62.1216C21.2651 61.9958 21.5981 61.9081 21.9659 61.8583L22.3675 61.804L22.8965 65.7137L22.1659 65.8125L21.758 62.798L21.6902 62.8072C21.4597 62.8515 21.2405 62.9304 21.0325 63.044C20.824 63.1543 20.6608 63.3078 20.5429 63.5044C20.425 63.701 20.3867 63.9526 20.4282 64.259C20.4557 64.4622 20.5246 64.6434 20.6348 64.8026C20.7418 64.9623 20.8875 65.092 21.0718 65.1919C21.2561 65.2918 21.4738 65.3592 21.7249 65.3942C21.976 65.4292 22.2596 65.4254 22.5758 65.3826L22.779 65.3551C23.0274 65.3215 23.2567 65.256 23.4669 65.1585C23.6734 65.0583 23.85 64.931 23.9966 64.7764C24.1428 64.6187 24.2498 64.4383 24.3176 64.2354C24.3849 64.0292 24.402 63.8035 24.3688 63.5583C24.3261 63.2422 24.2253 62.9832 24.0666 62.7813C23.9079 62.5794 23.7094 62.4108 23.471 62.2755L23.8283 61.6753C24.0145 61.7651 24.1969 61.8866 24.3753 62.0398C24.5537 62.1931 24.7085 62.3906 24.8398 62.6323C24.9706 62.8708 25.0593 63.1627 25.106 63.5078Z" fill="white" fill-opacity="0.2"/>
<path d="M20.7359 51.7429L21.4762 51.8432L21.1176 54.49L20.3773 54.3897L20.7359 51.7429ZM20.395 54.259L25.6304 54.9683L25.5091 55.8635L20.2738 55.1542L20.395 54.259ZM20.8434 50.9494L26.0788 51.6587L25.9569 52.5587L20.7215 51.8494L20.8434 50.9494Z" fill="white" fill-opacity="0.2"/>
<path d="M24.3752 49.5691L24.268 49.5358C23.9042 49.423 23.5833 49.2655 23.3052 49.0633C23.0239 48.8602 22.7992 48.6235 22.6308 48.3531C22.4593 48.0818 22.3538 47.7849 22.3141 47.4625C22.2712 47.139 22.3043 46.8017 22.4133 46.4503C22.5232 46.0959 22.6874 45.7975 22.9057 45.555C23.1219 45.3086 23.3775 45.122 23.6724 44.9953C23.9651 44.8646 24.2849 44.7951 24.6317 44.7868C24.9754 44.7775 25.3291 44.8293 25.6929 44.9421L25.8002 44.9754C26.1639 45.0883 26.4849 45.2457 26.763 45.4479C27.0411 45.65 27.2654 45.8883 27.4359 46.1627C27.6042 46.4331 27.7098 46.73 27.7526 47.0534C27.7933 47.3728 27.7587 47.7097 27.6487 48.0641C27.5388 48.4185 27.3762 48.7174 27.161 48.9608C26.9426 49.2032 26.6871 49.3898 26.3943 49.5205C26.0994 49.6472 25.7801 49.7151 25.4364 49.7244C25.0927 49.7337 24.739 49.6819 24.3752 49.5691ZM24.5356 48.673L24.6429 48.7063C24.8947 48.7844 25.1417 48.8287 25.3839 48.839C25.623 48.8484 25.8463 48.8206 26.054 48.7555C26.2626 48.6873 26.4446 48.5784 26.6 48.429C26.7523 48.2785 26.8656 48.0836 26.9399 47.8442C27.0132 47.6079 27.0291 47.3862 26.9877 47.1791C26.9441 46.9679 26.8552 46.7767 26.7208 46.6055C26.5865 46.4344 26.4181 46.285 26.2157 46.1574C26.0111 46.0258 25.7829 45.921 25.5311 45.8428L25.4238 45.8096C25.1751 45.7324 24.9307 45.6907 24.6907 45.6844C24.4485 45.674 24.2231 45.703 24.0145 45.7712C23.8038 45.8353 23.6207 45.9421 23.4652 46.0916C23.3108 46.2379 23.1964 46.4308 23.1222 46.6702C23.0489 46.9065 23.034 47.1302 23.0775 47.3414C23.1221 47.5495 23.2126 47.7412 23.3491 47.9164C23.4834 48.0876 23.6534 48.2375 23.8589 48.366C24.0613 48.4935 24.2869 48.5959 24.5356 48.673Z" fill="white" fill-opacity="0.2"/>
<path d="M24.7739 41.7269L25.1702 40.9151L26.913 41.8529C27.355 42.0904 27.719 42.3315 28.0052 42.5763C28.2914 42.8211 28.518 43.0657 28.6848 43.3101C28.8487 43.5532 28.9682 43.7944 29.0432 44.0339C29.1197 44.2705 29.1685 44.5008 29.1896 44.7248L28.9925 45.1285L28.3406 44.7831L28.4176 44.6142C28.3507 44.462 28.2794 44.3112 28.2037 44.162C28.1251 44.0113 28.021 43.8573 27.8914 43.6998C27.7589 43.5409 27.5834 43.3774 27.3648 43.2091C27.1448 43.0365 26.8614 42.8565 26.5146 42.6691L24.7739 41.7269ZM24.8725 41.5251L26.267 38.6686L31.0146 40.9863L30.6184 41.7981L26.621 39.8466L25.6228 41.8914L24.8725 41.5251ZM28.2356 44.9872L30.6455 40.0508L32.7121 41.0598L32.3158 41.8715L30.9161 41.1882L29.2988 44.501L30.6985 45.1843L30.3001 46.0005L28.2356 44.9872Z" fill="white" fill-opacity="0.2"/>
<path d="M29.4308 36.4456L34.5573 40.1054L34.0296 40.8446L28.0765 36.5946L28.5588 35.9191L29.4308 36.4456ZM32.7866 34.4677L32.87 34.5273C33.1827 34.7505 33.4463 34.9947 33.6609 35.2599C33.8729 35.5232 34.0258 35.7964 34.1197 36.0794C34.2156 36.3598 34.244 36.6421 34.2051 36.9263C34.1662 37.2105 34.0512 37.4864 33.8602 37.7539C33.6654 38.0268 33.4482 38.2358 33.2087 38.3808C32.9692 38.5258 32.7114 38.6096 32.4351 38.6324C32.1589 38.6552 31.869 38.6242 31.5655 38.5395C31.2639 38.4522 30.9507 38.3166 30.626 38.1328L30.1809 37.815C29.8857 37.5563 29.6435 37.2934 29.4542 37.0262C29.2649 36.7591 29.1326 36.4907 29.0572 36.2209C28.9811 35.9466 28.9704 35.673 29.0252 35.4001C29.0774 35.1254 29.1999 34.8529 29.3928 34.5827C29.5858 34.3124 29.8099 34.1105 30.0653 33.9769C30.3181 33.8413 30.5922 33.7711 30.8877 33.7661C31.1833 33.7611 31.4917 33.8193 31.813 33.9407C32.1335 34.0575 32.4581 34.2332 32.7866 34.4677ZM32.3423 35.2665L32.2589 35.2069C32.0443 35.0537 31.8269 34.9325 31.6066 34.8432C31.3837 34.7521 31.1667 34.7031 30.9555 34.6964C30.7436 34.6851 30.5446 34.723 30.3584 34.81C30.1696 34.8952 30.0033 35.0385 29.8596 35.2399C29.7272 35.4253 29.6436 35.6096 29.6088 35.7928C29.576 35.9733 29.5798 36.15 29.6203 36.3229C29.6582 36.494 29.7243 36.6591 29.8185 36.8184C29.9121 36.9731 30.0213 37.1171 30.1462 37.2503L31.1754 37.9851C31.3987 38.0645 31.6265 38.1151 31.8589 38.137C32.0886 38.157 32.3105 38.1235 32.5247 38.0364C32.7362 37.9474 32.928 37.7824 33.1001 37.5413C33.242 37.3426 33.3229 37.1424 33.3429 36.9407C33.3621 36.7344 33.332 36.533 33.2525 36.3362C33.1749 36.1368 33.0581 35.9474 32.9021 35.7681C32.7435 35.5869 32.5569 35.4197 32.3423 35.2665Z" fill="white" fill-opacity="0.2"/>
<path d="M34.0748 33.7974L33.9947 33.7187C33.7231 33.4517 33.51 33.1646 33.3555 32.8575C33.1986 32.5481 33.1073 32.2347 33.0816 31.9172C33.0535 31.5975 33.0957 31.2852 33.2082 30.9804C33.3184 30.6733 33.5024 30.3886 33.7603 30.1263C34.0204 29.8617 34.3031 29.6717 34.6082 29.5563C34.9133 29.4363 35.226 29.3876 35.5461 29.4101C35.8662 29.4281 36.1823 29.5129 36.4944 29.6644C36.8041 29.8137 37.0948 30.0219 37.3664 30.2889L37.4464 30.3676C37.718 30.6346 37.9311 30.9216 38.0857 31.2288C38.2402 31.5359 38.3304 31.8505 38.3562 32.1725C38.3819 32.49 38.3397 32.8022 38.2295 33.1093C38.1193 33.4118 37.9341 33.6954 37.674 33.96C37.4138 34.2246 37.1323 34.4158 36.8295 34.5335C36.5243 34.6489 36.2117 34.6976 35.8916 34.6796C35.5714 34.657 35.2565 34.5711 34.9468 34.4218C34.637 34.2725 34.3464 34.0644 34.0748 33.7974ZM34.6279 33.0745L34.708 33.1532C34.8961 33.3381 35.0953 33.4906 35.3058 33.6108C35.514 33.7287 35.7253 33.8063 35.9397 33.8436C36.1563 33.8786 36.368 33.8653 36.5746 33.8037C36.779 33.7398 36.969 33.6184 37.1447 33.4397C37.3181 33.2633 37.4339 33.0735 37.492 32.8705C37.5501 32.6628 37.5586 32.4521 37.5177 32.2384C37.4767 32.0247 37.3955 31.8147 37.2741 31.6086C37.1526 31.3979 36.9978 31.2001 36.8098 31.0152L36.7297 30.9365C36.544 30.754 36.3459 30.6049 36.1354 30.4893C35.9249 30.3691 35.7113 30.2915 35.4947 30.2565C35.278 30.2169 35.0663 30.228 34.8596 30.2896C34.6553 30.3489 34.4652 30.4679 34.2895 30.6466C34.1161 30.823 34.0003 31.0151 33.9423 31.2228C33.8865 31.4281 33.8791 31.6399 33.9201 31.8583C33.961 32.072 34.0434 32.2831 34.1672 32.4915C34.2886 32.6976 34.4422 32.8919 34.6279 33.0745Z" fill="white" fill-opacity="0.2"/>
<path d="M38.6002 23.7231L39.1957 23.2801C39.3861 23.5361 39.4985 23.7689 39.5328 23.9787C39.5652 24.1859 39.5436 24.3804 39.4681 24.5624C39.3951 24.7425 39.2893 24.9166 39.1506 25.0846C39.0145 25.2508 38.8709 25.4205 38.7199 25.5937C38.5302 25.8078 38.3767 26.0377 38.2592 26.2833C38.1423 26.5244 38.0827 26.7878 38.0803 27.0736C38.0805 27.3575 38.1567 27.67 38.309 28.011C38.464 28.3502 38.7161 28.7246 39.0654 29.1341L39.3335 29.4946L38.738 29.9375L38.4699 29.5771C38.1105 29.0939 37.8424 28.6381 37.6657 28.2097C37.4916 27.7793 37.3971 27.3769 37.3823 27.0025C37.3675 26.6281 37.4219 26.2813 37.5456 25.9621C37.6718 25.641 37.8556 25.3481 38.0969 25.0834C38.2714 24.8927 38.4153 24.7207 38.5286 24.5675C38.6399 24.4117 38.7042 24.2665 38.7217 24.1318C38.7417 23.9951 38.7013 23.8589 38.6002 23.7231ZM39.2956 26.4495C39.5725 26.2435 39.8552 26.1082 40.1439 26.0436C40.4326 25.979 40.7168 25.9765 40.9965 26.0362C41.2762 26.0959 41.5427 26.2141 41.7959 26.3909C42.0498 26.5631 42.2787 26.7863 42.4827 27.0606L42.5468 27.1468C42.7664 27.4419 42.9273 27.7482 43.0296 28.0657C43.1325 28.3786 43.1716 28.6902 43.147 29.0007C43.123 29.3066 43.0323 29.5992 42.875 29.8785C42.7203 30.1559 42.494 30.4054 42.1963 30.6269C41.8985 30.8484 41.5933 30.9943 41.2805 31.0647C40.9703 31.1331 40.664 31.1358 40.3615 31.0728C40.0571 31.0072 39.7685 30.881 39.4958 30.6944C39.2238 30.5033 38.978 30.2601 38.7584 29.965L38.6943 29.8788C38.6457 29.8135 38.6099 29.7408 38.5868 29.6606C38.5636 29.5804 38.5448 29.4951 38.5301 29.4045C38.5181 29.312 38.4993 29.2185 38.4736 29.124C38.3954 28.8171 38.3651 28.5009 38.3826 28.1754C38.4028 27.848 38.4847 27.5355 38.6285 27.2379C38.7729 26.9357 38.9953 26.6729 39.2956 26.4495ZM39.5947 27.146C39.3283 27.3441 39.1545 27.5687 39.0735 27.8197C38.995 28.0687 38.9898 28.3262 39.0577 28.5921C39.1238 28.8554 39.2442 29.1046 39.4191 29.3396L39.4832 29.4258C39.6309 29.6243 39.7943 29.7949 39.9734 29.9375C40.1525 30.0801 40.3406 30.1857 40.5376 30.2542C40.7352 30.3181 40.9364 30.3348 41.1409 30.3044C41.3481 30.272 41.5522 30.181 41.7533 30.0314C41.9544 29.8818 42.0989 29.7134 42.1869 29.5262C42.2749 29.3391 42.3154 29.1426 42.3084 28.9369C42.2994 28.7285 42.2524 28.518 42.1673 28.3054C42.0822 28.0929 41.9658 27.8873 41.8181 27.6888L41.754 27.6027C41.6219 27.4251 41.4731 27.2741 41.3075 27.1497C41.142 27.0254 40.9653 26.9378 40.7773 26.8869C40.592 26.8341 40.3986 26.8278 40.1973 26.868C39.9967 26.9037 39.7958 26.9963 39.5947 27.146Z" fill="white" fill-opacity="0.2"/>
<path d="M47.0102 24.6213L47.3512 25.2695L44.8793 26.5697L44.5383 25.9215L47.0102 24.6213ZM43.6408 23.806L46.1002 28.4819L45.3007 28.9024L42.8414 24.2265L43.6408 23.806ZM46.5924 22.2536L49.0518 26.9294L48.248 27.3522L45.7886 22.6763L46.5924 22.2536Z" fill="white" fill-opacity="0.2"/>
<path d="M49.7675 24.3306L49.7322 24.224C49.6124 23.8624 49.5538 23.5098 49.5565 23.166C49.5581 22.8191 49.62 22.4985 49.742 22.2043C49.863 21.9071 50.043 21.6485 50.2823 21.4286C50.5205 21.2057 50.8141 21.0364 51.1633 20.9207C51.5156 20.804 51.8538 20.7639 52.178 20.8005C52.5042 20.833 52.8046 20.9324 53.0792 21.0986C53.3558 21.2607 53.5983 21.4804 53.8068 21.7577C54.0143 22.0319 54.1779 22.3498 54.2976 22.7113L54.333 22.8179C54.4528 23.1794 54.5113 23.5321 54.5086 23.8759C54.506 24.2197 54.4426 24.5408 54.3185 24.8391C54.1965 25.1333 54.0164 25.3918 53.7782 25.6148C53.5421 25.8336 53.2479 26.0014 52.8956 26.1181C52.5434 26.2348 52.2057 26.2764 51.8825 26.2429C51.5583 26.2063 51.2579 26.1069 50.9813 25.9448C50.7068 25.7786 50.4658 25.5584 50.2583 25.2842C50.0509 25.01 49.8873 24.6921 49.7675 24.3306ZM50.5896 23.9399L50.625 24.0465C50.7079 24.2968 50.8156 24.5234 50.948 24.7265C51.0794 24.9264 51.2319 25.0919 51.4057 25.2229C51.5825 25.353 51.7769 25.4377 51.9889 25.4772C52.1998 25.5136 52.4243 25.4924 52.6622 25.4136C52.8971 25.3358 53.0867 25.2198 53.2311 25.0656C53.3775 24.9074 53.4813 24.7238 53.5424 24.515C53.6035 24.3061 53.6271 24.0823 53.6131 23.8434C53.6012 23.6005 53.5538 23.3538 53.4709 23.1035L53.4355 22.9969C53.3536 22.7497 53.2454 22.5267 53.1109 22.3278C52.9785 22.1247 52.8239 21.9582 52.6471 21.8282C52.4723 21.6941 52.279 21.6072 52.067 21.5677C51.8581 21.5272 51.6347 21.5464 51.3967 21.6252C51.1619 21.703 50.9712 21.821 50.8248 21.9793C50.6814 22.1365 50.5781 22.3216 50.515 22.5346C50.4539 22.7435 50.4308 22.9689 50.4458 23.2108C50.4598 23.4496 50.5077 23.6927 50.5896 23.9399Z" fill="white" fill-opacity="0.2"/>
<path d="M60.0229 22.533L60.0168 22.4209C59.9963 22.0406 60.0324 21.6849 60.1254 21.3539C60.2181 21.0196 60.362 20.7265 60.557 20.4748C60.7518 20.2197 60.9935 20.0176 61.2821 19.8683C61.5705 19.7158 61.8984 19.6296 62.2657 19.6097C62.6362 19.5896 62.9731 19.6398 63.2763 19.7604C63.5825 19.8774 63.8463 20.0522 64.0675 20.2848C64.2918 20.5139 64.4681 20.7896 64.5964 21.1119C64.7245 21.431 64.7988 21.7806 64.8194 22.1609L64.8255 22.2731C64.846 22.6534 64.8099 23.0091 64.7169 23.3401C64.624 23.6711 64.4785 23.9642 64.2804 24.2194C64.0854 24.4712 63.8437 24.6734 63.5553 24.8259C63.27 24.975 62.942 25.0596 62.5715 25.0797C62.2009 25.0997 61.8642 25.0511 61.5612 24.9338C61.258 24.8133 60.9942 24.6385 60.7699 24.4094C60.5487 24.1769 60.3741 23.9011 60.2459 23.582C60.1178 23.263 60.0435 22.9133 60.0229 22.533ZM60.9188 22.372L60.9249 22.4842C60.9392 22.7475 60.9835 22.9945 61.0579 23.2251C61.1322 23.4526 61.2359 23.6523 61.3691 23.8244C61.5055 23.9964 61.6708 24.1292 61.865 24.223C62.059 24.3136 62.2811 24.3521 62.5314 24.3386C62.7784 24.3252 62.9918 24.2631 63.1717 24.1523C63.3546 24.0381 63.5029 23.8883 63.6168 23.7028C63.7306 23.5173 63.8122 23.3075 63.8614 23.0734C63.9138 22.8359 63.9328 22.5855 63.9186 22.3222L63.9125 22.21C63.8984 21.95 63.8527 21.7063 63.7752 21.4791C63.7007 21.2484 63.5953 21.0471 63.4589 20.8752C63.3255 20.6998 63.1617 20.5653 62.9676 20.4714C62.7767 20.3775 62.5561 20.3372 62.3058 20.3508C62.0587 20.3641 61.8438 20.4279 61.6609 20.5422C61.4812 20.6562 61.333 20.8077 61.216 20.9965C61.1022 21.182 61.0207 21.3934 60.9716 21.6308C60.9224 21.8649 60.9048 22.112 60.9188 22.372Z" fill="white" fill-opacity="0.2"/>
<path d="M68.2297 23.0359L67.263 22.9379L67.3191 22.3841L68.213 22.4747C68.4624 22.5 68.663 22.4893 68.815 22.4425C68.9673 22.3925 69.08 22.314 69.153 22.2069C69.226 22.0998 69.2703 21.9701 69.2857 21.8179C69.2995 21.6819 69.2769 21.5503 69.2178 21.4233C69.1622 21.2933 69.0621 21.1834 68.9175 21.0935C68.7731 21.0003 68.5731 20.9407 68.3172 20.9148C68.1099 20.8938 67.9183 20.912 67.7424 20.9694C67.5667 21.0235 67.4223 21.1087 67.3091 21.2248C67.1995 21.338 67.1368 21.4723 67.121 21.6278L66.2223 21.5367C66.2548 21.216 66.3734 20.9499 66.5781 20.7384C66.7863 20.5239 67.0491 20.369 67.3663 20.2736C67.6868 20.1785 68.0284 20.1493 68.3911 20.1861C68.6955 20.217 68.9641 20.2786 69.1969 20.3709C69.4332 20.4603 69.629 20.5783 69.7843 20.7249C69.9399 20.8683 70.0517 21.04 70.1198 21.2399C70.1914 21.437 70.2146 21.6602 70.1893 21.9095C70.1712 22.0877 70.112 22.2518 70.0117 22.402C69.9114 22.5521 69.7757 22.6807 69.6045 22.7876C69.4337 22.8914 69.2315 22.9657 68.9979 23.0108C68.7675 23.0561 68.5114 23.0645 68.2297 23.0359ZM67.2975 22.5978L68.2642 22.6959C68.5783 22.7277 68.8521 22.7866 69.0855 22.8724C69.3193 22.955 69.5112 23.0628 69.6613 23.1958C69.8114 23.3289 69.9182 23.4853 69.9818 23.6651C70.0489 23.8421 70.0713 24.0407 70.049 24.2609C70.024 24.507 69.9513 24.7238 69.8309 24.9112C69.714 25.0956 69.558 25.2467 69.3628 25.3643C69.1677 25.4819 68.9402 25.5635 68.6803 25.6092C68.4237 25.6551 68.1432 25.6627 67.8388 25.6318C67.4988 25.5973 67.1743 25.5055 66.8655 25.3564C66.5567 25.2073 66.311 25.0008 66.1284 24.7369C65.9461 24.4697 65.8741 24.1467 65.9126 23.7678L66.8113 23.8589C66.7952 24.0176 66.8301 24.1733 66.9161 24.326C67.002 24.4787 67.1296 24.6077 67.2989 24.7133C67.4713 24.8191 67.6758 24.884 67.9122 24.908C68.1648 24.9336 68.3793 24.9161 68.5556 24.8554C68.7319 24.7948 68.8687 24.704 68.966 24.583C69.0666 24.4623 69.1246 24.3258 69.14 24.1736C69.1601 23.9761 69.1373 23.8134 69.0717 23.6857C69.0062 23.558 68.8952 23.4584 68.7389 23.3869C68.5861 23.3126 68.385 23.2627 68.1356 23.2374L67.2418 23.1468L67.2975 22.5978Z" fill="white" fill-opacity="0.2"/>
<path d="M75.3817 24.3423L75.2022 25.0524L72.4944 24.3679L72.6739 23.6578L75.3817 24.3423ZM73.4198 21.4843L72.125 26.6064L71.2492 26.385L72.544 21.2629L73.4198 21.4843ZM76.653 22.3016L75.3583 27.4237L74.4778 27.2011L75.7725 22.079L76.653 22.3016Z" fill="white" fill-opacity="0.2"/>
<path d="M79.9767 28.8209L81.0653 26.3286C81.1487 26.1377 81.1822 25.9552 81.1659 25.7811C81.1539 25.6053 81.0887 25.4454 80.9704 25.3014C80.8522 25.1574 80.6812 25.0366 80.4575 24.9388C80.2486 24.8476 80.0496 24.8033 79.8602 24.8058C79.6738 24.8097 79.5104 24.8502 79.3701 24.9275C79.2328 25.006 79.1348 25.1124 79.0762 25.2466L78.2484 24.8851C78.324 24.7121 78.4436 24.5601 78.6074 24.4291C78.7712 24.2982 78.9665 24.2006 79.1935 24.1363C79.4248 24.0704 79.6759 24.0486 79.9467 24.071C80.2218 24.0917 80.5056 24.1659 80.7979 24.2936C81.1499 24.4474 81.4341 24.6425 81.6504 24.8791C81.8698 25.117 82.0027 25.39 82.0493 25.6981C82.1002 26.0045 82.0468 26.3382 81.8892 26.6991L80.9041 28.9543C80.8338 29.1154 80.7723 29.2928 80.7196 29.4865C80.67 29.6815 80.6448 29.857 80.6442 30.013L80.6129 30.0846L79.7493 29.7074C79.7492 29.5937 79.7718 29.4526 79.817 29.284C79.8635 29.1125 79.9167 28.9582 79.9767 28.8209ZM81.0404 26.7759L80.7953 27.3615L79.9585 26.9961C79.7228 26.8931 79.5041 26.8207 79.3022 26.7787C79.1016 26.7337 78.9224 26.7211 78.7645 26.741C78.6066 26.7608 78.4701 26.8131 78.355 26.8978C78.2412 26.9795 78.1517 27.0949 78.0865 27.2441C78.0201 27.3962 77.9938 27.5499 78.0077 27.7052C78.0216 27.8604 78.0808 28.0053 78.1855 28.1398C78.2944 28.2726 78.4503 28.3834 78.6531 28.472C78.9067 28.5827 79.1539 28.6267 79.3947 28.604C79.6355 28.5813 79.8465 28.5172 80.0276 28.4116C80.2117 28.3073 80.3401 28.184 80.4129 28.0417L80.5925 28.5944C80.5168 28.7105 80.3996 28.8245 80.2407 28.9362C80.0817 29.048 79.8941 29.1401 79.6777 29.2125C79.4657 29.2833 79.2335 29.3187 78.9813 29.3186C78.7334 29.3169 78.4782 29.2587 78.2157 29.1441C77.8876 29.0007 77.6277 28.8109 77.4362 28.5745C77.2476 28.3393 77.1316 28.0844 77.0882 27.8097C77.0491 27.5333 77.0881 27.2609 77.2054 26.9924C77.3187 26.7329 77.4691 26.5268 77.6566 26.3742C77.8453 26.2187 78.0638 26.117 78.312 26.0691C78.5616 26.0182 78.8356 26.0172 79.134 26.0658C79.4324 26.1145 79.7472 26.2111 80.0783 26.3557L81.0404 26.7759Z" fill="white" fill-opacity="0.2"/>
<path d="M85.5258 27.3291L82.6753 31.7773L81.9147 31.2899L84.7653 26.8417L85.5258 27.3291ZM88.4447 29.1996L84.7023 30.397L83.6375 29.7146L83.9492 28.9749L84.8208 29.5334L87.5197 28.6069L88.4447 29.1996ZM84.776 33.1236L84.4307 30.0606L85.273 29.8232L85.7421 33.7427L84.776 33.1236Z" fill="white" fill-opacity="0.2"/>
<path d="M87.7805 32.6039L87.8548 32.5198C88.107 32.2343 88.3823 32.0062 88.6807 31.8355C88.9813 31.6624 89.2894 31.5545 89.605 31.5119C89.9228 31.4669 90.2369 31.4924 90.5473 31.5885C90.8598 31.6821 91.1539 31.8507 91.4296 32.0942C91.7077 32.3399 91.9125 32.612 92.044 32.9106C92.1801 33.2089 92.2454 33.5185 92.2399 33.8394C92.239 34.16 92.1712 34.4802 92.0365 34.7998C91.9039 35.1171 91.7116 35.4184 91.4594 35.7039L91.3851 35.788C91.133 36.0735 90.8577 36.3015 90.5592 36.4722C90.2607 36.6429 89.9514 36.7497 89.6312 36.7926C89.3156 36.8352 89.0015 36.8097 88.689 36.7161C88.3811 36.6222 88.088 36.4524 87.8099 36.2067C87.5318 35.961 87.3259 35.6901 87.1922 35.394C87.0607 35.0954 86.9954 34.7858 86.9963 34.4652C87.0018 34.1443 87.0709 33.8252 87.2034 33.5079C87.336 33.1907 87.5283 32.8894 87.7805 32.6039ZM88.5318 33.1178L88.4575 33.202C88.2829 33.3996 88.1412 33.6067 88.0324 33.8233C87.9258 34.0374 87.8595 34.2526 87.8337 34.4686C87.8103 34.6869 87.8349 34.8975 87.9074 35.1006C87.9821 35.3012 88.1134 35.4845 88.3013 35.6504C88.4867 35.8142 88.6823 35.9197 88.8882 35.9669C89.0987 36.0138 89.3095 36.0112 89.5207 35.9589C89.732 35.9066 89.9373 35.8143 90.1366 35.682C90.3406 35.5495 90.5299 35.3844 90.7044 35.1868L90.7788 35.1026C90.9512 34.9074 91.0895 34.7017 91.1937 34.4854C91.3025 34.2688 91.3686 34.0513 91.392 33.8331C91.42 33.6146 91.3977 33.4038 91.3251 33.2007C91.255 32.9998 91.1261 32.8164 90.9382 32.6505C90.7528 32.4867 90.5549 32.3813 90.3444 32.3344C90.1364 32.2896 89.9244 32.2935 89.7086 32.3461C89.4974 32.3984 89.291 32.4919 89.0895 32.6266C88.8901 32.7589 88.7042 32.9226 88.5318 33.1178Z" fill="white" fill-opacity="0.2"/>
<path d="M92.9247 40.3496L97.2143 39.1285L97.7689 39.7977L92.1992 41.3566L91.8004 40.8754L94.3729 35.6997L94.9275 36.3689L92.9247 40.3496ZM94.7592 36.1659L90.6913 39.5369L90.1149 38.8414L94.1828 35.4703L94.7592 36.1659ZM93.2896 42.6725L97.3576 39.3015L97.9371 40.0008L93.8691 43.3718L93.2896 42.6725Z" fill="white" fill-opacity="0.2"/>
<path d="M95.5681 44.7287L100.118 45.0082L100.555 45.8041L95.9254 48.349L95.488 47.5531L98.8641 45.6974L94.3143 45.4179L93.8816 44.6305L98.5115 42.0857L98.9442 42.873L95.5681 44.7287Z" fill="white" fill-opacity="0.2"/>
<path d="M101.893 50.3768L96.9091 52.1293L96.6078 51.2726L101.592 49.52L101.893 50.3768ZM102.481 52.0489L101.79 52.2918L100.324 48.1231L101.015 47.8802L102.481 52.0489Z" fill="white" fill-opacity="0.2"/>
<path d="M101.01 55.1377L101.319 56.6941C101.403 57.1123 101.399 57.4797 101.31 57.7963C101.223 58.1122 101.067 58.369 100.841 58.5667C100.618 58.7669 100.346 58.8991 100.023 58.9632C99.7839 59.0109 99.5506 59.0141 99.3233 58.9731C99.0993 58.9313 98.8925 58.843 98.7031 58.7081C98.5142 58.5764 98.351 58.3981 98.2133 58.1733C98.0795 57.951 97.9814 57.6834 97.9192 57.3705L97.4809 55.1676L102.663 54.1367L102.839 55.0227L98.3851 55.9087L98.6471 57.2257C98.6979 57.4811 98.7849 57.6762 98.9079 57.8111C99.031 57.9459 99.1727 58.0322 99.3329 58.07C99.4931 58.1079 99.653 58.1109 99.8126 58.0792C99.969 58.048 100.116 57.984 100.252 57.8871C100.389 57.7902 100.492 57.6553 100.56 57.4824C100.632 57.3088 100.642 57.0943 100.591 56.8389L100.282 55.2825L101.01 55.1377Z" fill="white" fill-opacity="0.2"/>
<path d="M98.774 62.7177C98.7832 62.9323 98.8357 63.1288 98.9313 63.3071C99.027 63.4855 99.1537 63.6299 99.3116 63.7404C99.4728 63.8507 99.6529 63.9098 99.852 63.9175L99.889 64.7761C99.5761 64.7733 99.2805 64.6801 99.0021 64.4966C98.7272 64.3162 98.5 64.0735 98.3207 63.7684C98.1447 63.4632 98.0486 63.1236 98.0325 62.7496C98.0154 62.3529 98.0704 62.0035 98.1975 61.7015C98.3247 61.4028 98.5061 61.1506 98.7416 60.945C98.9772 60.7426 99.2507 60.5858 99.5619 60.4746C99.8766 60.3666 100.211 60.3049 100.566 60.2897L100.771 60.2808C101.125 60.2656 101.462 60.2983 101.782 60.379C102.104 60.4628 102.392 60.5954 102.644 60.7768C102.897 60.9614 103.099 61.1971 103.251 61.4837C103.404 61.7737 103.489 62.117 103.506 62.5138C103.524 62.9268 103.455 63.2914 103.299 63.6077C103.146 63.9238 102.929 64.1759 102.647 64.364C102.369 64.5552 102.048 64.6668 101.684 64.6987L101.647 63.8401C101.864 63.8145 102.058 63.7442 102.229 63.6293C102.401 63.5177 102.534 63.3686 102.631 63.182C102.73 62.9985 102.775 62.7864 102.764 62.5457C102.752 62.2693 102.687 62.0391 102.568 61.8553C102.453 61.6745 102.3 61.5329 102.11 61.4303C101.924 61.3308 101.717 61.2615 101.49 61.2224C101.267 61.1864 101.04 61.1734 100.809 61.1833L100.605 61.1921C100.374 61.2021 100.147 61.2347 99.9245 61.2899C99.7021 61.3451 99.5021 61.4303 99.3246 61.5454C99.1472 61.6638 99.0073 61.8181 98.9047 62.0083C98.8055 62.2015 98.7619 62.438 98.774 62.7177Z" fill="white" fill-opacity="0.2"/>
<path d="M100.137 67.6166L100.028 68.587L97.6952 66.7861L97.8046 65.8156L100.137 67.6166ZM102.799 68.6782L102.551 70.8714L97.3013 70.2795L97.4025 69.3819L101.925 69.8917L102.071 68.5962C102.1 68.3407 102.079 68.1271 102.01 67.9555C101.944 67.7843 101.848 67.6538 101.72 67.5641C101.593 67.4744 101.456 67.4213 101.311 67.4049C101.168 67.3889 101.027 67.4074 100.887 67.4603C100.75 67.5137 100.631 67.6084 100.53 67.7445C100.43 67.8805 100.367 68.0634 100.341 68.2931L100.155 69.9379L99.4179 69.8548L99.6033 68.2099C99.6372 67.9091 99.7078 67.6468 99.8149 67.423C99.922 67.1992 100.056 67.0145 100.216 66.8688C100.38 66.7235 100.564 66.6197 100.767 66.5575C100.974 66.4956 101.192 66.4776 101.422 66.5035C101.652 66.5294 101.859 66.597 102.043 66.7062C102.227 66.8186 102.382 66.9672 102.509 67.1518C102.635 67.3396 102.723 67.5609 102.773 67.8155C102.826 68.0736 102.834 68.3612 102.799 68.6782Z" fill="white" fill-opacity="0.2"/>
<path d="M95.0596 77.7984C94.9797 77.9978 94.9466 78.1985 94.9604 78.4004C94.9742 78.6023 95.0303 78.7861 95.1287 78.9518C95.2302 79.1187 95.3701 79.2466 95.5483 79.3356L95.2287 80.1333C94.9447 80.002 94.7136 79.7954 94.5354 79.5136C94.3591 79.2361 94.252 78.9214 94.2141 78.5695C94.1792 78.2189 94.2314 77.8699 94.3707 77.5224C94.5184 77.1537 94.7123 76.8579 94.9524 76.635C95.1913 76.4151 95.4603 76.2599 95.7596 76.1694C96.0577 76.082 96.3714 76.0516 96.7008 76.0784C97.0321 76.1094 97.3624 76.1909 97.6917 76.3229L97.8821 76.3992C98.2115 76.5311 98.5051 76.6996 98.7631 76.9047C99.0229 77.114 99.2304 77.3532 99.3856 77.6223C99.5396 77.8944 99.6271 78.1924 99.6481 78.5165C99.6678 78.8435 99.6039 79.1913 99.4561 79.56C99.3024 79.9437 99.0894 80.2477 98.8173 80.4718C98.5482 80.6971 98.2465 80.8374 97.9121 80.8929C97.5797 80.9525 97.2412 80.9221 96.8967 80.8016L97.2163 80.0039C97.4248 80.0699 97.6306 80.0857 97.8337 80.0514C98.0357 80.0201 98.2189 79.9392 98.3834 79.8087C98.5497 79.6825 98.6776 79.5075 98.7672 79.2839C98.8701 79.0271 98.9053 78.7905 98.8728 78.574C98.8421 78.3618 98.7612 78.1699 98.6301 77.9981C98.5009 77.8306 98.3411 77.6824 98.1507 77.5536C97.9622 77.4289 97.7607 77.3236 97.5461 77.2377L97.3558 77.1614C97.1412 77.0754 96.9212 77.0118 96.6958 76.9706C96.4703 76.9294 96.253 76.9247 96.0439 76.9566C95.8335 76.9916 95.6424 77.0746 95.4707 77.2057C95.3007 77.341 95.1637 77.5385 95.0596 77.7984Z" fill="white" fill-opacity="0.2"/>
<path d="M93.8298 88.1413L89.6263 84.9408L90.1735 84.2221L94.377 87.4226L93.8298 88.1413ZM91.7296 90.8995L90.8384 87.0727L91.6045 86.0665L92.3167 86.4369L91.6896 87.2605L92.3951 90.0254L91.7296 90.8995ZM88.1148 86.9259L91.1957 86.8291L91.3642 87.6878L87.4197 87.8389L88.1148 86.9259Z" fill="white" fill-opacity="0.2"/>
<path d="M88.3074 90.0625L88.3851 90.1436C88.6484 90.4187 88.8527 90.7121 88.9979 91.0238C89.1453 91.3378 89.227 91.6538 89.2431 91.9719C89.2615 92.2923 89.2098 92.6032 89.0881 92.9044C88.9687 93.208 88.7761 93.487 88.5104 93.7414C88.2424 93.998 87.9541 94.1794 87.6456 94.2855C87.3369 94.3962 87.023 94.4354 86.7036 94.4031C86.3842 94.3754 86.0709 94.2811 85.7636 94.1201C85.4585 93.9615 85.1743 93.7447 84.9109 93.4696L84.8332 93.3885C84.5699 93.1133 84.3656 92.8199 84.2204 92.5083C84.0753 92.1966 83.9947 91.8794 83.9787 91.5567C83.9626 91.2387 84.0143 90.9278 84.1337 90.6242C84.253 90.3252 84.4467 90.0474 84.7148 89.7908C84.9828 89.5342 85.27 89.3516 85.5763 89.2432C85.8848 89.1371 86.1988 89.0979 86.5182 89.1256C86.8375 89.1579 87.1497 89.2533 87.4547 89.4119C87.7598 89.5705 88.044 89.7874 88.3074 90.0625ZM87.7326 90.7683L87.6549 90.6871C87.4726 90.4967 87.278 90.3382 87.0713 90.2117C86.8667 90.0875 86.6579 90.0035 86.4448 89.9597C86.2292 89.9182 86.0173 89.9251 85.8089 89.9804C85.6027 90.0381 85.4091 90.1536 85.228 90.3269C85.0493 90.498 84.9279 90.6841 84.8636 90.8853C84.7993 91.0911 84.7843 91.3015 84.8188 91.5163C84.8532 91.7312 84.928 91.9435 85.0432 92.1532C85.1582 92.3675 85.3069 92.5699 85.4893 92.7604L85.5669 92.8415C85.747 93.0296 85.9405 93.1846 86.1474 93.3066C86.3541 93.4331 86.5652 93.5171 86.7808 93.5587C86.9962 93.6048 87.2081 93.6002 87.4165 93.5449C87.6226 93.4918 87.8161 93.3786 87.9972 93.2053C88.1759 93.0342 88.2974 92.8458 88.3617 92.6399C88.4237 92.4364 88.4376 92.2249 88.4032 92.0054C88.3687 91.7905 88.2928 91.5771 88.1754 91.365C88.0603 91.1553 87.9126 90.9564 87.7326 90.7683Z" fill="white" fill-opacity="0.2"/>
<path d="M80.0031 94.6517L80.8515 99.0302L80.1372 99.5253L79.062 93.8424L79.5757 93.4864L84.5115 96.4935L83.7972 96.9886L80.0031 94.6517ZM84.0139 96.8384L81.0043 92.4962L81.7468 91.9816L84.7563 96.3239L84.0139 96.8384ZM77.6574 94.8159L80.6669 99.1582L79.9205 99.6755L76.9109 95.3333L77.6574 94.8159Z" fill="white" fill-opacity="0.2"/>
<path d="M74.9209 101.359L74.615 100.677L77.0516 99.5834L77.3576 100.265L74.9209 101.359ZM77.2373 100.319L75.0736 95.4991L75.8977 95.1292L78.0614 99.949L77.2373 100.319ZM74.1904 101.687L72.0267 96.867L72.8552 96.495L75.0189 101.315L74.1904 101.687Z" fill="white" fill-opacity="0.2"/>
<path d="M67.4915 98.6732L68.1858 101.303C68.239 101.504 68.3261 101.668 68.447 101.794C68.5655 101.925 68.7159 102.01 68.898 102.049C69.0801 102.088 69.2892 102.077 69.5253 102.015C69.7456 101.956 69.9292 101.868 70.076 101.748C70.2197 101.629 70.3226 101.496 70.3846 101.348C70.4435 101.202 70.4542 101.057 70.4168 100.916L71.2902 100.685C71.3384 100.868 71.339 101.061 71.2919 101.265C71.2449 101.47 71.1523 101.667 71.0143 101.859C70.874 102.054 70.6907 102.227 70.4645 102.378C70.236 102.532 69.9675 102.65 69.6591 102.732C69.2877 102.83 68.9437 102.853 68.6272 102.802C68.3076 102.752 68.0338 102.621 67.806 102.408C67.5759 102.199 67.4105 101.905 67.31 101.524L66.6817 99.1446C66.6368 98.9746 66.5748 98.7974 66.4958 98.6129C66.4136 98.4292 66.3244 98.276 66.228 98.1533L66.2081 98.0778L67.1192 97.8372C67.1899 97.9263 67.2598 98.0509 67.329 98.211C67.3991 98.3743 67.4532 98.5284 67.4915 98.6732ZM67.9276 100.937L67.756 100.325L68.6389 100.092C68.8875 100.027 69.104 99.9476 69.2883 99.8551C69.4735 99.7658 69.6218 99.6644 69.7332 99.5508C69.8446 99.4372 69.9191 99.3115 69.9568 99.1736C69.9953 99.0389 69.9938 98.8928 69.9522 98.7355C69.9098 98.5749 69.835 98.4381 69.7277 98.3251C69.6204 98.212 69.484 98.1352 69.3184 98.0948C69.1505 98.0583 68.9596 98.0683 68.7456 98.1248C68.4781 98.1955 68.257 98.3145 68.0823 98.4818C67.9076 98.6491 67.7821 98.8304 67.7057 99.0256C67.6262 99.2217 67.6021 99.3981 67.6334 99.5548L67.1495 99.2331C67.1366 99.0951 67.1577 98.933 67.2129 98.7467C67.2681 98.5604 67.358 98.3717 67.4826 98.1806C67.6049 97.9934 67.7649 97.8216 67.9626 97.665C68.158 97.5124 68.3941 97.3995 68.6711 97.3264C69.0173 97.235 69.3389 97.2224 69.6358 97.2888C69.9297 97.356 70.1789 97.4838 70.3835 97.6721C70.5858 97.8645 70.7243 98.1023 70.7991 98.3856C70.8714 98.6594 70.8815 98.9143 70.8294 99.1503C70.778 99.3894 70.6699 99.6048 70.5051 99.7965C70.341 99.9913 70.127 100.162 69.8628 100.309C69.5987 100.457 69.2919 100.576 68.9426 100.669L67.9276 100.937Z" fill="white" fill-opacity="0.2"/>
<path d="M61.5055 101.277L61.4285 100.548L64.206 100.255L64.283 100.983L61.5055 101.277ZM64.3343 103.28L63.7791 98.0265L64.6774 97.9316L65.2326 103.186L64.3343 103.28ZM61.0178 103.631L60.4626 98.377L61.3657 98.2816L61.921 103.536L61.0178 103.631Z" fill="white" fill-opacity="0.2"/>
<path d="M57.6342 99.3273L54.9703 103.026L54.0638 102.972L54.3816 97.698L55.2882 97.7526L55.0564 101.598L57.7203 97.8992L58.6171 97.9532L58.2992 103.227L57.4024 103.173L57.6342 99.3273Z" fill="white" fill-opacity="0.2"/>
<path d="M50.5225 96.3725C50.8807 96.4558 51.1917 96.5917 51.4553 96.7801C51.7151 96.9709 51.9238 97.2016 52.0813 97.4722C52.2358 97.7421 52.3331 98.0422 52.3732 98.3723C52.4133 98.7025 52.3913 99.0483 52.3072 99.4098L52.2607 99.6095C52.1633 100.028 52.0148 100.386 51.8151 100.684C51.6148 100.985 51.3818 101.225 51.1162 101.404C50.8507 101.582 50.5695 101.699 50.2727 101.754C49.9759 101.808 49.6833 101.802 49.3948 101.735C49.027 101.649 48.7247 101.512 48.4879 101.323C48.2479 101.134 48.0689 100.905 47.9508 100.637C47.832 100.372 47.7672 100.076 47.7563 99.7493C47.7447 99.4258 47.781 99.0833 47.8651 98.7219L47.957 98.3271L51.7996 99.2215L51.6324 99.9396L48.6696 99.25L48.6541 99.3166C48.6137 99.5478 48.6096 99.7808 48.6419 100.016C48.6709 100.25 48.7564 100.457 48.8983 100.637C49.0403 100.817 49.2618 100.942 49.563 101.012C49.7627 101.059 49.9566 101.059 50.1445 101.012C50.3318 100.969 50.5048 100.879 50.6637 100.742C50.8225 100.605 50.9629 100.425 51.0848 100.203C51.2067 99.9809 51.3038 99.7144 51.3762 99.4037L51.4226 99.2039C51.4795 98.9598 51.4997 98.7222 51.4833 98.4911C51.4629 98.2624 51.4066 98.0521 51.3143 97.8602C51.2187 97.6675 51.0881 97.5034 50.9225 97.3679C50.7536 97.2317 50.5488 97.1356 50.3078 97.0795C49.9971 97.0072 49.7192 97.0094 49.4741 97.086C49.229 97.1626 49.0008 97.2884 48.7897 97.4631L48.3556 96.9159C48.5057 96.7737 48.684 96.6464 48.8906 96.5341C49.0973 96.4218 49.3369 96.3472 49.6095 96.3104C49.8789 96.2728 50.1832 96.2935 50.5225 96.3725Z" fill="white" fill-opacity="0.2"/>
<path d="M45.9834 96.1801L42.2888 98.8501L41.4458 98.5123L43.4107 93.6081L44.2538 93.9459L42.8209 97.522L46.5155 94.8521L47.3495 95.1862L45.3845 100.09L44.5506 99.7563L45.9834 96.1801ZM42.0347 100.81L41.3548 100.538C41.4493 100.302 41.5878 100.114 41.7704 99.9732C41.9519 99.8355 42.1644 99.7558 42.408 99.7342C42.6516 99.7126 42.9124 99.7575 43.1904 99.8688C43.6104 100.037 43.898 100.282 44.0532 100.604C44.2041 100.927 44.2081 101.267 44.0653 101.624L43.3854 101.351C43.4568 101.173 43.4684 100.995 43.4202 100.818C43.3719 100.641 43.2239 100.503 42.9761 100.404C42.7344 100.307 42.5349 100.306 42.3777 100.401C42.2205 100.495 42.1061 100.632 42.0347 100.81Z" fill="white" fill-opacity="0.2"/>
</svg>
