<svg width="266" height="267" viewBox="0 0 266 267" fill="none" xmlns="http://www.w3.org/2000/svg">
<path d="M84.5743 217.331C38.1799 190.545 22.284 131.221 49.0698 84.8266C75.8556 38.4322 135.18 22.5363 181.574 49.3221C227.969 76.108 243.865 135.432 217.079 181.827C190.293 228.221 130.969 244.117 84.5743 217.331Z" fill="#2D2D2D"/>
<path d="M60.5828 194.113L59.8129 193.309C60.1586 192.978 60.4844 192.767 60.7902 192.677C61.0926 192.591 61.3862 192.587 61.6711 192.666C61.9527 192.741 62.2314 192.866 62.5073 193.041C62.7798 193.213 63.0591 193.395 63.345 193.588C63.6988 193.83 64.0695 194.016 64.4569 194.146C64.8374 194.275 65.2406 194.315 65.6665 194.265C66.089 194.212 66.5399 194.041 67.0194 193.751C67.4954 193.457 68.0059 193.012 68.5507 192.417L69.0374 191.951L69.8073 192.755L69.3206 193.221C68.6681 193.845 68.0394 194.329 67.4345 194.672C66.8262 195.011 66.2447 195.226 65.6902 195.317C65.1356 195.409 64.6093 195.392 64.1113 195.267C63.6099 195.139 63.1398 194.92 62.7011 194.61C62.3848 194.385 62.1021 194.203 61.8531 194.063C61.6005 193.926 61.3723 193.857 61.1686 193.856C60.9615 193.852 60.7662 193.937 60.5828 194.113ZM64.5119 192.572C64.154 192.198 63.9002 191.802 63.7504 191.385C63.6006 190.967 63.5442 190.544 63.5812 190.117C63.6181 189.69 63.7447 189.271 63.9608 188.861C64.17 188.451 64.4598 188.069 64.8301 187.715L64.9465 187.603C65.3451 187.222 65.7712 186.925 66.2247 186.714C66.6714 186.503 67.128 186.387 67.5947 186.366C68.0545 186.345 68.5068 186.426 68.9518 186.608C69.3934 186.787 69.8067 187.077 70.1916 187.479C70.5766 187.881 70.8505 188.309 71.0133 188.761C71.1727 189.21 71.2336 189.666 71.1959 190.128C71.1547 190.593 71.0205 191.046 70.7933 191.486C70.5592 191.927 70.2429 192.338 69.8444 192.719L69.728 192.831C69.6398 192.915 69.5382 192.982 69.4231 193.031C69.3081 193.081 69.1845 193.124 69.0525 193.163C68.917 193.198 68.7813 193.243 68.6454 193.299C68.2031 193.473 67.738 193.576 67.2504 193.611C66.7593 193.641 66.2789 193.577 65.8093 193.419C65.3327 193.26 64.9002 192.978 64.5119 192.572ZM65.4931 191.998C65.8376 192.357 66.2041 192.574 66.5927 192.648C66.978 192.719 67.3622 192.679 67.7453 192.528C68.125 192.381 68.4735 192.156 68.7909 191.852L68.9073 191.741C69.1754 191.484 69.399 191.209 69.578 190.916C69.7571 190.623 69.8793 190.323 69.9447 190.017C70.0031 189.711 69.9907 189.409 69.9075 189.11C69.8208 188.808 69.6475 188.521 69.3875 188.249C69.1275 187.978 68.85 187.794 68.5551 187.697C68.2602 187.601 67.9603 187.577 67.6553 187.626C67.3468 187.678 67.0423 187.787 66.7416 187.953C66.441 188.119 66.1567 188.331 65.8886 188.587L65.7722 188.699C65.5324 188.928 65.3353 189.178 65.1809 189.447C65.0265 189.717 64.9289 189.996 64.8881 190.285C64.8439 190.571 64.8704 190.86 64.9676 191.152C65.058 191.444 65.2331 191.726 65.4931 191.998Z" fill="white" fill-opacity="0.2"/>
<path d="M61.2963 182.311L61.1578 182.407C60.6883 182.732 60.2056 182.966 59.7097 183.108C59.2098 183.252 58.7224 183.299 58.2474 183.248C57.7684 183.2 57.3201 183.05 56.9024 182.799C56.4807 182.55 56.1128 182.199 55.7985 181.746C55.4814 181.288 55.2806 180.819 55.196 180.337C55.1046 179.853 55.1204 179.379 55.2434 178.914C55.3596 178.447 55.5731 178.005 55.8838 177.587C56.1906 177.173 56.5787 176.803 57.0482 176.477L57.1867 176.381C57.6562 176.056 58.139 175.822 58.6348 175.681C59.1307 175.539 59.6196 175.494 60.1013 175.547C60.5763 175.598 61.0246 175.747 61.4463 175.996C61.8612 176.243 62.2272 176.595 62.5442 177.053C62.8613 177.51 63.0642 177.979 63.1527 178.458C63.2373 178.94 63.2215 179.414 63.1053 179.881C62.9823 180.346 62.7675 180.786 62.4607 181.201C62.154 181.615 61.7658 181.985 61.2963 182.311ZM60.386 181.293L60.5244 181.197C60.8495 180.972 61.1301 180.721 61.3662 180.445C61.5983 180.171 61.7718 179.881 61.8869 179.576C61.9991 179.266 62.0388 178.951 62.0059 178.629C61.969 178.31 61.8434 177.996 61.6292 177.687C61.4179 177.382 61.1707 177.158 60.8877 177.016C60.598 176.872 60.2899 176.8 59.9635 176.801C59.6371 176.801 59.305 176.862 58.9672 176.983C58.6226 177.103 58.2878 177.276 57.9627 177.501L57.8243 177.597C57.5032 177.82 57.228 178.07 56.9987 178.348C56.7626 178.624 56.5885 178.917 56.4762 179.227C56.3572 179.535 56.3141 179.85 56.347 180.172C56.3771 180.489 56.4993 180.803 56.7135 181.112C56.9248 181.417 57.1754 181.641 57.4652 181.785C57.7521 181.925 58.0622 181.995 58.3954 181.996C58.7218 181.995 59.056 181.933 59.3977 181.809C59.7355 181.688 60.0649 181.516 60.386 181.293Z" fill="white" fill-opacity="0.2"/>
<path d="M48.5087 167.341L49.5172 166.852L51.1875 170.299L50.1791 170.788L48.5087 167.341ZM47.9881 166.267L55.1198 162.811L55.7107 164.03L48.579 167.486L47.9881 166.267ZM50.3228 171.085L49.7288 169.859L53.2588 168.376C53.8054 168.149 54.3 167.972 54.7428 167.844C55.179 167.714 55.5708 167.638 55.9183 167.617C56.2637 167.59 56.5712 167.62 56.841 167.707C57.1042 167.791 57.3382 167.932 57.5432 168.131C57.7438 168.333 57.9208 168.591 58.0741 168.908L58.2593 169.29L57.185 169.811L57.0374 169.557C56.9327 169.374 56.811 169.235 56.6725 169.139C56.5318 169.039 56.3665 168.978 56.1768 168.956C55.9827 168.936 55.7554 168.954 55.4948 169.01C55.2321 169.061 54.9329 169.149 54.5972 169.274C54.2594 169.394 53.8732 169.549 53.4384 169.738L50.3228 171.085Z" fill="white" fill-opacity="0.2"/>
<path d="M52.3824 152.626C52.5387 153.155 52.5916 153.662 52.5409 154.145C52.4841 154.625 52.3375 155.068 52.101 155.474C51.8631 155.875 51.5436 156.224 51.1425 156.521C50.7414 156.818 50.2739 157.045 49.74 157.202L49.445 157.29C48.8269 157.472 48.2497 157.543 47.7134 157.503C47.1725 157.465 46.6871 157.338 46.2572 157.124C45.8274 156.91 45.467 156.629 45.1762 156.282C44.8854 155.936 44.677 155.549 44.5511 155.123C44.3907 154.58 44.346 154.084 44.4171 153.635C44.4868 153.182 44.6529 152.779 44.9154 152.426C45.1732 152.075 45.5112 151.772 45.9294 151.516C46.343 151.261 46.8167 151.055 47.3506 150.897L47.9336 150.725L49.6101 156.401L48.5495 156.714L47.2568 152.338L47.1585 152.367C46.8268 152.485 46.5198 152.652 46.2373 152.868C45.9535 153.079 45.7466 153.344 45.6166 153.663C45.4866 153.981 45.4874 154.363 45.6188 154.808C45.7059 155.103 45.8494 155.355 46.0491 155.566C46.2442 155.779 46.4898 155.938 46.7858 156.044C47.0819 156.15 47.4201 156.2 47.8003 156.195C48.1806 156.189 48.6002 156.119 49.0591 155.983L49.3541 155.896C49.7147 155.789 50.0396 155.64 50.329 155.448C50.6123 155.252 50.845 155.023 51.0272 154.76C51.2079 154.493 51.3253 154.201 51.3795 153.885C51.4323 153.564 51.4062 153.225 51.301 152.869C51.1655 152.41 50.957 152.049 50.6756 151.786C50.3942 151.523 50.0614 151.319 49.6771 151.172L50.0699 150.201C50.3665 150.292 50.6645 150.43 50.964 150.617C51.2635 150.803 51.5381 151.061 51.7878 151.389C52.0362 151.713 52.2344 152.125 52.3824 152.626Z" fill="white" fill-opacity="0.2"/>
<path d="M50.3584 139.957C50.4324 140.503 50.4076 141.012 50.2839 141.482C50.1548 141.948 49.9425 142.363 49.647 142.728C49.3508 143.089 48.9819 143.385 48.5403 143.617C48.0987 143.85 47.6021 144.003 47.0505 144.078L46.7457 144.119C46.1069 144.205 45.5256 144.188 45.0017 144.067C44.4729 143.946 44.0124 143.747 43.6202 143.47C43.2279 143.193 42.9145 142.861 42.6798 142.474C42.4451 142.087 42.298 141.673 42.2384 141.233C42.1625 140.671 42.1938 140.174 42.3323 139.742C42.4702 139.304 42.6957 138.931 43.0087 138.623C43.3169 138.315 43.6972 138.067 44.1495 137.877C44.597 137.689 45.0966 137.557 45.6482 137.482L46.2506 137.401L47.0441 143.265L45.9481 143.414L45.3363 138.892L45.2347 138.906C44.8889 138.972 44.56 139.091 44.248 139.261C43.9354 139.426 43.6906 139.657 43.5137 139.952C43.3368 140.246 43.2794 140.624 43.3416 141.083C43.3829 141.388 43.4862 141.66 43.6515 141.899C43.812 142.138 44.0305 142.333 44.307 142.483C44.5835 142.633 44.9101 142.734 45.2867 142.786C45.6634 142.839 46.0888 142.833 46.563 142.769L46.8678 142.728C47.2404 142.677 47.5844 142.579 47.8996 142.433C48.2094 142.282 48.4743 142.091 48.6942 141.86C48.9135 141.623 49.074 141.352 49.1757 141.048C49.2767 140.739 49.3024 140.4 49.2526 140.032C49.1885 139.558 49.0373 139.17 48.7993 138.867C48.5612 138.564 48.2634 138.311 47.9058 138.108L48.4418 137.208C48.7211 137.343 48.9946 137.525 49.2622 137.755C49.5299 137.985 49.7621 138.281 49.959 138.643C50.1552 139.001 50.2883 139.439 50.3584 139.957Z" fill="white" fill-opacity="0.2"/>
<path d="M43.8106 114.745L44.9211 114.896L44.3832 118.866L43.2727 118.715L43.8106 114.745ZM43.2993 118.52L51.1523 119.583L50.9704 120.926L43.1174 119.862L43.2993 118.52ZM43.9719 113.555L51.8249 114.619L51.642 115.969L43.789 114.905L43.9719 113.555Z" fill="white" fill-opacity="0.2"/>
<path d="M50.2801 106.937L50.1192 106.887C49.5736 106.718 49.0922 106.482 48.675 106.178C48.2532 105.874 47.916 105.519 47.6635 105.113C47.4063 104.706 47.2479 104.261 47.1883 103.777C47.1241 103.292 47.1737 102.786 47.3372 102.259C47.5021 101.727 47.7483 101.28 48.0758 100.916C48.4001 100.546 48.7834 100.266 49.2258 100.076C49.6649 99.8804 50.1446 99.7761 50.6648 99.7637C51.1804 99.7498 51.7109 99.8275 52.2566 99.9967L52.4175 100.047C52.9631 100.216 53.4445 100.452 53.8617 100.755C54.2789 101.059 54.6153 101.416 54.8711 101.828C55.1236 102.233 55.282 102.678 55.3462 103.164C55.4072 103.643 55.3553 104.148 55.1904 104.68C55.0254 105.211 54.7816 105.66 54.4587 106.025C54.1312 106.388 53.7479 106.668 53.3087 106.864C52.8664 107.054 52.3874 107.156 51.8719 107.17C51.3564 107.184 50.8258 107.106 50.2801 106.937ZM50.5207 105.593L50.6816 105.643C51.0593 105.76 51.4298 105.826 51.7931 105.842C52.1517 105.856 52.4867 105.814 52.7982 105.717C53.1111 105.614 53.3841 105.451 53.6173 105.227C53.8457 105.001 54.0157 104.709 54.1271 104.35C54.237 103.995 54.2609 103.663 54.1988 103.352C54.1335 103.035 54 102.749 53.7985 102.492C53.597 102.235 53.3444 102.011 53.0408 101.82C52.7339 101.622 52.3916 101.465 52.0139 101.348L51.853 101.298C51.4799 101.182 51.1133 101.12 50.7533 101.11C50.39 101.095 50.0519 101.138 49.739 101.24C49.4229 101.336 49.1482 101.497 48.9151 101.721C48.6834 101.94 48.5119 102.23 48.4005 102.589C48.2905 102.943 48.2682 103.279 48.3336 103.596C48.4003 103.908 48.5361 104.195 48.7409 104.458C48.9424 104.715 49.1973 104.94 49.5056 105.132C49.8092 105.324 50.1476 105.477 50.5207 105.593Z" fill="white" fill-opacity="0.2"/>
<path d="M52.4973 91.1128L53.0918 89.8952L55.706 91.3018C56.3688 91.658 56.9149 92.0197 57.3443 92.3869C57.7736 92.7541 58.1134 93.121 58.3636 93.4877C58.6095 93.8522 58.7887 94.2141 58.9013 94.5734C59.016 94.9282 59.0892 95.2736 59.1208 95.6096L58.8251 96.2152L57.8474 95.6971L57.9629 95.4437C57.8624 95.2154 57.7555 94.9893 57.642 94.7655C57.5241 94.5395 57.368 94.3084 57.1735 94.0722C56.9747 93.8339 56.7115 93.5885 56.3837 93.3361C56.0537 93.0772 55.6285 92.8072 55.1083 92.526L52.4973 91.1128ZM52.6451 90.81L54.7369 86.5253L61.8584 90.002L61.2639 91.2196L55.268 88.2924L53.7706 91.3595L52.6451 90.81ZM57.6898 96.0032L61.3046 88.5987L64.4046 90.1121L63.8102 91.3297L61.7106 90.3047L59.2846 95.274L61.3842 96.299L60.7866 97.5232L57.6898 96.0032Z" fill="white" fill-opacity="0.2"/>
<path d="M61.9379 79.0935L69.6276 84.5832L68.8361 85.692L59.9065 79.3171L60.6299 78.3037L61.9379 79.0935ZM66.9716 76.1267L67.0968 76.2161C67.5657 76.5509 67.9612 76.9172 68.2831 77.315C68.6011 77.71 68.8305 78.1197 68.9714 78.5443C69.1151 78.9648 69.1578 79.3883 69.0994 79.8145C69.041 80.2408 68.8686 80.6547 68.5821 81.0561C68.2898 81.4654 67.9641 81.7788 67.6049 81.9963C67.2456 82.2138 66.8588 82.3396 66.4445 82.3737C66.0301 82.4079 65.5953 82.3615 65.14 82.2344C64.6876 82.1034 64.2179 81.9001 63.7308 81.6243L63.0631 81.1477C62.6203 80.7596 62.2569 80.3652 61.973 79.9645C61.6891 79.5638 61.4906 79.1612 61.3776 78.7565C61.2634 78.345 61.2474 77.9346 61.3296 77.5253C61.4078 77.1132 61.5916 76.7045 61.881 76.2991C62.1704 75.8938 62.5066 75.5909 62.8897 75.3904C63.2688 75.1871 63.68 75.0817 64.1233 75.0742C64.5666 75.0667 65.0293 75.154 65.5112 75.3361C65.992 75.5114 66.4788 75.7749 66.9716 76.1267ZM66.3053 77.3248L66.1801 77.2355C65.8582 77.0057 65.532 76.8238 65.2017 76.69C64.8673 76.5532 64.5417 76.4798 64.225 76.4697C63.9071 76.4527 63.6086 76.5096 63.3294 76.6402C63.0462 76.768 62.7967 76.9829 62.5811 77.2849C62.3825 77.5631 62.2572 77.8396 62.205 78.1143C62.1557 78.3851 62.1614 78.6501 62.2222 78.9095C62.2791 79.1661 62.3782 79.4138 62.5196 79.6527C62.6598 79.8849 62.8236 80.1008 63.011 80.3005L64.5549 81.4027C64.8898 81.5219 65.2316 81.5978 65.5801 81.6307C65.9246 81.6607 66.2575 81.6103 66.5788 81.4797C66.896 81.3462 67.1837 81.0987 67.4419 80.7371C67.6547 80.439 67.7761 80.1387 67.8061 79.8362C67.835 79.5268 67.7898 79.2246 67.6705 78.9294C67.5541 78.6303 67.3789 78.3463 67.1449 78.0773C66.907 77.8055 66.6272 77.5546 66.3053 77.3248Z" fill="white" fill-opacity="0.2"/>
<path d="M71.717 71.7858L71.5969 71.6677C71.1895 71.2672 70.8699 70.8366 70.638 70.3759C70.4027 69.9118 70.2658 69.4417 70.2272 68.9655C70.1851 68.4859 70.2484 68.0175 70.4171 67.5603C70.5824 67.0997 70.8584 66.6726 71.2452 66.2792C71.6355 65.8822 72.0594 65.5972 72.5172 65.4241C72.9749 65.2441 73.4438 65.171 73.924 65.2049C74.4042 65.2318 74.8783 65.359 75.3464 65.5863C75.811 65.8102 76.247 66.1225 76.6544 66.5229L76.7745 66.641C77.1819 67.0415 77.5015 67.4721 77.7334 67.9328C77.9652 68.3935 78.1004 68.8654 78.1391 69.3485C78.1777 69.8246 78.1144 70.293 77.9491 70.7536C77.7838 71.2074 77.506 71.6327 77.1158 72.0297C76.7256 72.4266 76.3033 72.7134 75.8491 72.8899C75.3913 73.063 74.9224 73.136 74.4422 73.1091C73.962 73.0752 73.4896 72.9463 73.025 72.7224C72.5604 72.4985 72.1244 72.1863 71.717 71.7858ZM72.5468 70.7014L72.6669 70.8195C72.9489 71.0968 73.2478 71.3256 73.5636 71.5059C73.8758 71.6827 74.1928 71.7991 74.5144 71.8551C74.8394 71.9076 75.1569 71.8876 75.4668 71.7952C75.7733 71.6993 76.0583 71.5173 76.3219 71.2492C76.582 70.9846 76.7557 70.7 76.8429 70.3954C76.93 70.0839 76.9428 69.7678 76.8814 69.4473C76.8199 69.1267 76.6981 68.8118 76.5159 68.5026C76.3337 68.1865 76.1015 67.8898 75.8195 67.6125L75.6994 67.4944C75.4208 67.2206 75.1237 66.997 74.808 66.8236C74.4922 66.6433 74.1719 66.5269 73.8469 66.4744C73.5218 66.4151 73.2043 66.4316 72.8943 66.524C72.5878 66.613 72.3027 66.7915 72.0391 67.0596C71.779 67.3242 71.6054 67.6123 71.5182 67.9238C71.4346 68.2318 71.4235 68.5496 71.485 68.8771C71.5464 69.1976 71.67 69.5142 71.8556 69.8269C72.0378 70.1361 72.2682 70.4276 72.5468 70.7014Z" fill="white" fill-opacity="0.2"/>
<path d="M81.8015 53.8145L82.6948 53.15C82.9804 53.534 83.1489 53.8833 83.2004 54.1979C83.249 54.5087 83.2166 54.8005 83.1032 55.0735C82.9938 55.3436 82.835 55.6047 82.627 55.8568C82.4229 56.106 82.2076 56.3605 81.981 56.6204C81.6965 56.9416 81.4662 57.2864 81.2899 57.6548C81.1147 58.0164 81.0252 58.4116 81.0216 58.8403C81.0219 59.2661 81.1363 59.7348 81.3647 60.2464C81.5971 60.7552 81.9753 61.3167 82.4992 61.9311L82.9014 62.4717L82.0082 63.1362L81.606 62.5955C81.0669 61.8708 80.6647 61.1871 80.3997 60.5444C80.1385 59.8989 79.9968 59.2953 79.9746 58.7337C79.9524 58.172 80.034 57.6519 80.2195 57.1731C80.4089 56.6914 80.6845 56.252 81.0465 55.855C81.3083 55.5689 81.5242 55.311 81.694 55.0812C81.861 54.8475 81.9575 54.6296 81.9837 54.4275C82.0138 54.2226 81.9531 54.0182 81.8015 53.8145ZM82.8446 57.9041C83.2599 57.5951 83.684 57.3922 84.117 57.2953C84.55 57.1983 84.9763 57.1946 85.3959 57.2842C85.8155 57.3737 86.2152 57.551 86.595 57.8162C86.9758 58.0745 87.3192 58.4094 87.6252 58.8207L87.7214 58.95C88.0507 59.3927 88.2921 59.8522 88.4455 60.3284C88.5999 60.7977 88.6586 61.2652 88.6217 61.7309C88.5857 62.1898 88.4497 62.6287 88.2137 63.0477C87.9816 63.4638 87.6422 63.8379 87.1956 64.1702C86.749 64.5024 86.2911 64.7213 85.8219 64.8269C85.3567 64.9296 84.8972 64.9336 84.4434 64.8391C83.9868 64.7406 83.5539 64.5514 83.1449 64.2715C82.7368 63.9847 82.3681 63.62 82.0388 63.1773L81.9426 63.048C81.8698 62.9501 81.816 62.841 81.7813 62.7207C81.7466 62.6005 81.7183 62.4724 81.6964 62.3366C81.6784 62.1979 81.6501 62.0576 81.6116 61.9159C81.4943 61.4554 81.4488 60.9811 81.4751 60.493C81.5053 60.0019 81.6283 59.5331 81.8439 59.0867C82.0605 58.6334 82.3941 58.2392 82.8446 57.9041ZM83.2932 58.9488C82.8935 59.2461 82.633 59.5829 82.5114 59.9594C82.3937 60.333 82.3858 60.7192 82.4878 61.118C82.5868 61.5129 82.7675 61.8867 83.0298 62.2393L83.126 62.3686C83.3474 62.6663 83.5925 62.9222 83.8612 63.1361C84.1299 63.3501 84.412 63.5084 84.7075 63.6111C85.004 63.707 85.3057 63.7321 85.6125 63.6864C85.9233 63.6378 86.2295 63.5013 86.5311 63.2769C86.8328 63.0525 87.0496 62.8 87.1816 62.5192C87.3135 62.2385 87.3742 61.9438 87.3637 61.6352C87.3503 61.3226 87.2798 61.0069 87.1521 60.688C87.0244 60.3692 86.8499 60.0609 86.6284 59.7631L86.5322 59.6338C86.334 59.3674 86.1108 59.141 85.8625 58.9545C85.6142 58.7679 85.3491 58.6365 85.0671 58.5602C84.7891 58.481 84.4991 58.4716 84.1971 58.5319C83.8961 58.5854 83.5948 58.7244 83.2932 58.9488Z" fill="white" fill-opacity="0.2"/>
<path d="M98.1143 52.8471L98.6258 53.8195L94.9179 55.7697L94.4065 54.7973L98.1143 52.8471ZM93.0603 51.6242L96.7493 58.638L95.5501 59.2688L91.861 52.255L93.0603 51.6242ZM97.4876 49.2955L101.177 56.3093L99.971 56.9435L96.2819 49.9297L97.4876 49.2955Z" fill="white" fill-opacity="0.2"/>
<path d="M106.536 50.5999L106.483 50.44C106.303 49.8977 106.216 49.3687 106.22 48.853C106.222 48.3326 106.315 47.8518 106.498 47.4105C106.679 46.9646 106.949 46.5767 107.308 46.247C107.666 45.9125 108.106 45.6586 108.63 45.485C109.158 45.31 109.666 45.2499 110.152 45.3048C110.641 45.3536 111.092 45.5026 111.504 45.7519C111.919 45.9951 112.282 46.3247 112.595 46.7406C112.906 47.1519 113.152 47.6287 113.331 48.171L113.384 48.3309C113.564 48.8732 113.652 49.4022 113.648 49.9179C113.644 50.4336 113.549 50.9152 113.363 51.3626C113.18 51.8039 112.91 52.1918 112.552 52.5262C112.198 52.8544 111.757 53.1061 111.228 53.2812C110.7 53.4562 110.193 53.5186 109.709 53.4683C109.222 53.4134 108.772 53.2644 108.357 53.0212C107.945 52.7719 107.584 52.4415 107.272 52.0303C106.961 51.619 106.716 51.1422 106.536 50.5999ZM107.769 50.0138L107.822 50.1737C107.947 50.5492 108.108 50.8891 108.307 51.1937C108.504 51.4936 108.733 51.7418 108.993 51.9384C109.259 52.1334 109.55 52.2606 109.868 52.3198C110.185 52.3744 110.521 52.3426 110.878 52.2244C111.23 52.1077 111.515 51.9337 111.731 51.7025C111.951 51.4651 112.107 51.1897 112.199 50.8765C112.29 50.5632 112.326 50.2274 112.305 49.8691C112.287 49.5047 112.216 49.1348 112.091 48.7593L112.038 48.5994C111.915 48.2286 111.753 47.894 111.551 47.5957C111.353 47.2911 111.121 47.0413 110.855 46.8463C110.593 46.6451 110.303 46.5149 109.985 46.4556C109.672 46.3948 109.337 46.4236 108.98 46.5418C108.628 46.6585 108.342 46.8356 108.122 47.073C107.907 47.3088 107.752 47.5865 107.657 47.9059C107.566 48.2192 107.531 48.5573 107.554 48.9202C107.575 49.2785 107.646 49.643 107.769 50.0138Z" fill="white" fill-opacity="0.2"/>
<path d="M129.325 46.5169L129.316 46.3487C129.285 45.7782 129.34 45.2447 129.479 44.7482C129.618 44.2468 129.834 43.8072 130.126 43.4296C130.419 43.047 130.781 42.7437 131.214 42.5198C131.647 42.291 132.138 42.1617 132.689 42.1319C133.245 42.1018 133.751 42.1772 134.205 42.358C134.665 42.5336 135.06 42.7958 135.392 43.1446C135.729 43.4882 135.993 43.9018 136.185 44.3853C136.378 44.8639 136.489 45.3884 136.52 45.9588L136.529 46.127C136.56 46.6975 136.506 47.231 136.366 47.7275C136.227 48.2241 136.009 48.6638 135.712 49.0466C135.419 49.4243 135.056 49.7275 134.624 49.9563C134.196 50.18 133.704 50.3068 133.148 50.3369C132.592 50.367 132.087 50.2941 131.633 50.1182C131.178 49.9374 130.782 49.6752 130.446 49.3316C130.114 48.9828 129.852 48.5691 129.66 48.0905C129.468 47.6119 129.356 47.0874 129.325 46.5169ZM130.669 46.2755L130.678 46.4437C130.7 46.8386 130.766 47.2091 130.878 47.5551C130.989 47.8963 131.145 48.1959 131.345 48.4541C131.549 48.7119 131.797 48.9112 132.088 49.052C132.379 49.1878 132.713 49.2456 133.088 49.2252C133.459 49.2052 133.779 49.1121 134.048 48.9459C134.323 48.7746 134.545 48.5498 134.716 48.2716C134.887 47.9934 135.009 47.6787 135.083 47.3275C135.162 46.9712 135.19 46.5956 135.169 46.2007L135.16 46.0325C135.139 45.6424 135.07 45.2769 134.954 44.936C134.842 44.59 134.684 44.288 134.479 44.0302C134.279 43.7672 134.033 43.5653 133.742 43.4246C133.456 43.2836 133.125 43.2233 132.75 43.2436C132.379 43.2636 132.057 43.3593 131.782 43.5306C131.513 43.7017 131.29 43.9289 131.115 44.2122C130.944 44.4904 130.822 44.8075 130.748 45.1636C130.674 45.5148 130.648 45.8854 130.669 46.2755Z" fill="white" fill-opacity="0.2"/>
<path d="M145.991 47.3809L144.541 47.2338L144.625 46.4031L145.966 46.5391C146.34 46.577 146.641 46.561 146.869 46.4908C147.097 46.4158 147.266 46.298 147.376 46.1373C147.485 45.9767 147.552 45.7822 147.575 45.5539C147.596 45.3498 147.562 45.1525 147.473 44.9619C147.39 44.767 147.239 44.6021 147.022 44.4672C146.806 44.3274 146.506 44.2381 146.122 44.1992C145.811 44.1677 145.524 44.1949 145.26 44.2811C144.996 44.3623 144.78 44.49 144.61 44.6642C144.445 44.834 144.351 45.0355 144.328 45.2687L142.98 45.132C143.028 44.6511 143.206 44.2519 143.513 43.9346C143.826 43.6129 144.22 43.3805 144.696 43.2374C145.176 43.0947 145.689 43.051 146.233 43.1062C146.69 43.1525 147.092 43.2449 147.442 43.3833C147.796 43.5175 148.09 43.6945 148.323 43.9144C148.556 44.1295 148.724 44.387 148.826 44.6869C148.933 44.9825 148.968 45.3173 148.93 45.6913C148.903 45.9585 148.814 46.2047 148.664 46.4299C148.513 46.6552 148.31 46.848 148.053 47.0085C147.797 47.1641 147.493 47.2756 147.143 47.3432C146.798 47.4112 146.413 47.4238 145.991 47.3809ZM144.592 46.7237L146.043 46.8708C146.514 46.9186 146.924 47.0069 147.275 47.1356C147.625 47.2595 147.913 47.4213 148.138 47.6208C148.363 47.8203 148.524 48.0549 148.619 48.3247C148.72 48.5901 148.753 48.888 148.72 49.2184C148.682 49.5876 148.573 49.9127 148.393 50.1938C148.217 50.4704 147.983 50.697 147.691 50.8735C147.398 51.0499 147.057 51.1723 146.667 51.2408C146.282 51.3097 145.861 51.321 145.404 51.2747C144.894 51.223 144.408 51.0853 143.945 50.8616C143.481 50.638 143.113 50.3282 142.839 49.9323C142.565 49.5316 142.457 49.047 142.515 48.4787L143.863 48.6154C143.839 48.8534 143.891 49.0869 144.02 49.316C144.149 49.545 144.341 49.7386 144.595 49.8969C144.853 50.0556 145.16 50.153 145.515 50.189C145.894 50.2274 146.215 50.2011 146.48 50.1102C146.744 50.0192 146.949 49.883 147.095 49.7015C147.246 49.5204 147.333 49.3158 147.356 49.0874C147.386 48.7911 147.352 48.5472 147.254 48.3556C147.156 48.164 146.989 48.0146 146.755 47.9074C146.525 47.7958 146.224 47.7211 145.85 47.6831L144.509 47.5472L144.592 46.7237Z" fill="white" fill-opacity="0.2"/>
<path d="M160.741 50.053L160.472 51.1181L156.41 50.0914L156.68 49.0263L160.741 50.053ZM157.798 45.766L155.856 53.4491L154.543 53.1171L156.485 45.4339L157.798 45.766ZM162.648 46.9919L160.706 54.6751L159.385 54.3412L161.327 46.6581L162.648 46.9919Z" fill="white" fill-opacity="0.2"/>
<path d="M171.997 58.2673L173.63 54.5287C173.755 54.2424 173.805 53.9686 173.78 53.7075C173.762 53.4439 173.665 53.204 173.487 52.988C173.31 52.772 173.053 52.5907 172.718 52.4441C172.405 52.3073 172.106 52.2408 171.822 52.2446C171.542 52.2504 171.297 52.3112 171.087 52.427C170.881 52.5449 170.734 52.7045 170.646 52.9058L169.404 52.3635C169.518 52.1039 169.697 51.876 169.943 51.6795C170.188 51.4831 170.481 51.3367 170.822 51.2403C171.169 51.1414 171.545 51.1088 171.952 51.1424C172.364 51.1734 172.79 51.2847 173.228 51.4763C173.756 51.7069 174.183 51.9997 174.507 52.3545C174.836 52.7114 175.036 53.1209 175.106 53.583C175.182 54.0426 175.102 54.5431 174.865 55.0845L173.388 58.4673C173.282 58.7089 173.19 58.975 173.111 59.2656C173.037 59.5581 172.999 59.8213 172.998 60.0553L172.951 60.1627L171.656 59.5969C171.655 59.4264 171.689 59.2147 171.757 58.9619C171.827 58.7046 171.907 58.4731 171.997 58.2673ZM173.592 55.1998L173.224 56.0782L171.969 55.53C171.616 55.3756 171.288 55.2669 170.985 55.2038C170.684 55.1364 170.415 55.1175 170.178 55.1473C169.942 55.1771 169.737 55.2555 169.564 55.3825C169.393 55.5051 169.259 55.6782 169.161 55.902C169.062 56.1302 169.022 56.3607 169.043 56.5936C169.064 56.8265 169.153 57.0438 169.31 57.2456C169.473 57.4448 169.707 57.6109 170.011 57.7438C170.392 57.9099 170.762 57.976 171.124 57.9419C171.485 57.9079 171.801 57.8116 172.073 57.6532C172.349 57.4968 172.542 57.3119 172.651 57.0985L172.92 57.9274C172.807 58.1017 172.631 58.2726 172.393 58.4402C172.154 58.6078 171.873 58.746 171.548 58.8547C171.23 58.9608 170.882 59.0139 170.504 59.0138C170.132 59.0112 169.749 58.924 169.355 58.752C168.863 58.537 168.473 58.2522 168.186 57.8975C167.903 57.5449 167.729 57.1625 167.664 56.7504C167.605 56.3358 167.664 55.9272 167.84 55.5245C168.01 55.1352 168.235 54.8261 168.516 54.5972C168.8 54.3639 169.127 54.2113 169.5 54.1395C169.874 54.0632 170.285 54.0616 170.733 54.1346C171.18 54.2076 171.652 54.3525 172.149 54.5695L173.592 55.1998Z" fill="white" fill-opacity="0.2"/>
<path d="M184.299 58.1583L180.024 64.8306L178.883 64.0995L183.159 57.4272L184.299 58.1583ZM188.678 60.9641L183.064 62.7601L181.467 61.7366L181.934 60.6269L183.242 61.4647L187.29 60.0749L188.678 60.9641ZM183.175 66.85L182.657 62.2555L183.92 61.8994L184.624 67.7786L183.175 66.85Z" fill="white" fill-opacity="0.2"/>
<path d="M191.143 68.6807L191.254 68.5545C191.632 68.1263 192.045 67.7842 192.493 67.5282C192.944 67.2685 193.406 67.1067 193.88 67.0427C194.356 66.9752 194.827 67.0134 195.293 67.1576C195.762 67.298 196.203 67.5509 196.616 67.9162C197.033 68.2847 197.341 68.6929 197.538 69.1408C197.742 69.5882 197.84 70.0526 197.832 70.5339C197.83 71.0149 197.729 71.4951 197.527 71.9746C197.328 72.4505 197.039 72.9025 196.661 73.3307L196.55 73.4569C196.171 73.8851 195.758 74.2272 195.311 74.4832C194.863 74.7393 194.399 74.8995 193.919 74.9638C193.445 75.0277 192.974 74.9894 192.505 74.849C192.044 74.7081 191.604 74.4534 191.187 74.0849C190.77 73.7164 190.461 73.31 190.26 72.8658C190.063 72.4179 189.965 71.9535 189.966 71.4726C189.975 70.9912 190.078 70.5126 190.277 70.0368C190.476 69.5609 190.764 69.1089 191.143 68.6807ZM192.27 69.4515L192.158 69.5778C191.896 69.8742 191.684 70.1849 191.521 70.5098C191.361 70.831 191.261 71.1537 191.222 71.4778C191.187 71.8052 191.224 72.1211 191.333 72.4257C191.445 72.7267 191.642 73.0016 191.924 73.2505C192.202 73.4962 192.495 73.6544 192.804 73.7252C193.12 73.7956 193.436 73.7916 193.753 73.7132C194.07 73.6347 194.378 73.4963 194.677 73.2979C194.983 73.0991 195.267 72.8514 195.529 72.555L195.64 72.4288C195.899 72.136 196.106 71.8274 196.262 71.5029C196.426 71.178 196.525 70.8519 196.56 70.5245C196.602 70.1967 196.568 69.8806 196.46 69.576C196.355 69.2746 196.161 68.9995 195.879 68.7506C195.601 68.5049 195.304 68.3468 194.989 68.2765C194.676 68.2093 194.359 68.2152 194.035 68.294C193.718 68.3725 193.408 68.5127 193.106 68.7148C192.807 68.9132 192.528 69.1588 192.27 69.4515Z" fill="white" fill-opacity="0.2"/>
<path d="M201.878 83.4095L208.313 81.5779L209.145 82.5817L200.79 84.92L200.192 84.1982L204.051 76.4347L204.883 77.4385L201.878 83.4095ZM204.63 77.134L198.528 82.1905L197.664 81.1472L203.766 76.0907L204.63 77.134ZM202.426 86.8939L208.528 81.8373L209.397 82.8863L203.295 87.9428L202.426 86.8939Z" fill="white" fill-opacity="0.2"/>
<path d="M208.858 94.4052L215.682 94.8245L216.339 96.0183L209.394 99.8356L208.738 98.6418L213.802 95.8582L206.977 95.4389L206.328 94.2579L213.273 90.4406L213.922 91.6216L208.858 94.4052Z" fill="white" fill-opacity="0.2"/>
<path d="M220.247 107.131L212.771 109.76L212.319 108.475L219.795 105.846L220.247 107.131ZM221.129 109.639L220.093 110.004L217.894 103.751L218.93 103.386L221.129 109.639Z" fill="white" fill-opacity="0.2"/>
<path d="M219.98 118.122L220.444 120.456C220.569 121.084 220.564 121.635 220.429 122.11C220.3 122.583 220.065 122.969 219.726 123.265C219.392 123.565 218.984 123.764 218.5 123.86C218.141 123.931 217.791 123.936 217.45 123.875C217.114 123.812 216.804 123.68 216.52 123.477C216.236 123.28 215.992 123.012 215.785 122.675C215.584 122.342 215.437 121.94 215.344 121.471L214.686 118.167L222.459 116.62L222.723 117.949L216.043 119.278L216.436 121.254C216.512 121.637 216.642 121.929 216.827 122.132C217.012 122.334 217.224 122.463 217.464 122.52C217.705 122.577 217.944 122.582 218.184 122.534C218.419 122.487 218.638 122.391 218.844 122.246C219.049 122.1 219.203 121.898 219.305 121.639C219.413 121.378 219.428 121.057 219.352 120.673L218.888 118.339L219.98 118.122Z" fill="white" fill-opacity="0.2"/>
<path d="M217.151 133.783C217.165 134.105 217.244 134.4 217.387 134.668C217.531 134.935 217.721 135.152 217.958 135.317C218.2 135.483 218.47 135.572 218.768 135.583L218.824 136.871C218.355 136.867 217.911 136.727 217.494 136.452C217.081 136.181 216.74 135.817 216.472 135.36C216.207 134.902 216.063 134.392 216.039 133.831C216.013 133.236 216.096 132.712 216.287 132.259C216.477 131.811 216.749 131.433 217.103 131.124C217.456 130.821 217.866 130.586 218.333 130.419C218.805 130.257 219.307 130.164 219.839 130.141L220.146 130.128C220.678 130.105 221.183 130.154 221.663 130.275C222.147 130.401 222.578 130.6 222.957 130.872C223.335 131.149 223.639 131.502 223.867 131.932C224.096 132.367 224.224 132.882 224.249 133.478C224.276 134.097 224.172 134.644 223.939 135.118C223.71 135.593 223.384 135.971 222.961 136.253C222.544 136.54 222.062 136.707 221.517 136.755L221.461 135.467C221.787 135.429 222.078 135.323 222.335 135.151C222.591 134.983 222.792 134.76 222.936 134.48C223.086 134.205 223.153 133.886 223.137 133.525C223.119 133.111 223.021 132.766 222.843 132.49C222.67 132.219 222.441 132.006 222.156 131.852C221.876 131.703 221.566 131.599 221.226 131.54C220.891 131.486 220.551 131.467 220.205 131.482L219.897 131.495C219.551 131.51 219.211 131.559 218.877 131.642C218.544 131.724 218.244 131.852 217.977 132.025C217.711 132.203 217.501 132.434 217.347 132.719C217.199 133.009 217.133 133.364 217.151 133.783Z" fill="white" fill-opacity="0.2"/>
<path d="M219.055 145.507L218.891 146.963L215.392 144.261L215.557 142.806L219.055 145.507ZM223.047 147.1L222.677 150.389L214.802 149.502L214.954 148.155L221.737 148.92L221.956 146.977C221.999 146.593 221.969 146.273 221.865 146.015C221.766 145.759 221.621 145.563 221.43 145.428C221.239 145.294 221.034 145.214 220.816 145.19C220.602 145.166 220.39 145.193 220.18 145.273C219.974 145.353 219.796 145.495 219.645 145.699C219.495 145.903 219.4 146.177 219.361 146.522L219.083 148.989L217.977 148.864L218.255 146.397C218.306 145.946 218.411 145.552 218.572 145.217C218.733 144.881 218.933 144.604 219.174 144.385C219.42 144.167 219.696 144.012 220.001 143.918C220.311 143.826 220.638 143.799 220.983 143.838C221.327 143.876 221.638 143.978 221.914 144.142C222.19 144.31 222.423 144.533 222.613 144.81C222.802 145.092 222.934 145.424 223.009 145.805C223.088 146.193 223.101 146.624 223.047 147.1Z" fill="white" fill-opacity="0.2"/>
<path d="M209.63 168.054C209.51 168.353 209.461 168.654 209.481 168.957C209.502 169.26 209.586 169.535 209.734 169.784C209.886 170.034 210.096 170.226 210.363 170.36L209.884 171.556C209.458 171.359 209.111 171.049 208.844 170.627C208.579 170.21 208.419 169.738 208.362 169.211C208.309 168.685 208.388 168.161 208.597 167.64C208.818 167.087 209.109 166.643 209.469 166.309C209.828 165.979 210.231 165.746 210.68 165.61C211.127 165.479 211.598 165.434 212.092 165.474C212.589 165.52 213.084 165.643 213.578 165.841L213.864 165.955C214.358 166.153 214.798 166.406 215.185 166.713C215.575 167.027 215.886 167.386 216.119 167.79C216.35 168.198 216.481 168.645 216.513 169.131C216.542 169.622 216.446 170.143 216.225 170.696C215.994 171.272 215.675 171.728 215.267 172.064C214.863 172.402 214.41 172.613 213.909 172.696C213.41 172.785 212.902 172.739 212.386 172.559L212.865 171.362C213.178 171.461 213.487 171.485 213.791 171.433C214.094 171.386 214.369 171.265 214.616 171.069C214.865 170.88 215.057 170.618 215.191 170.282C215.346 169.897 215.399 169.542 215.35 169.217C215.304 168.899 215.182 168.611 214.986 168.354C214.792 168.102 214.552 167.88 214.267 167.687C213.984 167.5 213.682 167.342 213.36 167.213L213.074 167.098C212.752 166.97 212.422 166.874 212.084 166.812C211.746 166.75 211.42 166.743 211.106 166.791C210.791 166.844 210.504 166.968 210.247 167.165C209.992 167.368 209.786 167.664 209.63 168.054Z" fill="white" fill-opacity="0.2"/>
<path d="M204.015 190.266L197.71 185.465L198.531 184.387L204.836 189.188L204.015 190.266ZM200.865 194.404L199.528 188.663L200.678 187.154L201.746 187.71L200.805 188.945L201.863 193.092L200.865 194.404ZM195.443 188.443L200.064 188.298L200.317 189.586L194.4 189.813L195.443 188.443Z" fill="white" fill-opacity="0.2"/>
<path d="M192.792 196.459L192.908 196.581C193.303 196.994 193.61 197.434 193.828 197.901C194.049 198.372 194.171 198.846 194.195 199.323C194.223 199.804 194.145 200.27 193.963 200.722C193.784 201.178 193.495 201.596 193.096 201.978C192.694 202.362 192.262 202.635 191.799 202.794C191.336 202.96 190.865 203.019 190.386 202.97C189.907 202.929 189.437 202.787 188.976 202.546C188.518 202.308 188.092 201.982 187.697 201.57L187.581 201.448C187.186 201.035 186.879 200.595 186.661 200.128C186.444 199.66 186.323 199.185 186.299 198.701C186.275 198.223 186.352 197.757 186.531 197.302C186.71 196.853 187.001 196.437 187.403 196.052C187.805 195.667 188.236 195.393 188.695 195.23C189.158 195.071 189.629 195.012 190.108 195.054C190.587 195.102 191.055 195.245 191.513 195.483C191.97 195.721 192.397 196.046 192.792 196.459ZM191.93 197.518L191.813 197.396C191.54 197.11 191.248 196.873 190.938 196.683C190.631 196.497 190.318 196.371 189.998 196.305C189.675 196.243 189.357 196.253 189.044 196.336C188.735 196.423 188.444 196.596 188.173 196.856C187.905 197.112 187.722 197.392 187.626 197.693C187.53 198.002 187.507 198.318 187.559 198.64C187.611 198.962 187.723 199.281 187.896 199.595C188.068 199.917 188.291 200.22 188.565 200.506L188.681 200.628C188.951 200.91 189.241 201.142 189.552 201.325C189.862 201.515 190.179 201.641 190.502 201.703C190.825 201.773 191.143 201.766 191.455 201.683C191.765 201.603 192.055 201.433 192.326 201.173C192.595 200.917 192.777 200.634 192.873 200.325C192.966 200.02 192.987 199.703 192.936 199.374C192.884 199.051 192.77 198.731 192.594 198.413C192.421 198.098 192.2 197.8 191.93 197.518Z" fill="white" fill-opacity="0.2"/>
<path d="M176.876 206.175L178.148 212.743L177.077 213.486L175.464 204.961L176.234 204.427L183.638 208.938L182.567 209.68L176.876 206.175ZM182.892 209.455L178.378 202.942L179.491 202.17L184.005 208.683L182.892 209.455ZM173.357 206.421L177.871 212.935L176.752 213.711L172.237 207.197L173.357 206.421Z" fill="white" fill-opacity="0.2"/>
<path d="M164.763 218.775L164.304 217.753L167.959 216.112L168.418 217.135L164.763 218.775ZM168.238 217.216L164.992 209.986L166.228 209.431L169.474 216.661L168.238 217.216ZM163.668 219.267L160.422 212.038L161.665 211.48L164.91 218.709L163.668 219.267Z" fill="white" fill-opacity="0.2"/>
<path d="M149.235 216.306L150.277 220.25C150.357 220.552 150.487 220.798 150.669 220.988C150.847 221.183 151.072 221.31 151.345 221.369C151.618 221.429 151.932 221.411 152.286 221.318C152.617 221.231 152.892 221.097 153.112 220.918C153.328 220.74 153.482 220.54 153.575 220.319C153.663 220.098 153.68 219.882 153.623 219.669L154.934 219.324C155.006 219.597 155.007 219.888 154.936 220.194C154.866 220.5 154.727 220.797 154.52 221.084C154.309 221.377 154.034 221.637 153.695 221.863C153.352 222.094 152.949 222.272 152.487 222.394C151.93 222.541 151.414 222.576 150.939 222.499C150.46 222.424 150.049 222.227 149.707 221.908C149.362 221.595 149.114 221.153 148.963 220.582L148.021 217.013C147.953 216.758 147.86 216.492 147.742 216.215C147.619 215.94 147.485 215.71 147.34 215.526L147.31 215.413L148.677 215.052C148.783 215.185 148.888 215.372 148.992 215.613C149.097 215.857 149.178 216.089 149.235 216.306ZM149.89 219.701L149.632 218.784L150.957 218.434C151.33 218.336 151.654 218.217 151.931 218.079C152.208 217.945 152.431 217.793 152.598 217.622C152.765 217.452 152.877 217.263 152.933 217.056C152.991 216.854 152.989 216.635 152.927 216.399C152.863 216.158 152.751 215.953 152.59 215.784C152.429 215.614 152.224 215.499 151.976 215.438C151.724 215.383 151.438 215.398 151.117 215.483C150.715 215.589 150.384 215.768 150.122 216.019C149.86 216.27 149.671 216.542 149.557 216.834C149.438 217.129 149.401 217.393 149.448 217.628L148.722 217.146C148.703 216.939 148.735 216.695 148.818 216.416C148.9 216.137 149.035 215.854 149.222 215.567C149.406 215.286 149.646 215.028 149.942 214.793C150.235 214.565 150.589 214.395 151.005 214.286C151.524 214.148 152.007 214.13 152.452 214.229C152.893 214.33 153.267 214.522 153.573 214.804C153.877 215.093 154.085 215.449 154.197 215.874C154.305 216.285 154.321 216.667 154.242 217.021C154.165 217.38 154.003 217.703 153.756 217.991C153.51 218.283 153.189 218.539 152.792 218.76C152.396 218.981 151.936 219.161 151.412 219.299L149.89 219.701Z" fill="white" fill-opacity="0.2"/>
<path d="M135.996 221.002L135.88 219.909L140.046 219.469L140.162 220.562L135.996 221.002ZM140.239 224.008L139.406 216.127L140.753 215.984L141.586 223.865L140.239 224.008ZM135.264 224.534L134.431 216.653L135.786 216.509L136.619 224.39L135.264 224.534Z" fill="white" fill-opacity="0.2"/>
<path d="M125.495 218.192L121.499 223.74L120.14 223.658L120.616 215.748L121.976 215.83L121.629 221.598L125.624 216.05L126.97 216.131L126.493 224.041L125.148 223.96L125.495 218.192Z" fill="white" fill-opacity="0.2"/>
<path d="M110.118 213.078C110.655 213.203 111.122 213.407 111.517 213.689C111.907 213.976 112.22 214.322 112.456 214.728C112.688 215.132 112.834 215.583 112.894 216.078C112.954 216.573 112.921 217.092 112.795 217.634L112.725 217.934C112.579 218.561 112.356 219.099 112.057 219.545C111.756 219.997 111.407 220.356 111.008 220.625C110.61 220.893 110.188 221.068 109.743 221.15C109.298 221.232 108.859 221.222 108.426 221.122C107.874 220.993 107.421 220.787 107.066 220.504C106.706 220.22 106.437 219.877 106.26 219.475C106.082 219.077 105.985 218.633 105.968 218.143C105.951 217.658 106.005 217.144 106.132 216.602L106.269 216.01L112.033 217.351L111.783 218.429L107.338 217.394L107.315 217.494C107.255 217.841 107.248 218.191 107.297 218.543C107.34 218.894 107.469 219.204 107.682 219.474C107.894 219.745 108.227 219.932 108.678 220.037C108.978 220.107 109.269 220.107 109.551 220.037C109.832 219.972 110.091 219.837 110.329 219.632C110.568 219.427 110.778 219.157 110.961 218.824C111.144 218.491 111.29 218.091 111.398 217.625L111.468 217.325C111.553 216.959 111.583 216.603 111.559 216.256C111.528 215.913 111.444 215.597 111.305 215.31C111.162 215.021 110.966 214.774 110.718 214.571C110.464 214.367 110.157 214.223 109.796 214.139C109.33 214.03 108.913 214.033 108.545 214.148C108.177 214.263 107.835 214.452 107.519 214.714L106.867 213.893C107.092 213.68 107.36 213.489 107.67 213.32C107.98 213.152 108.339 213.04 108.748 212.985C109.152 212.928 109.609 212.96 110.118 213.078Z" fill="white" fill-opacity="0.2"/>
<path d="M99.2378 211.509L93.6959 215.514L92.4313 215.007L95.3788 207.651L96.6433 208.158L94.494 213.522L100.036 209.517L101.287 210.018L98.3395 217.375L97.0885 216.873L99.2378 211.509ZM93.3147 218.454L92.2949 218.046C92.4366 217.692 92.6444 217.41 92.9183 217.199C93.1905 216.992 93.5092 216.873 93.8747 216.84C94.2401 216.808 94.6313 216.875 95.0483 217.042C95.6783 217.295 96.1097 217.662 96.3424 218.145C96.5688 218.63 96.5749 219.14 96.3606 219.675L95.3408 219.266C95.4479 218.999 95.4653 218.732 95.3929 218.466C95.3205 218.201 95.0985 217.993 94.7268 217.844C94.3642 217.699 94.065 217.698 93.8292 217.84C93.5934 217.982 93.4219 218.187 93.3147 218.454Z" fill="white" fill-opacity="0.2"/>
</svg>
