<svg width="280" height="52" viewBox="0 0 280 52" fill="none" xmlns="http://www.w3.org/2000/svg">
<g clip-path="url(#clip0_4_164)">
<path d="M6.40146 32.1384V6.42769H32.0073V13.4339H38.4088V0H0V38.5661H14.0832V32.1384H6.40146Z" fill="white"/>
<path d="M32.0073 13.4339V19.8616V32.1384H20.4847V38.5661H38.4088V19.8616V13.4339H32.0073Z" fill="white"/>
<path d="M38.4088 13.4339V19.8616H46.0905V45.5723H20.4847V38.5661V32.1384V19.8616H32.0073V13.4339H14.0832V32.1384V38.5661V52H52.492V13.4339H38.4088Z" fill="#2168DE"/>
<path d="M79.6799 13.1125H79.6164L75.0477 25.9679H72.7633L68.1946 13.1768H68.1311L68.4484 20.8257V23.5253L70.2886 23.911V25.9679H63.1182V23.911L64.9584 23.5253V11.0556L63.1182 10.67V8.54883H69.4637L73.842 21.3399H73.9055L78.2839 8.54883H84.6293V10.67L82.7891 11.0556V23.5253L84.6293 23.911V25.9679H77.5224V23.911L79.3626 23.5253V20.8257L79.6799 13.1125Z" fill="white"/>
<path d="M94.0206 25.9679C93.9571 25.775 93.8302 25.5179 93.7667 25.3251C93.7033 25.068 93.6398 24.8752 93.5764 24.6181C93.1957 25.068 92.688 25.4537 92.1169 25.775C91.5458 26.0964 90.8478 26.225 90.0864 26.225C88.8173 26.225 87.8655 25.9036 87.104 25.1965C86.3426 24.4895 86.0253 23.5896 86.0253 22.3684C86.0253 21.1471 86.5329 20.2472 87.4848 19.5402C88.4366 18.8974 89.8326 18.576 91.6728 18.576H93.4495V17.2905C93.4495 16.6477 93.2591 16.1978 92.9418 15.8764C92.5611 15.555 92.0535 15.3622 91.3555 15.3622C90.9748 15.3622 90.594 15.4265 90.2767 15.4907C89.9595 15.555 89.7057 15.6836 89.5153 15.8121L89.2615 17.2262H86.6598V14.3338C87.2944 13.8838 87.9924 13.5624 88.8173 13.241C89.6422 12.9197 90.5306 12.7911 91.4824 12.7911C93.0688 12.7911 94.3378 13.1768 95.3531 13.9481C96.3684 14.7194 96.8126 15.8764 96.8126 17.2905V22.6255V23.204C96.8126 23.3968 96.8126 23.5253 96.876 23.7182L97.9547 23.8467V25.9036H94.0206V25.9679ZM91.0382 23.6539C91.5458 23.6539 92.0535 23.5253 92.4342 23.3325C92.8784 23.0754 93.1957 22.8183 93.4495 22.4969V20.5043H91.6728C90.9113 20.5043 90.4037 20.6972 90.0229 21.0185C89.6422 21.3399 89.4518 21.7899 89.4518 22.2398C89.4518 22.6897 89.5788 23.0111 89.896 23.2682C90.1498 23.5253 90.594 23.6539 91.0382 23.6539Z" fill="white"/>
<path d="M105.125 23.5896C105.76 23.5896 106.204 23.3968 106.585 23.0754C106.965 22.6897 107.156 22.2398 107.156 21.597H110.265L110.328 21.6613C110.328 22.9469 109.884 24.0396 108.869 24.9394C107.854 25.8393 106.648 26.225 105.125 26.225C103.221 26.225 101.762 25.6465 100.747 24.4252C99.7315 23.204 99.2238 21.6613 99.2238 19.733V19.3474C99.2238 17.419 99.7315 15.8764 100.81 14.6551C101.889 13.4339 103.348 12.7911 105.315 12.7911C106.331 12.7911 107.283 12.9197 108.107 13.241C108.932 13.5624 109.63 14.0124 110.138 14.5266L110.201 17.9975H107.409L106.838 16.005C106.648 15.8764 106.458 15.7478 106.204 15.6193C105.95 15.4907 105.696 15.4907 105.315 15.4907C104.364 15.4907 103.666 15.8764 103.285 16.5834C102.904 17.2905 102.714 18.1904 102.714 19.3474V19.733C102.714 20.89 102.904 21.7899 103.285 22.4969C103.602 23.204 104.237 23.5896 105.125 23.5896Z" fill="white"/>
<path d="M125.113 13.1125V17.4833H122.448L122.321 15.7478H120.164V23.5253L122.004 23.911V25.9679H114.897V23.911L116.737 23.5253V15.7478H114.58L114.453 17.4833H111.788V13.1125H125.113Z" fill="white"/>
<path d="M131.839 26.225C129.999 26.225 128.54 25.6465 127.461 24.4252C126.382 23.204 125.811 21.7256 125.811 19.8616V19.4116C125.811 17.4833 126.319 15.9407 127.398 14.6551C128.413 13.4339 129.809 12.7911 131.586 12.7911C133.299 12.7911 134.631 13.3053 135.583 14.3338C136.535 15.3622 136.979 16.7763 136.979 18.576V20.5043H129.365V20.5686C129.428 21.4042 129.682 22.1113 130.19 22.6897C130.697 23.2682 131.395 23.5253 132.22 23.5253C132.982 23.5253 133.616 23.4611 134.124 23.2682C134.631 23.1397 135.203 22.8826 135.774 22.5612L136.725 24.6823C136.218 25.1323 135.52 25.4537 134.695 25.775C133.807 26.0964 132.855 26.225 131.839 26.225ZM131.522 15.555C130.888 15.555 130.38 15.8121 129.999 16.3263C129.619 16.8406 129.428 17.4833 129.301 18.2546L129.365 18.3189H133.553V17.9975C133.553 17.2262 133.362 16.6477 133.045 16.1978C132.728 15.7478 132.22 15.555 131.522 15.555Z" fill="white"/>
<path d="M138.312 15.1694V13.0482H143.325L143.515 14.5266C143.896 13.9481 144.34 13.5624 144.848 13.241C145.355 12.9197 145.99 12.7911 146.688 12.7911C148.274 12.7911 149.48 13.4339 150.368 14.6551C151.257 15.8764 151.701 17.5476 151.701 19.6045V19.9258C151.701 21.8541 151.257 23.3968 150.368 24.5538C149.48 25.7108 148.274 26.2893 146.688 26.2893C145.99 26.2893 145.419 26.1607 144.911 25.9036C144.403 25.6465 143.959 25.2608 143.579 24.8109V28.5389L145.228 28.9246V31.0457H138.502V28.9246L140.152 28.5389V15.555L138.312 15.1694ZM148.211 19.6687C148.211 18.4475 148.02 17.4833 147.64 16.712C147.259 15.9407 146.624 15.555 145.799 15.555C145.292 15.555 144.848 15.6836 144.467 15.8764C144.086 16.0692 143.832 16.3906 143.579 16.7763V22.4326C143.769 22.8183 144.086 23.0754 144.467 23.2682C144.848 23.4611 145.292 23.5253 145.799 23.5253C146.624 23.5253 147.259 23.204 147.64 22.5612C148.02 21.9184 148.211 21.0185 148.211 19.8616V19.6687Z" fill="white"/>
<path d="M161.346 25.9679C161.282 25.775 161.155 25.5179 161.092 25.3251C161.029 25.068 160.965 24.8752 160.902 24.6181C160.521 25.068 160.013 25.4537 159.442 25.775C158.871 26.0964 158.173 26.225 157.412 26.225C156.143 26.225 155.191 25.9036 154.429 25.1965C153.668 24.4895 153.351 23.5896 153.351 22.3684C153.351 21.1471 153.858 20.2472 154.81 19.5402C155.762 18.8974 157.158 18.576 158.998 18.576H160.775V17.2905C160.775 16.6477 160.584 16.1978 160.267 15.8764C159.886 15.555 159.379 15.3622 158.681 15.3622C158.3 15.3622 157.919 15.4265 157.602 15.4907C157.285 15.555 157.031 15.6836 156.841 15.8121L156.587 17.2262H153.985V14.3338C154.62 13.8838 155.318 13.5624 156.143 13.241C156.967 12.9197 157.856 12.7911 158.808 12.7911C160.394 12.7911 161.663 13.1768 162.678 13.9481C163.694 14.7194 164.138 15.8764 164.138 17.2905V22.6255V23.204C164.138 23.3968 164.138 23.5253 164.201 23.7182L165.28 23.8467V25.9036H161.346V25.9679ZM158.363 23.6539C158.871 23.6539 159.379 23.5253 159.759 23.3325C160.204 23.0754 160.521 22.8183 160.775 22.4969V20.5043H158.998C158.237 20.5043 157.729 20.6972 157.348 21.0185C156.967 21.3399 156.777 21.7899 156.777 22.2398C156.777 22.6897 156.904 23.0111 157.221 23.2682C157.475 23.5253 157.856 23.6539 158.363 23.6539Z" fill="white"/>
<path d="M180.446 8.6131C182.413 8.6131 183.936 9.12732 185.078 10.1558C186.22 11.1842 186.791 12.534 186.791 14.1409C186.791 15.8121 186.22 17.1619 185.078 18.1261C183.936 19.1545 182.413 19.6687 180.446 19.6687H177.527V23.5253L179.367 23.911V25.9679H172.26V23.911L174.1 23.5253V11.0556L172.26 10.67V8.54883H180.446V8.6131ZM177.527 17.0334H180.446C181.397 17.0334 182.159 16.7763 182.603 16.2621C183.111 15.7478 183.365 15.0408 183.365 14.2695C183.365 13.4339 183.111 12.7268 182.603 12.2126C182.095 11.6984 181.397 11.377 180.446 11.377H177.527V17.0334Z" fill="white"/>
<path d="M193.898 26.225C192.058 26.225 190.598 25.6465 189.52 24.4252C188.441 23.204 187.87 21.7256 187.87 19.8616V19.4116C187.87 17.4833 188.377 15.9407 189.456 14.6551C190.471 13.4339 191.867 12.7911 193.644 12.7911C195.357 12.7911 196.69 13.3053 197.642 14.3338C198.594 15.3622 199.038 16.7763 199.038 18.576V20.5043H191.423V20.5686C191.487 21.4042 191.741 22.1113 192.248 22.6897C192.756 23.2682 193.454 23.5253 194.279 23.5253C195.04 23.5253 195.675 23.4611 196.182 23.2682C196.69 23.1397 197.261 22.8826 197.832 22.5612L198.784 24.6823C198.276 25.1323 197.578 25.4537 196.753 25.775C195.865 26.0964 194.913 26.225 193.898 26.225ZM193.581 15.555C192.946 15.555 192.438 15.8121 192.058 16.3263C191.677 16.8406 191.487 17.4833 191.36 18.2546L191.423 18.3189H195.611V17.9975C195.611 17.2262 195.421 16.6477 195.104 16.1978C194.786 15.7478 194.279 15.555 193.581 15.555Z" fill="white"/>
<path d="M210.333 21.9184H210.396L213.696 13.0482H219.851V15.1694L218.011 15.555V23.5896L219.851 23.9753V26.0321H213.315V23.9753L214.584 23.5896V18.3832H214.521L211.538 26.0964H209.254L206.398 18.576H206.335V23.6539L207.668 24.0396V26.0964H201.068V24.0396L202.908 23.6539V15.555L201.068 15.1694V13.0482H207.16L210.333 21.9184Z" fill="white"/>
<path d="M221.437 19.4116C221.437 17.4833 221.945 15.9407 223.024 14.6551C224.102 13.4339 225.562 12.7911 227.402 12.7911C229.306 12.7911 230.765 13.4339 231.844 14.6551C232.922 15.8764 233.43 17.4833 233.43 19.4116V19.6687C233.43 21.597 232.922 23.204 231.844 24.4252C230.765 25.6465 229.306 26.225 227.465 26.225C225.562 26.225 224.102 25.6465 223.024 24.4252C221.945 23.204 221.437 21.597 221.437 19.6687V19.4116ZM224.864 19.6687C224.864 20.8257 225.054 21.7899 225.498 22.4969C225.879 23.204 226.577 23.5896 227.465 23.5896C228.354 23.5896 228.988 23.204 229.432 22.4969C229.813 21.7899 230.067 20.8257 230.067 19.6687V19.4116C230.067 18.2546 229.877 17.3548 229.432 16.5834C228.988 15.8764 228.354 15.4907 227.465 15.4907C226.577 15.4907 225.942 15.8764 225.498 16.5834C225.118 17.2905 224.864 18.2546 224.864 19.4116V19.6687Z" fill="white"/>
<path d="M235.207 15.1694V13.0482H241.933V15.1694L240.474 15.555V18.3189H244.662V15.555L243.202 15.1694V13.0482H249.928V15.1694L248.088 15.555V23.5896L249.928 23.9753V26.0321H243.202V23.9753L244.662 23.5896V21.0186H240.474V23.5896L241.933 23.9753V26.0321H235.207V23.9753L237.047 23.5896V15.555L235.207 15.1694Z" fill="white"/>
<path d="M264.777 13.1125V17.4833H262.112L261.985 15.7478H259.827V23.5253L261.667 23.911V25.9679H254.56V23.911L256.401 23.5253V15.7478H254.243L254.116 17.4833H251.451V13.1125H264.777Z" fill="white"/>
<path d="M274.168 25.9679C274.104 25.775 273.978 25.5179 273.914 25.3251C273.851 25.068 273.787 24.8752 273.724 24.6181C273.343 25.068 272.835 25.4537 272.264 25.775C271.693 26.0964 270.995 26.225 270.234 26.225C268.965 26.225 268.013 25.9036 267.251 25.1965C266.49 24.4895 266.173 23.5896 266.173 22.3684C266.173 21.1471 266.68 20.2472 267.632 19.5402C268.584 18.8974 269.98 18.576 271.82 18.576H273.597V17.2905C273.597 16.6477 273.406 16.1978 273.089 15.8764C272.708 15.555 272.201 15.3622 271.503 15.3622C271.122 15.3622 270.741 15.4265 270.424 15.4907C270.107 15.555 269.853 15.6836 269.663 15.8121L269.409 17.2262H266.807V14.3338C267.442 13.8838 268.14 13.5624 268.965 13.241C269.79 12.9197 270.678 12.7911 271.63 12.7911C273.216 12.7911 274.485 13.1768 275.5 13.9481C276.516 14.7194 276.96 15.8764 276.96 17.2905V22.6255V23.204C276.96 23.3968 276.96 23.5253 277.023 23.7182L278.102 23.8467V25.9036H274.168V25.9679ZM271.186 23.6539C271.693 23.6539 272.201 23.5253 272.582 23.3325C273.026 23.0754 273.343 22.8183 273.597 22.4969V20.5043H271.82C271.059 20.5043 270.551 20.6972 270.17 21.0185C269.79 21.3399 269.599 21.7899 269.599 22.2398C269.599 22.6897 269.726 23.0111 270.043 23.2682C270.297 23.5253 270.678 23.6539 271.186 23.6539Z" fill="white"/>
<path d="M69.26 38.309C69.26 39.2089 68.9438 39.916 68.3747 40.4302C67.7424 40.9444 66.9204 41.1372 65.7822 41.1372H64.7705V44.6724H63.7587V35.6737H66.0351C68.185 35.6737 69.26 36.5093 69.26 38.309ZM64.7072 40.2373H65.6557C66.541 40.2373 67.2365 40.1088 67.6159 39.7874C67.9953 39.466 68.2483 39.0161 68.2483 38.3733C68.2483 37.7948 68.0586 37.3449 67.6792 37.0235C67.2998 36.7021 66.7307 36.5736 65.9087 36.5736H64.7705V40.2373H64.7072Z" fill="white"/>
<path d="M73.7495 44.7367C72.801 44.7367 71.979 44.4153 71.4099 43.8368C70.8408 43.2583 70.5879 42.4227 70.5879 41.33C70.5879 40.2373 70.8408 39.4017 71.3467 38.759C71.8525 38.1162 72.5481 37.7948 73.4334 37.7948C74.2554 37.7948 74.8877 38.0519 75.3936 38.6304C75.8995 39.2089 76.0892 39.9159 76.0892 40.8158V41.4586H71.5364C71.5364 42.2299 71.7261 42.8727 72.1055 43.2583C72.4849 43.644 72.9907 43.9011 73.6863 43.9011C74.3819 43.9011 75.0774 43.7725 75.773 43.4512V44.351C75.3936 44.4796 75.0774 44.6082 74.7613 44.6724C74.4451 44.7367 74.1922 44.7367 73.7495 44.7367ZM73.4966 38.6304C72.9907 38.6304 72.5481 38.8232 72.2319 39.1446C71.9158 39.466 71.7261 39.9802 71.6628 40.623H75.1407C75.1407 39.9802 75.0142 39.466 74.698 39.1446C74.3819 38.8232 74.0025 38.6304 73.4966 38.6304Z" fill="white"/>
<path d="M81.3375 43.644L81.5272 43.0655L81.7801 42.3585L83.5506 37.9234H84.8153V44.6082H83.93V39.0804L83.8036 39.466L83.4242 40.4302L81.7169 44.6724H80.8949L79.1876 40.4302C78.9979 39.8517 78.8082 39.466 78.7449 39.1446V44.6724H77.8597V37.9234H79.0611L80.7684 42.1656C81.0213 42.6156 81.1478 43.1298 81.3375 43.644Z" fill="white"/>
<path d="M92.6562 41.2658C92.6562 42.3585 92.4033 43.1941 91.8342 43.8368C91.2651 44.4796 90.5695 44.7367 89.5578 44.7367C88.9887 44.7367 88.4196 44.6082 87.977 44.2868C87.5343 44.0297 87.1549 43.5797 86.902 43.0655C86.6491 42.5513 86.5226 41.9085 86.5226 41.2015C86.5226 40.1088 86.7755 39.2732 87.3446 38.6304C87.9137 38.0519 88.6093 37.7305 89.5578 37.7305C90.5063 37.7305 91.2018 38.0519 91.7709 38.6947C92.34 39.3375 92.6562 40.173 92.6562 41.2658ZM87.5976 41.2658C87.5976 42.1014 87.7873 42.7441 88.1034 43.1941C88.4196 43.644 88.9255 43.8368 89.621 43.8368C90.2534 43.8368 90.7592 43.644 91.1386 43.1941C91.4548 42.7441 91.6445 42.1014 91.6445 41.2015C91.6445 40.3659 91.4548 39.7231 91.1386 39.2732C90.8225 38.8232 90.3166 38.6304 89.621 38.6304C88.9887 38.6304 88.4828 38.8232 88.1667 39.2732C87.7873 39.7231 87.5976 40.3659 87.5976 41.2658Z" fill="white"/>
<path d="M95.3752 37.9234V40.7516H99.0427V37.9234H100.054V44.6082H99.0427V41.5872H95.3752V44.6082H94.3635V37.9234H95.3752Z" fill="white"/>
<path d="M106.631 38.759H104.481V44.6082H103.469V38.759H101.319V37.9234H106.567V38.759H106.631Z" fill="white"/>
<path d="M115.041 37.9234H116.116L113.27 41.1372L116.369 44.6082H115.23L112.195 41.2015V44.6082H111.184V37.9234H112.195V41.2015L115.041 37.9234Z" fill="white"/>
<path d="M122.945 39.5946C122.945 40.0445 122.818 40.3659 122.565 40.5587C122.312 40.8158 121.996 40.9444 121.554 41.0087V41.0729C122.123 41.1372 122.502 41.33 122.755 41.5872C123.008 41.8443 123.135 42.2299 123.135 42.6799C123.135 43.3226 122.882 43.7726 122.439 44.0939C121.996 44.4153 121.301 44.6082 120.479 44.6082H117.57V37.9234H120.479C122.123 37.9234 122.945 38.5019 122.945 39.5946ZM121.933 39.7231C121.933 39.4017 121.807 39.1446 121.554 39.0161C121.301 38.8875 120.921 38.8232 120.415 38.8232H118.519V40.6873H120.226C120.858 40.6873 121.301 40.623 121.554 40.4302C121.807 40.2373 121.933 40.0445 121.933 39.7231ZM122.123 42.6156C122.123 42.2299 121.996 41.9728 121.743 41.8443C121.49 41.6514 121.048 41.5872 120.415 41.5872H118.582V43.7726H120.415C121.554 43.7726 122.123 43.3869 122.123 42.6156Z" fill="white"/>
<path d="M128.636 44.6082L128.446 43.644H128.383C128.067 44.0939 127.751 44.351 127.371 44.4796C127.055 44.6082 126.612 44.6724 126.17 44.6724C125.537 44.6724 125.031 44.4796 124.652 44.1582C124.273 43.8368 124.083 43.3226 124.083 42.6799C124.083 41.33 125.158 40.623 127.308 40.5587L128.446 40.4944V40.1088C128.446 39.5946 128.32 39.2089 128.13 38.9518C127.94 38.6947 127.561 38.5661 127.055 38.5661C126.486 38.5661 125.854 38.759 125.158 39.0803L124.842 38.309C125.158 38.1162 125.537 37.9876 125.917 37.8591C126.296 37.7305 126.676 37.7305 127.055 37.7305C127.814 37.7305 128.446 37.9234 128.825 38.2447C129.205 38.6304 129.395 39.1446 129.395 39.9802V44.5439H128.636V44.6082ZM126.359 43.9011C126.992 43.9011 127.498 43.7083 127.814 43.3869C128.193 43.0655 128.32 42.5513 128.32 41.9085V41.33L127.308 41.3943C126.486 41.3943 125.917 41.5229 125.601 41.78C125.221 41.9728 125.095 42.3585 125.095 42.8084C125.095 43.1941 125.221 43.4512 125.411 43.644C125.664 43.8368 125.98 43.9011 126.359 43.9011Z" fill="white"/>
<path d="M134.516 44.7367C134.074 44.7367 133.694 44.6724 133.315 44.4796C132.936 44.2868 132.683 44.0939 132.43 43.7083H132.367C132.43 44.0939 132.43 44.4796 132.43 44.801V47.5649H131.418V37.9234H132.24L132.367 38.8232H132.43C132.683 38.4376 132.999 38.1805 133.315 38.0519C133.631 37.8591 134.074 37.7948 134.516 37.7948C135.402 37.7948 136.097 38.1162 136.54 38.6947C137.046 39.2732 137.235 40.173 137.235 41.2658C137.235 42.3585 136.983 43.1941 136.54 43.8368C136.034 44.4153 135.339 44.7367 134.516 44.7367ZM134.39 38.6304C133.694 38.6304 133.252 38.8232 132.936 39.2089C132.619 39.5946 132.493 40.173 132.493 41.0086V41.2658C132.493 42.2299 132.619 42.8727 132.936 43.2583C133.252 43.644 133.758 43.8368 134.453 43.8368C135.022 43.8368 135.465 43.5797 135.781 43.1298C136.097 42.6798 136.287 42.0371 136.287 41.2015C136.287 40.3659 136.097 39.7231 135.781 39.2732C135.402 38.8875 134.959 38.6304 134.39 38.6304Z" fill="white"/>
<path d="M143.432 38.759H141.282V44.6082H140.271V38.759H138.121V37.9234H143.369V38.759H143.432Z" fill="white"/>
<path d="M145.709 37.9234V42.1656L145.645 43.2584V43.5797L149.187 37.8591H150.451V44.5439H149.503V38.8875L145.962 44.6082H144.697V37.9234H145.709Z" fill="white"/>
<path d="M155.636 44.7367C155.194 44.7367 154.814 44.6724 154.435 44.4796C154.055 44.2868 153.803 44.0939 153.55 43.7083H153.486C153.55 44.0939 153.55 44.4796 153.55 44.801V47.5649H152.538V37.9234H153.36L153.486 38.8232H153.55C153.803 38.4376 154.119 38.1805 154.435 38.0519C154.751 37.8591 155.194 37.7948 155.636 37.7948C156.522 37.7948 157.217 38.1162 157.66 38.6947C158.166 39.2732 158.355 40.173 158.355 41.2658C158.355 42.3585 158.102 43.1941 157.66 43.8368C157.154 44.4153 156.522 44.7367 155.636 44.7367ZM155.51 38.6304C154.814 38.6304 154.372 38.8232 154.055 39.2089C153.739 39.5946 153.613 40.173 153.613 41.0086V41.2658C153.613 42.2299 153.739 42.8727 154.055 43.2583C154.372 43.644 154.877 43.8368 155.573 43.8368C156.142 43.8368 156.585 43.5797 156.901 43.1298C157.217 42.6798 157.407 42.0371 157.407 41.2015C157.407 40.3659 157.217 39.7231 156.901 39.2732C156.522 38.8875 156.079 38.6304 155.51 38.6304Z" fill="white"/>
<path d="M168.662 39.5946C168.662 40.0445 168.536 40.3659 168.283 40.5587C168.03 40.8158 167.714 40.9444 167.271 41.0087V41.0729C167.84 41.1372 168.22 41.33 168.473 41.5872C168.726 41.8443 168.852 42.2299 168.852 42.6799C168.852 43.3226 168.599 43.7726 168.156 44.0939C167.714 44.4153 167.018 44.6082 166.196 44.6082H163.287V37.9234H166.196C167.84 37.9234 168.662 38.5019 168.662 39.5946ZM167.714 39.7231C167.714 39.4017 167.587 39.1446 167.334 39.0161C167.081 38.8875 166.702 38.8232 166.196 38.8232H164.299V40.6873H166.006C166.639 40.6873 167.081 40.623 167.334 40.4302C167.587 40.2373 167.714 40.0445 167.714 39.7231ZM167.903 42.6156C167.903 42.2299 167.777 41.9728 167.524 41.8443C167.271 41.6514 166.829 41.5872 166.196 41.5872H164.362V43.7726H166.196C167.334 43.7726 167.903 43.3869 167.903 42.6156Z" fill="white"/>
<path d="M177.578 44.6082L174.606 36.7021H174.543C174.606 37.3449 174.606 38.0519 174.606 38.9518V44.6724H173.658V35.6737H175.175L177.958 43.0655H178.021L180.803 35.6737H182.321V44.6082H181.309V38.8232C181.309 38.1805 181.309 37.4734 181.372 36.6378H181.309L178.274 44.5439H177.578V44.6082Z" fill="white"/>
<path d="M190.351 41.2658C190.351 42.3585 190.098 43.1941 189.529 43.8368C188.96 44.4796 188.265 44.7367 187.253 44.7367C186.684 44.7367 186.115 44.6082 185.672 44.2868C185.229 44.0297 184.85 43.5797 184.597 43.0655C184.344 42.5513 184.218 41.9085 184.218 41.2015C184.218 40.1088 184.471 39.2732 185.04 38.6304C185.609 38.0519 186.304 37.7305 187.253 37.7305C188.201 37.7305 188.897 38.0519 189.466 38.6947C190.098 39.3375 190.351 40.173 190.351 41.2658ZM185.356 41.2658C185.356 42.1014 185.546 42.7441 185.862 43.1941C186.178 43.644 186.684 43.8368 187.379 43.8368C188.012 43.8368 188.517 43.644 188.897 43.1941C189.213 42.7441 189.403 42.1014 189.403 41.2015C189.403 40.3659 189.213 39.7231 188.897 39.2732C188.581 38.8232 188.075 38.6304 187.379 38.6304C186.747 38.6304 186.241 38.8232 185.925 39.2732C185.482 39.7231 185.356 40.3659 185.356 41.2658Z" fill="white"/>
<path d="M194.778 44.7367C193.829 44.7367 193.07 44.4153 192.564 43.8368C192.059 43.2584 191.806 42.4228 191.806 41.3301C191.806 40.2373 192.059 39.3375 192.628 38.759C193.133 38.1162 193.892 37.8591 194.904 37.8591C195.22 37.8591 195.536 37.9234 195.853 37.9877C196.169 38.0519 196.422 38.1162 196.611 38.2448L196.295 39.0804C196.105 39.0161 195.853 38.8875 195.6 38.8875C195.347 38.8233 195.094 38.8233 194.904 38.8233C193.576 38.8233 192.881 39.7231 192.881 41.4586C192.881 42.2942 193.07 42.937 193.386 43.3869C193.703 43.8368 194.208 44.0297 194.841 44.0297C195.41 44.0297 195.979 43.9011 196.548 43.644V44.5439C195.979 44.6082 195.41 44.7367 194.778 44.7367Z" fill="white"/>
<path d="M201.86 37.9234H202.935L200.089 41.1372L203.188 44.6082H202.049L199.014 41.2015V44.6082H198.002V37.9234H199.014V41.2015L201.86 37.9234Z" fill="white"/>
<path d="M209.764 39.5946C209.764 40.0445 209.637 40.3659 209.384 40.5587C209.131 40.8158 208.815 40.9444 208.373 41.0087V41.0729C208.942 41.1372 209.321 41.33 209.574 41.5872C209.827 41.8443 209.953 42.2299 209.953 42.6799C209.953 43.3226 209.701 43.7726 209.258 44.0939C208.815 44.4153 208.12 44.6082 207.298 44.6082H204.389V37.9234H207.298C208.942 37.9234 209.764 38.5019 209.764 39.5946ZM208.752 39.7231C208.752 39.4017 208.626 39.1446 208.373 39.0161C208.12 38.8875 207.74 38.8232 207.234 38.8232H205.337V40.6873H207.045C207.677 40.6873 208.12 40.623 208.373 40.4302C208.626 40.2373 208.752 40.0445 208.752 39.7231ZM208.942 42.6156C208.942 42.2299 208.815 41.9728 208.562 41.8443C208.309 41.6514 207.867 41.5872 207.234 41.5872H205.401V43.7726H207.234C208.373 43.7726 208.942 43.3869 208.942 42.6156Z" fill="white"/>
<path d="M214.19 44.7367C213.242 44.7367 212.42 44.4153 211.85 43.8368C211.281 43.2583 211.028 42.4227 211.028 41.33C211.028 40.2373 211.281 39.4017 211.787 38.759C212.293 38.1162 212.989 37.7948 213.874 37.7948C214.696 37.7948 215.328 38.0519 215.834 38.6304C216.34 39.2089 216.53 39.9159 216.53 40.8158V41.4586H211.977C211.977 42.2299 212.167 42.8727 212.546 43.2583C212.925 43.644 213.431 43.9011 214.127 43.9011C214.822 43.9011 215.518 43.7725 216.214 43.4512V44.351C215.834 44.4796 215.518 44.6082 215.202 44.6724C214.886 44.7367 214.633 44.7367 214.19 44.7367ZM213.937 38.6304C213.431 38.6304 212.989 38.8232 212.673 39.1446C212.356 39.466 212.167 39.9802 212.103 40.623H215.581C215.581 39.9802 215.455 39.466 215.139 39.1446C214.822 38.8232 214.443 38.6304 213.937 38.6304Z" fill="white"/>
<path d="M222.474 37.9234V42.1656L222.41 43.2584V43.5797L225.951 37.8591H227.216V44.5439H226.268V38.8875L222.727 44.6082H221.462V37.9234H222.474Z" fill="white"/>
<path d="M238.219 41.2658C238.219 42.3585 237.966 43.1941 237.397 43.8368C236.827 44.4796 236.132 44.7367 235.12 44.7367C234.551 44.7367 233.982 44.6082 233.539 44.2868C233.097 44.0297 232.717 43.5797 232.464 43.0655C232.211 42.5513 232.085 41.9085 232.085 41.2015C232.085 40.1088 232.338 39.2732 232.907 38.6304C233.476 38.0519 234.172 37.7305 235.12 37.7305C236.069 37.7305 236.764 38.0519 237.333 38.6947C237.966 39.3375 238.219 40.173 238.219 41.2658ZM233.223 41.2658C233.223 42.1014 233.413 42.7441 233.729 43.1941C234.045 43.644 234.551 43.8368 235.247 43.8368C235.879 43.8368 236.385 43.644 236.764 43.1941C237.08 42.7441 237.27 42.1014 237.27 41.2015C237.27 40.3659 237.08 39.7231 236.764 39.2732C236.448 38.8232 235.942 38.6304 235.247 38.6304C234.614 38.6304 234.108 38.8232 233.792 39.2732C233.35 39.7231 233.223 40.3659 233.223 41.2658Z" fill="white"/>
<path d="M239.673 40.623C239.673 39.1446 239.863 37.9876 240.305 37.2163C240.748 36.3807 241.38 35.8665 242.329 35.6737C243.467 35.4166 244.479 35.2237 245.364 35.0952L245.554 35.9951C244.163 36.2522 243.151 36.445 242.582 36.5736C242.013 36.7021 241.57 37.0235 241.254 37.5377C240.938 38.0519 240.811 38.6947 240.748 39.5946H240.811C241.064 39.2732 241.38 38.9518 241.76 38.759C242.139 38.5661 242.582 38.4376 243.024 38.4376C243.846 38.4376 244.479 38.6947 244.921 39.2089C245.364 39.7231 245.617 40.4944 245.617 41.4586C245.617 42.487 245.364 43.3226 244.858 43.9011C244.352 44.4796 243.593 44.801 242.645 44.801C241.696 44.801 241.001 44.4153 240.495 43.7083C239.926 42.937 239.673 41.9085 239.673 40.623ZM242.708 43.9011C243.91 43.9011 244.542 43.1298 244.542 41.5229C244.542 39.9802 243.973 39.2732 242.898 39.2732C242.582 39.2732 242.329 39.3375 242.013 39.466C241.696 39.5946 241.443 39.7874 241.254 39.9802C241.064 40.1731 240.811 40.4302 240.685 40.623C240.685 41.7157 240.874 42.487 241.191 43.0655C241.507 43.5797 242.013 43.9011 242.708 43.9011Z" fill="white"/>
<path d="M252.256 44.6082H251.245V38.759H249.284C249.158 40.2373 249.031 41.3943 248.842 42.2299C248.652 43.0655 248.399 43.7083 248.083 44.0939C247.767 44.4796 247.387 44.6724 246.882 44.6724C246.692 44.6724 246.502 44.6724 246.376 44.6082V43.8368C246.439 43.8368 246.565 43.9011 246.692 43.9011C247.134 43.9011 247.514 43.3869 247.767 42.4228C248.02 41.4586 248.273 39.916 248.399 37.9234H252.256V44.6082Z" fill="white"/>
<path d="M258.453 44.6082L258.263 43.644H258.2C257.884 44.0939 257.568 44.351 257.189 44.4796C256.872 44.6082 256.43 44.6724 255.987 44.6724C255.355 44.6724 254.849 44.4796 254.47 44.1582C254.09 43.8368 253.9 43.3226 253.9 42.6799C253.9 41.33 254.975 40.623 257.125 40.5587L258.263 40.4944V40.1088C258.263 39.5946 258.137 39.2089 257.947 38.9518C257.758 38.6947 257.378 38.5661 256.872 38.5661C256.303 38.5661 255.671 38.759 254.975 39.0803L254.659 38.309C254.975 38.1162 255.355 37.9876 255.734 37.8591C256.114 37.7305 256.493 37.7305 256.872 37.7305C257.631 37.7305 258.263 37.9234 258.643 38.2447C259.022 38.6304 259.212 39.1446 259.212 39.9802V44.5439H258.453V44.6082ZM256.177 43.9011C256.809 43.9011 257.315 43.7083 257.631 43.3869C258.011 43.0655 258.137 42.5513 258.137 41.9085V41.33L257.125 41.3943C256.303 41.3943 255.734 41.5229 255.418 41.78C255.039 41.9728 254.912 42.3585 254.912 42.8084C254.912 43.1941 255.039 43.4512 255.228 43.644C255.481 43.8368 255.797 43.9011 256.177 43.9011Z" fill="white"/>
<path d="M263.891 44.7367C262.943 44.7367 262.184 44.4153 261.678 43.8368C261.172 43.2584 260.919 42.4228 260.919 41.3301C260.919 40.2373 261.172 39.3375 261.741 38.759C262.247 38.1162 263.006 37.8591 264.018 37.8591C264.334 37.8591 264.65 37.9234 264.966 37.9877C265.282 38.0519 265.535 38.1162 265.725 38.2448L265.409 39.0804C265.219 39.0161 264.966 38.8875 264.713 38.8875C264.46 38.8233 264.207 38.8233 264.018 38.8233C262.69 38.8233 261.994 39.7231 261.994 41.4586C261.994 42.2942 262.184 42.937 262.5 43.3869C262.816 43.8368 263.322 44.0297 263.954 44.0297C264.524 44.0297 265.093 43.9011 265.662 43.644V44.5439C265.093 44.6082 264.524 44.7367 263.891 44.7367Z" fill="white"/>
<path d="M271.542 38.759H269.392V44.6082H268.381V38.759H266.231V37.9234H271.479V38.759H271.542Z" fill="white"/>
<path d="M273.819 37.9234V42.1656L273.756 43.2584V43.5797L277.297 37.8591H278.561V44.5439H277.613V38.8875L274.072 44.6082H272.807V37.9234H273.819Z" fill="white"/>
</g>
<defs>
<clipPath id="clip0_4_164">
<rect width="280" height="52" fill="white"/>
</clipPath>
</defs>
</svg>
