<svg width="135" height="25" viewBox="0 0 135 25" fill="none" xmlns="http://www.w3.org/2000/svg">
<g clip-path="url(#clip0_25_99)">
<path d="M3.08642 15.4512V3.09023H15.4321V6.45859H18.5185V0H0V18.5414H6.79012V15.4512H3.08642Z" fill="white"/>
<path d="M15.4321 6.45859V9.54882V15.4512H9.87659V18.5414H18.5186V9.54882V6.45859H15.4321Z" fill="white"/>
<path d="M18.5186 6.45859V9.54882H22.2223V21.9098H9.87658V18.5414V15.4512V9.54882H15.4321V6.45859H6.79016V15.4512V18.5414V25H25.3087V6.45859H18.5186Z" fill="#2168DE"/>
<path d="M38.4171 6.30408H38.3865L36.1837 12.4846H35.0823L32.8795 6.33499H32.8489L33.0019 10.0124V11.3103L33.8891 11.4957V12.4846H30.432V11.4957L31.3192 11.3103V5.31521L30.432 5.12979V4.11002H33.4914L35.6024 10.2596H35.633L37.744 4.11002H40.8034V5.12979L39.9162 5.31521V11.3103L40.8034 11.4957V12.4846H37.3769V11.4957L38.2641 11.3103V10.0124L38.4171 6.30408Z" fill="white"/>
<path d="M45.3313 12.4845C45.3007 12.3918 45.2395 12.2682 45.2089 12.1755C45.1783 12.0519 45.1477 11.9592 45.1171 11.8356C44.9336 12.0519 44.6888 12.2373 44.4135 12.3918C44.1381 12.5464 43.8016 12.6082 43.4345 12.6082C42.8226 12.6082 42.3637 12.4536 41.9965 12.1137C41.6294 11.7738 41.4764 11.3412 41.4764 10.754C41.4764 10.1669 41.7212 9.73424 42.1801 9.39431C42.639 9.08529 43.3121 8.93078 44.1993 8.93078H45.056V8.31273C45.056 8.00371 44.9642 7.78739 44.8112 7.63288C44.6276 7.47837 44.3829 7.38566 44.0464 7.38566C43.8628 7.38566 43.6792 7.41656 43.5262 7.44747C43.3733 7.47837 43.2509 7.54017 43.1591 7.60198L43.0367 8.28183H41.7824V6.89122C42.0883 6.67491 42.4249 6.5204 42.8226 6.36588C43.2203 6.21137 43.6486 6.14957 44.1075 6.14957C44.8724 6.14957 45.4843 6.33498 45.9738 6.70581C46.4633 7.07664 46.6774 7.63288 46.6774 8.31273V10.8776V11.1557C46.6774 11.2485 46.6774 11.3103 46.708 11.403L47.2281 11.4648V12.4536H45.3313V12.4845ZM43.8934 11.3721C44.1381 11.3721 44.3829 11.3103 44.5665 11.2176C44.7806 11.0939 44.9336 10.9703 45.056 10.8158V9.85785H44.1993C43.8322 9.85785 43.5874 9.95056 43.4039 10.1051C43.2203 10.2596 43.1285 10.4759 43.1285 10.6922C43.1285 10.9085 43.1897 11.063 43.3427 11.1867C43.4651 11.3103 43.6792 11.3721 43.8934 11.3721Z" fill="white"/>
<path d="M50.6853 11.3412C50.9913 11.3412 51.2054 11.2485 51.389 11.0939C51.5726 10.9085 51.6644 10.6922 51.6644 10.3832H53.1635L53.1941 10.4141C53.1941 11.0321 52.9799 11.5575 52.4904 11.9901C52.0009 12.4227 51.4196 12.6082 50.6853 12.6082C49.7675 12.6082 49.0639 12.33 48.5743 11.7429C48.0848 11.1557 47.8401 10.4141 47.8401 9.48702V9.30161C47.8401 8.37454 48.0848 7.63288 48.6049 7.04573C49.125 6.45859 49.8287 6.14957 50.7771 6.14957C51.2666 6.14957 51.7255 6.21137 52.1233 6.36588C52.521 6.5204 52.8575 6.73671 53.1023 6.98393L53.1329 8.65266H51.7867L51.5114 7.69468C51.4196 7.63288 51.3278 7.57107 51.2054 7.50927C51.0831 7.44747 50.9607 7.44747 50.7771 7.44747C50.3182 7.44747 49.9817 7.63288 49.7981 7.97281C49.6145 8.31273 49.5228 8.74536 49.5228 9.30161V9.48702C49.5228 10.0433 49.6145 10.4759 49.7981 10.8158C49.9511 11.1557 50.257 11.3412 50.6853 11.3412Z" fill="white"/>
<path d="M60.3225 6.30408V8.40544H59.0375L58.9763 7.57107H57.9361V11.3103L58.8234 11.4957V12.4845H55.3968V11.4957L56.284 11.3103V7.57107H55.2438L55.1827 8.40544H53.8977V6.30408H60.3225Z" fill="white"/>
<path d="M63.5655 12.6082C62.6783 12.6082 61.9746 12.33 61.4545 11.7429C60.9344 11.1557 60.6591 10.445 60.6591 9.54883V9.33251C60.6591 8.40544 60.9038 7.66378 61.4239 7.04573C61.9134 6.45859 62.5865 6.14957 63.4431 6.14957C64.2692 6.14957 64.9116 6.39679 65.3706 6.89122C65.8295 7.38566 66.0436 8.06551 66.0436 8.93078V9.85785H62.3723V9.88875C62.4029 10.2905 62.5253 10.6304 62.7701 10.9085C63.0148 11.1866 63.3513 11.3103 63.7491 11.3103C64.1162 11.3103 64.4221 11.2794 64.6669 11.1867C64.9116 11.1248 65.187 11.0012 65.4623 10.8467L65.9213 11.8665C65.6765 12.0828 65.34 12.2373 64.9422 12.3918C64.5139 12.5464 64.055 12.6082 63.5655 12.6082ZM63.4125 7.47837C63.1066 7.47837 62.8618 7.60198 62.6783 7.8492C62.4947 8.09641 62.4029 8.40544 62.3417 8.77627L62.3723 8.80717H64.3915V8.65266C64.3915 8.28183 64.2998 8.00371 64.1468 7.78739C63.9938 7.57108 63.7491 7.47837 63.4125 7.47837Z" fill="white"/>
<path d="M66.686 7.29295V6.27318H69.103L69.1948 6.98393C69.3783 6.70581 69.5925 6.5204 69.8372 6.36588C70.082 6.21137 70.3879 6.14957 70.7245 6.14957C71.4893 6.14957 72.0706 6.45859 72.4989 7.04573C72.9272 7.63288 73.1414 8.43634 73.1414 9.42522V9.57973C73.1414 10.5068 72.9272 11.2485 72.4989 11.8047C72.0706 12.3609 71.4893 12.6391 70.7245 12.6391C70.3879 12.6391 70.1126 12.5773 69.8678 12.4536C69.6231 12.33 69.4089 12.1446 69.2253 11.9283V13.7206L70.0208 13.9061V14.9258H66.7778V13.9061L67.5733 13.7206V7.47837L66.686 7.29295ZM71.4587 9.45612C71.4587 8.86897 71.3669 8.40544 71.1834 8.03461C70.9998 7.66378 70.6939 7.47837 70.2961 7.47837C70.0514 7.47837 69.8372 7.54017 69.6537 7.63288C69.4701 7.72559 69.3477 7.8801 69.2253 8.06551V10.7849C69.3171 10.9703 69.4701 11.0939 69.6537 11.1866C69.8372 11.2794 70.0514 11.3103 70.2961 11.3103C70.6939 11.3103 70.9998 11.1557 71.1834 10.8467C71.3669 10.5377 71.4587 10.1051 71.4587 9.54882V9.45612Z" fill="white"/>
<path d="M77.7917 12.4845C77.7612 12.3918 77.7 12.2682 77.6694 12.1755C77.6388 12.0519 77.6082 11.9592 77.5776 11.8356C77.394 12.0519 77.1493 12.2373 76.8739 12.3918C76.5986 12.5464 76.262 12.6082 75.8949 12.6082C75.283 12.6082 74.8241 12.4536 74.457 12.1137C74.0899 11.7738 73.9369 11.3412 73.9369 10.754C73.9369 10.1669 74.1816 9.73424 74.6406 9.39431C75.0995 9.08529 75.7725 8.93078 76.6598 8.93078H77.5164V8.31273C77.5164 8.00371 77.4246 7.78739 77.2717 7.63288C77.0881 7.47837 76.8433 7.38566 76.5068 7.38566C76.3232 7.38566 76.1397 7.41656 75.9867 7.44747C75.8337 7.47837 75.7114 7.54017 75.6196 7.60198L75.4972 8.28183H74.2428V6.89122C74.5488 6.67491 74.8853 6.5204 75.283 6.36588C75.6808 6.21137 76.1091 6.14957 76.568 6.14957C77.3328 6.14957 77.9447 6.33498 78.4342 6.70581C78.9237 7.07664 79.1379 7.63288 79.1379 8.31273V10.8776V11.1557C79.1379 11.2485 79.1379 11.3103 79.1685 11.403L79.6886 11.4648V12.4536H77.7917V12.4845ZM76.3538 11.3721C76.5986 11.3721 76.8433 11.3103 77.0269 11.2176C77.2411 11.0939 77.394 10.9703 77.5164 10.8158V9.85785H76.6598C76.2926 9.85785 76.0479 9.95056 75.8643 10.1051C75.6808 10.2596 75.589 10.4759 75.589 10.6922C75.589 10.9085 75.6502 11.063 75.8031 11.1867C75.9255 11.3103 76.1091 11.3721 76.3538 11.3721Z" fill="white"/>
<path d="M87.0006 4.14092C87.949 4.14092 88.6833 4.38814 89.234 4.88257C89.7847 5.37701 90.06 6.02596 90.06 6.79852C90.06 7.60198 89.7847 8.25093 89.234 8.71447C88.6833 9.2089 87.949 9.45612 87.0006 9.45612H85.5933V11.3103L86.4805 11.4957V12.4846H83.054V11.4957L83.9412 11.3103V5.31521L83.054 5.12979V4.11002H87.0006V4.14092ZM85.5933 8.18913H87.0006C87.4595 8.18913 87.8266 8.06552 88.0408 7.8183C88.2856 7.57108 88.4079 7.23115 88.4079 6.86032C88.4079 6.45859 88.2856 6.11867 88.0408 5.87145C87.796 5.62423 87.4595 5.46972 87.0006 5.46972H85.5933V8.18913Z" fill="white"/>
<path d="M93.4865 12.6082C92.5993 12.6082 91.8956 12.33 91.3755 11.7429C90.8554 11.1557 90.5801 10.445 90.5801 9.54883V9.33251C90.5801 8.40544 90.8248 7.66378 91.3449 7.04573C91.8344 6.45859 92.5075 6.14957 93.3641 6.14957C94.1902 6.14957 94.8327 6.39679 95.2916 6.89122C95.7505 7.38566 95.9646 8.06551 95.9646 8.93078V9.85785H92.2933V9.88875C92.3239 10.2905 92.4463 10.6304 92.6911 10.9085C92.9358 11.1866 93.2724 11.3103 93.6701 11.3103C94.0372 11.3103 94.3431 11.2794 94.5879 11.1867C94.8327 11.1248 95.108 11.0012 95.3834 10.8467L95.8423 11.8665C95.5975 12.0828 95.261 12.2373 94.8633 12.3918C94.4349 12.5464 93.976 12.6082 93.4865 12.6082ZM93.3335 7.47837C93.0276 7.47837 92.7828 7.60198 92.5993 7.8492C92.4157 8.09641 92.3239 8.40544 92.2628 8.77627L92.2933 8.80717H94.3126V8.65266C94.3126 8.28183 94.2208 8.00371 94.0678 7.78739C93.9148 7.57108 93.6701 7.47837 93.3335 7.47837Z" fill="white"/>
<path d="M101.41 10.5377H101.441L103.032 6.27319H105.999V7.29297L105.112 7.47839V11.3412L105.999 11.5266V12.5155H102.848V11.5266L103.46 11.3412V8.83809H103.43L101.992 12.5464H100.89L99.5135 8.9308H99.4829V11.3721L100.125 11.5575V12.5464H96.9436V11.5575L97.8308 11.3721V7.47839L96.9436 7.29297V6.27319H99.8806L101.41 10.5377Z" fill="white"/>
<path d="M106.764 9.33251C106.764 8.40544 107.009 7.66378 107.529 7.04573C108.049 6.45859 108.753 6.14957 109.64 6.14957C110.558 6.14957 111.262 6.45859 111.782 7.04573C112.302 7.63288 112.547 8.40544 112.547 9.33251V9.45612C112.547 10.3832 112.302 11.1557 111.782 11.7429C111.262 12.33 110.558 12.6082 109.671 12.6082C108.753 12.6082 108.049 12.33 107.529 11.7429C107.009 11.1557 106.764 10.3832 106.764 9.45612V9.33251ZM108.416 9.45612C108.416 10.0124 108.508 10.4759 108.722 10.8158C108.906 11.1557 109.243 11.3412 109.671 11.3412C110.099 11.3412 110.405 11.1557 110.619 10.8158C110.803 10.4759 110.925 10.0124 110.925 9.45612V9.33251C110.925 8.77627 110.833 8.34363 110.619 7.97281C110.405 7.63288 110.099 7.44747 109.671 7.44747C109.243 7.44747 108.937 7.63288 108.722 7.97281C108.539 8.31273 108.416 8.77627 108.416 9.33251V9.45612Z" fill="white"/>
<path d="M113.403 7.29297V6.27319H116.646V7.29297L115.943 7.47839V8.80719H117.962V7.47839L117.258 7.29297V6.27319H120.501V7.29297L119.614 7.47839V11.3412L120.501 11.5266V12.5155H117.258V11.5266L117.962 11.3412V10.1051H115.943V11.3412L116.646 11.5266V12.5155H113.403V11.5266L114.291 11.3412V7.47839L113.403 7.29297Z" fill="white"/>
<path d="M127.66 6.30408V8.40544H126.375L126.314 7.57107H125.274V11.3103L126.161 11.4957V12.4845H122.734V11.4957L123.622 11.3103V7.57107H122.581L122.52 8.40544H121.235V6.30408H127.66Z" fill="white"/>
<path d="M132.188 12.4845C132.158 12.3918 132.096 12.2682 132.066 12.1755C132.035 12.0519 132.005 11.9592 131.974 11.8356C131.79 12.0519 131.546 12.2373 131.27 12.3918C130.995 12.5464 130.658 12.6082 130.291 12.6082C129.679 12.6082 129.22 12.4536 128.853 12.1137C128.486 11.7738 128.333 11.3412 128.333 10.754C128.333 10.1669 128.578 9.73424 129.037 9.39431C129.496 9.08529 130.169 8.93078 131.056 8.93078H131.913V8.31273C131.913 8.00371 131.821 7.78739 131.668 7.63288C131.484 7.47837 131.24 7.38566 130.903 7.38566C130.72 7.38566 130.536 7.41656 130.383 7.44747C130.23 7.47837 130.108 7.54017 130.016 7.60198L129.894 8.28183H128.639V6.89122C128.945 6.67491 129.282 6.5204 129.679 6.36588C130.077 6.21137 130.505 6.14957 130.964 6.14957C131.729 6.14957 132.341 6.33498 132.831 6.70581C133.32 7.07664 133.534 7.63288 133.534 8.31273V10.8776V11.1557C133.534 11.2485 133.534 11.3103 133.565 11.403L134.085 11.4648V12.4536H132.188V12.4845ZM130.75 11.3721C130.995 11.3721 131.24 11.3103 131.423 11.2176C131.637 11.0939 131.79 10.9703 131.913 10.8158V9.85785H131.056C130.689 9.85785 130.444 9.95056 130.261 10.1051C130.077 10.2596 129.985 10.4759 129.985 10.6922C129.985 10.9085 130.047 11.063 130.199 11.1867C130.322 11.3103 130.505 11.3721 130.75 11.3721Z" fill="white"/>
<path d="M33.3932 18.4178C33.3932 18.8504 33.2408 19.1904 32.9664 19.4376C32.6615 19.6848 32.2652 19.7775 31.7164 19.7775H31.2286V21.4771H30.7408V17.1508H31.8384C32.875 17.1508 33.3932 17.5525 33.3932 18.4178ZM31.1982 19.3449H31.6555C32.0823 19.3449 32.4176 19.2831 32.6006 19.1286C32.7835 18.9741 32.9054 18.7577 32.9054 18.4487C32.9054 18.1706 32.814 17.9543 32.6311 17.7998C32.4481 17.6453 32.1737 17.5835 31.7774 17.5835H31.2286V19.3449H31.1982Z" fill="white"/>
<path d="M35.5578 21.508C35.1005 21.508 34.7042 21.3535 34.4298 21.0754C34.1554 20.7973 34.0334 20.3956 34.0334 19.8702C34.0334 19.3449 34.1554 18.9432 34.3993 18.6341C34.6432 18.3251 34.9786 18.1706 35.4054 18.1706C35.8017 18.1706 36.1066 18.2942 36.3505 18.5723C36.5944 18.8504 36.6858 19.1904 36.6858 19.623V19.932H34.4908C34.4908 20.3029 34.5822 20.6119 34.7651 20.7973C34.9481 20.9827 35.192 21.1063 35.5273 21.1063C35.8627 21.1063 36.198 21.0445 36.5334 20.89V21.3226C36.3505 21.3844 36.198 21.4462 36.0456 21.4771C35.8932 21.508 35.7712 21.508 35.5578 21.508ZM35.4359 18.5723C35.192 18.5723 34.9786 18.665 34.8261 18.8195C34.6737 18.9741 34.5822 19.2213 34.5517 19.5303H36.2285C36.2285 19.2213 36.1676 18.9741 36.0151 18.8195C35.8627 18.665 35.6798 18.5723 35.4359 18.5723Z" fill="white"/>
<path d="M39.2164 20.9827L39.3078 20.7046L39.4298 20.3647L40.2834 18.2324H40.8932V21.4462H40.4663V18.7886L40.4054 18.974L40.2224 19.4376L39.3993 21.4771H39.0029L38.1798 19.4376C38.0883 19.1595 37.9969 18.974 37.9664 18.8195V21.4771H37.5396V18.2324H38.1188L38.942 20.2719C39.0639 20.4883 39.1249 20.7355 39.2164 20.9827Z" fill="white"/>
<path d="M44.6736 19.8393C44.6736 20.3646 44.5516 20.7664 44.2772 21.0754C44.0029 21.3844 43.6675 21.508 43.1797 21.508C42.9053 21.508 42.6309 21.4462 42.4175 21.2917C42.2041 21.1681 42.0212 20.9518 41.8992 20.7046C41.7773 20.4574 41.7163 20.1483 41.7163 19.8084C41.7163 19.2831 41.8383 18.8813 42.1126 18.5723C42.387 18.2942 42.7224 18.1397 43.1797 18.1397C43.637 18.1397 43.9724 18.2942 44.2468 18.6032C44.5211 18.9122 44.6736 19.314 44.6736 19.8393ZM42.2346 19.8393C42.2346 20.241 42.3261 20.5501 42.4785 20.7664C42.6309 20.9827 42.8748 21.0754 43.2102 21.0754C43.5151 21.0754 43.759 20.9827 43.9419 20.7664C44.0943 20.5501 44.1858 20.241 44.1858 19.8084C44.1858 19.4067 44.0943 19.0977 43.9419 18.8813C43.7894 18.665 43.5455 18.5723 43.2102 18.5723C42.9053 18.5723 42.6614 18.665 42.509 18.8813C42.3261 19.0977 42.2346 19.4067 42.2346 19.8393Z" fill="white"/>
<path d="M45.9845 18.2324V19.5921H47.7528V18.2324H48.2406V21.4462H47.7528V19.9938H45.9845V21.4462H45.4967V18.2324H45.9845Z" fill="white"/>
<path d="M51.4113 18.6341H50.3747V21.4462H49.8869V18.6341H48.8503V18.2324H51.3808V18.6341H51.4113Z" fill="white"/>
<path d="M55.466 18.2324H55.9843L54.6124 19.7775L56.1063 21.4462H55.5575L54.0941 19.8084V21.4462H53.6063V18.2324H54.0941V19.8084L55.466 18.2324Z" fill="white"/>
<path d="M59.277 19.0359C59.277 19.2522 59.216 19.4067 59.0941 19.4994C58.9721 19.623 58.8197 19.6848 58.6063 19.7157V19.7466C58.8806 19.7775 59.0636 19.8702 59.1855 19.9938C59.3075 20.1174 59.3684 20.3028 59.3684 20.5192C59.3684 20.8282 59.2465 21.0445 59.0331 21.199C58.8197 21.3535 58.4843 21.4462 58.088 21.4462H56.6855V18.2324H58.088C58.8806 18.2324 59.277 18.5105 59.277 19.0359ZM58.7892 19.0977C58.7892 18.9431 58.7282 18.8195 58.6063 18.7577C58.4843 18.6959 58.3014 18.665 58.0575 18.665H57.1429V19.5612H57.966C58.2709 19.5612 58.4843 19.5303 58.6063 19.4376C58.7282 19.3449 58.7892 19.2522 58.7892 19.0977ZM58.8806 20.4883C58.8806 20.3028 58.8197 20.1792 58.6977 20.1174C58.5758 20.0247 58.3624 19.9938 58.0575 19.9938H57.1733V21.0445H58.0575C58.6063 21.0445 58.8806 20.8591 58.8806 20.4883Z" fill="white"/>
<path d="M62.0209 21.4462L61.9294 20.9827H61.8989C61.7465 21.199 61.5941 21.3226 61.4111 21.3844C61.2587 21.4462 61.0453 21.4771 60.8319 21.4771C60.527 21.4771 60.2831 21.3844 60.1002 21.2299C59.9173 21.0754 59.8258 20.8282 59.8258 20.5192C59.8258 19.8702 60.3441 19.5303 61.3807 19.4994L61.9294 19.4685V19.2831C61.9294 19.0358 61.8685 18.8504 61.777 18.7268C61.6855 18.6032 61.5026 18.5414 61.2587 18.5414C60.9843 18.5414 60.6795 18.6341 60.3441 18.7886L60.1917 18.4178C60.3441 18.3251 60.527 18.2633 60.7099 18.2015C60.8929 18.1397 61.0758 18.1397 61.2587 18.1397C61.6246 18.1397 61.9294 18.2324 62.1124 18.3869C62.2953 18.5723 62.3867 18.8195 62.3867 19.2213V21.4153H62.0209V21.4462ZM60.9234 21.1063C61.2282 21.1063 61.4721 21.0136 61.6246 20.8591C61.8075 20.7046 61.8685 20.4574 61.8685 20.1483V19.8702L61.3807 19.9011C60.9843 19.9011 60.7099 19.9629 60.5575 20.0865C60.3746 20.1792 60.3136 20.3646 60.3136 20.581C60.3136 20.7664 60.3746 20.89 60.466 20.9827C60.588 21.0754 60.7404 21.1063 60.9234 21.1063Z" fill="white"/>
<path d="M64.8562 21.508C64.6428 21.508 64.4598 21.4771 64.2769 21.3844C64.094 21.2917 63.972 21.199 63.8501 21.0136H63.8196C63.8501 21.199 63.8501 21.3844 63.8501 21.5389V22.8678H63.3623V18.2324H63.7586L63.8196 18.665H63.8501C63.972 18.4796 64.1245 18.356 64.2769 18.2942C64.4294 18.2015 64.6428 18.1706 64.8562 18.1706C65.283 18.1706 65.6184 18.3251 65.8318 18.6032C66.0757 18.8813 66.1671 19.314 66.1671 19.8393C66.1671 20.3647 66.0452 20.7664 65.8318 21.0754C65.5879 21.3535 65.2525 21.508 64.8562 21.508ZM64.7952 18.5723C64.4598 18.5723 64.2464 18.665 64.094 18.8504C63.9416 19.0359 63.8806 19.314 63.8806 19.7157V19.8393C63.8806 20.3029 63.9416 20.6119 64.094 20.7973C64.2464 20.9827 64.4903 21.0754 64.8257 21.0754C65.1001 21.0754 65.3135 20.9518 65.4659 20.7355C65.6184 20.5192 65.7098 20.2101 65.7098 19.8084C65.7098 19.4067 65.6184 19.0977 65.4659 18.8813C65.283 18.6959 65.0696 18.5723 64.7952 18.5723Z" fill="white"/>
<path d="M69.1549 18.6341H68.1184V21.4462H67.6306V18.6341H66.594V18.2324H69.1244V18.6341H69.1549Z" fill="white"/>
<path d="M70.2524 18.2324V20.2719L70.222 20.7973V20.9518L71.9292 18.2015H72.539V21.4153H72.0817V18.6959L70.3744 21.4462H69.7646V18.2324H70.2524Z" fill="white"/>
<path d="M75.0389 21.508C74.8255 21.508 74.6426 21.4771 74.4597 21.3844C74.2767 21.2917 74.1548 21.199 74.0328 21.0136H74.0024C74.0328 21.199 74.0328 21.3844 74.0328 21.5389V22.8678H73.545V18.2324H73.9414L74.0024 18.665H74.0328C74.1548 18.4796 74.3072 18.356 74.4597 18.2942C74.6121 18.2015 74.8255 18.1706 75.0389 18.1706C75.4657 18.1706 75.8011 18.3251 76.0145 18.6032C76.2584 18.8813 76.3499 19.314 76.3499 19.8393C76.3499 20.3647 76.2279 20.7664 76.0145 21.0754C75.7706 21.3535 75.4657 21.508 75.0389 21.508ZM74.978 18.5723C74.6426 18.5723 74.4292 18.665 74.2767 18.8504C74.1243 19.0359 74.0633 19.314 74.0633 19.7157V19.8393C74.0633 20.3029 74.1243 20.6119 74.2767 20.7973C74.4292 20.9827 74.6731 21.0754 75.0084 21.0754C75.2828 21.0754 75.4962 20.9518 75.6487 20.7355C75.8011 20.5192 75.8926 20.2101 75.8926 19.8084C75.8926 19.4067 75.8011 19.0977 75.6487 18.8813C75.4657 18.6959 75.2523 18.5723 74.978 18.5723Z" fill="white"/>
<path d="M81.3193 19.0359C81.3193 19.2522 81.2583 19.4067 81.1364 19.4994C81.0144 19.623 80.862 19.6848 80.6486 19.7157V19.7466C80.923 19.7775 81.1059 19.8702 81.2279 19.9938C81.3498 20.1174 81.4108 20.3028 81.4108 20.5192C81.4108 20.8282 81.2888 21.0445 81.0754 21.199C80.862 21.3535 80.5267 21.4462 80.1303 21.4462H78.7279V18.2324H80.1303C80.923 18.2324 81.3193 18.5105 81.3193 19.0359ZM80.862 19.0977C80.862 18.9431 80.801 18.8195 80.6791 18.7577C80.5571 18.6959 80.3742 18.665 80.1303 18.665H79.2157V19.5612H80.0389C80.3437 19.5612 80.5571 19.5303 80.6791 19.4376C80.801 19.3449 80.862 19.2522 80.862 19.0977ZM80.9535 20.4883C80.9535 20.3028 80.8925 20.1792 80.7706 20.1174C80.6486 20.0247 80.4352 19.9938 80.1303 19.9938H79.2462V21.0445H80.1303C80.6791 21.0445 80.9535 20.8591 80.9535 20.4883Z" fill="white"/>
<path d="M85.618 21.4462L84.1851 17.6453H84.1546C84.1851 17.9543 84.1851 18.2942 84.1851 18.7268V21.4771H83.7278V17.1508H84.4595L85.8009 20.7046H85.8314L87.1729 17.1508H87.9046V21.4462H87.4168V18.665C87.4168 18.356 87.4168 18.0161 87.4472 17.6144H87.4168L85.9534 21.4153H85.618V21.4462Z" fill="white"/>
<path d="M91.7765 19.8393C91.7765 20.3646 91.6545 20.7664 91.3801 21.0754C91.1058 21.3844 90.7704 21.508 90.2826 21.508C90.0082 21.508 89.7338 21.4462 89.5204 21.2917C89.307 21.1681 89.1241 20.9518 89.0021 20.7046C88.8802 20.4574 88.8192 20.1483 88.8192 19.8084C88.8192 19.2831 88.9412 18.8813 89.2155 18.5723C89.4899 18.2942 89.8253 18.1397 90.2826 18.1397C90.7399 18.1397 91.0753 18.2942 91.3497 18.6032C91.6545 18.9122 91.7765 19.314 91.7765 19.8393ZM89.368 19.8393C89.368 20.241 89.4595 20.5501 89.6119 20.7664C89.7643 20.9827 90.0082 21.0754 90.3436 21.0754C90.6485 21.0754 90.8924 20.9827 91.0753 20.7664C91.2277 20.5501 91.3192 20.241 91.3192 19.8084C91.3192 19.4067 91.2277 19.0977 91.0753 18.8813C90.9228 18.665 90.6789 18.5723 90.3436 18.5723C90.0387 18.5723 89.7948 18.665 89.6424 18.8813C89.429 19.0977 89.368 19.4067 89.368 19.8393Z" fill="white"/>
<path d="M93.9107 21.508C93.4534 21.508 93.0875 21.3535 92.8436 21.0754C92.5997 20.7973 92.4778 20.3955 92.4778 19.8702C92.4778 19.3449 92.5997 18.9122 92.8741 18.6341C93.118 18.3251 93.4839 18.2015 93.9717 18.2015C94.1241 18.2015 94.2765 18.2324 94.429 18.2633C94.5814 18.2942 94.7034 18.3251 94.7948 18.3869L94.6424 18.7886C94.5509 18.7577 94.429 18.6959 94.307 18.6959C94.1851 18.665 94.0631 18.665 93.9717 18.665C93.3314 18.665 92.9961 19.0976 92.9961 19.932C92.9961 20.3337 93.0875 20.6428 93.24 20.8591C93.3924 21.0754 93.6363 21.1681 93.9412 21.1681C94.2156 21.1681 94.4899 21.1063 94.7643 20.9827V21.4153C94.4899 21.4462 94.2156 21.508 93.9107 21.508Z" fill="white"/>
<path d="M97.3252 18.2324H97.8435L96.4715 19.7775L97.9654 21.4462H97.4166L95.9533 19.8084V21.4462H95.4655V18.2324H95.9533V19.8084L97.3252 18.2324Z" fill="white"/>
<path d="M101.136 19.0359C101.136 19.2522 101.075 19.4067 100.953 19.4994C100.831 19.623 100.679 19.6848 100.465 19.7157V19.7466C100.74 19.7775 100.923 19.8702 101.045 19.9938C101.167 20.1174 101.228 20.3028 101.228 20.5192C101.228 20.8282 101.106 21.0445 100.892 21.199C100.679 21.3535 100.343 21.4462 99.9471 21.4462H98.5447V18.2324H99.9471C100.74 18.2324 101.136 18.5105 101.136 19.0359ZM100.648 19.0977C100.648 18.9431 100.587 18.8195 100.465 18.7577C100.343 18.6959 100.161 18.665 99.9166 18.665H99.002V19.5612H99.8252C100.13 19.5612 100.343 19.5303 100.465 19.4376C100.587 19.3449 100.648 19.2522 100.648 19.0977ZM100.74 20.4883C100.74 20.3028 100.679 20.1792 100.557 20.1174C100.435 20.0247 100.221 19.9938 99.9166 19.9938H99.0325V21.0445H99.9166C100.465 21.0445 100.74 20.8591 100.74 20.4883Z" fill="white"/>
<path d="M103.27 21.508C102.813 21.508 102.417 21.3535 102.142 21.0754C101.868 20.7973 101.746 20.3956 101.746 19.8702C101.746 19.3449 101.868 18.9432 102.112 18.6341C102.356 18.3251 102.691 18.1706 103.118 18.1706C103.514 18.1706 103.819 18.2942 104.063 18.5723C104.307 18.8504 104.398 19.1904 104.398 19.623V19.932H102.203C102.203 20.3029 102.295 20.6119 102.478 20.7973C102.66 20.9827 102.904 21.1063 103.24 21.1063C103.575 21.1063 103.91 21.0445 104.246 20.89V21.3226C104.063 21.3844 103.91 21.4462 103.758 21.4771C103.606 21.508 103.484 21.508 103.27 21.508ZM103.148 18.5723C102.904 18.5723 102.691 18.665 102.539 18.8195C102.386 18.9741 102.295 19.2213 102.264 19.5303H103.941C103.941 19.2213 103.88 18.9741 103.728 18.8195C103.575 18.665 103.392 18.5723 103.148 18.5723Z" fill="white"/>
<path d="M107.264 18.2324V20.2719L107.234 20.7973V20.9518L108.941 18.2015H109.551V21.4153H109.093V18.6959L107.386 21.4462H106.776V18.2324H107.264Z" fill="white"/>
<path d="M114.855 19.8393C114.855 20.3646 114.734 20.7664 114.459 21.0754C114.185 21.3844 113.849 21.508 113.362 21.508C113.087 21.508 112.813 21.4462 112.599 21.2917C112.386 21.1681 112.203 20.9518 112.081 20.7046C111.959 20.4574 111.898 20.1483 111.898 19.8084C111.898 19.2831 112.02 18.8813 112.295 18.5723C112.569 18.2942 112.904 18.1397 113.362 18.1397C113.819 18.1397 114.154 18.2942 114.429 18.6032C114.734 18.9122 114.855 19.314 114.855 19.8393ZM112.447 19.8393C112.447 20.241 112.538 20.5501 112.691 20.7664C112.843 20.9827 113.087 21.0754 113.423 21.0754C113.727 21.0754 113.971 20.9827 114.154 20.7664C114.307 20.5501 114.398 20.241 114.398 19.8084C114.398 19.4067 114.307 19.0977 114.154 18.8813C114.002 18.665 113.758 18.5723 113.423 18.5723C113.118 18.5723 112.874 18.665 112.721 18.8813C112.508 19.0977 112.447 19.4067 112.447 19.8393Z" fill="white"/>
<path d="M115.557 19.5303C115.557 18.8195 115.648 18.2633 115.862 17.8925C116.075 17.4907 116.38 17.2435 116.837 17.1508C117.386 17.0272 117.874 16.9345 118.3 16.8727L118.392 17.3053C117.721 17.4289 117.233 17.5216 116.959 17.5834C116.685 17.6452 116.471 17.7998 116.319 18.047C116.166 18.2942 116.105 18.6032 116.075 19.0358H116.105C116.227 18.8813 116.38 18.7268 116.563 18.6341C116.746 18.5414 116.959 18.4796 117.172 18.4796C117.569 18.4796 117.874 18.6032 118.087 18.8504C118.301 19.0977 118.422 19.4685 118.422 19.932C118.422 20.4265 118.301 20.8282 118.057 21.1063C117.813 21.3844 117.447 21.5389 116.99 21.5389C116.532 21.5389 116.197 21.3535 115.953 21.0136C115.679 20.6428 115.557 20.1483 115.557 19.5303ZM117.02 21.1063C117.599 21.1063 117.904 20.7355 117.904 19.9629C117.904 19.2213 117.63 18.8813 117.111 18.8813C116.959 18.8813 116.837 18.9122 116.685 18.974C116.532 19.0358 116.41 19.1286 116.319 19.2213C116.227 19.314 116.105 19.4376 116.044 19.5303C116.044 20.0556 116.136 20.4265 116.288 20.7046C116.441 20.9518 116.685 21.1063 117.02 21.1063Z" fill="white"/>
<path d="M121.624 21.4462H121.136V18.6341H120.191C120.13 19.3449 120.069 19.9011 119.977 20.3028C119.886 20.7046 119.764 21.0136 119.611 21.199C119.459 21.3844 119.276 21.4771 119.032 21.4771C118.941 21.4771 118.849 21.4771 118.788 21.4462V21.0754C118.819 21.0754 118.88 21.1063 118.941 21.1063C119.154 21.1063 119.337 20.8591 119.459 20.3956C119.581 19.932 119.703 19.1904 119.764 18.2324H121.624V21.4462Z" fill="white"/>
<path d="M124.611 21.4462L124.52 20.9827H124.489C124.337 21.199 124.185 21.3226 124.002 21.3844C123.849 21.4462 123.636 21.4771 123.422 21.4771C123.117 21.4771 122.874 21.3844 122.691 21.2299C122.508 21.0754 122.416 20.8282 122.416 20.5192C122.416 19.8702 122.935 19.5303 123.971 19.4994L124.52 19.4685V19.2831C124.52 19.0358 124.459 18.8504 124.367 18.7268C124.276 18.6032 124.093 18.5414 123.849 18.5414C123.575 18.5414 123.27 18.6341 122.935 18.7886L122.782 18.4178C122.935 18.3251 123.117 18.2633 123.3 18.2015C123.483 18.1397 123.666 18.1397 123.849 18.1397C124.215 18.1397 124.52 18.2324 124.703 18.3869C124.886 18.5723 124.977 18.8195 124.977 19.2213V21.4153H124.611V21.4462ZM123.514 21.1063C123.819 21.1063 124.063 21.0136 124.215 20.8591C124.398 20.7046 124.459 20.4574 124.459 20.1483V19.8702L123.971 19.9011C123.575 19.9011 123.3 19.9629 123.148 20.0865C122.965 20.1792 122.904 20.3646 122.904 20.581C122.904 20.7664 122.965 20.89 123.056 20.9827C123.178 21.0754 123.331 21.1063 123.514 21.1063Z" fill="white"/>
<path d="M127.233 21.508C126.776 21.508 126.41 21.3535 126.166 21.0754C125.922 20.7973 125.8 20.3955 125.8 19.8702C125.8 19.3449 125.922 18.9122 126.197 18.6341C126.441 18.3251 126.806 18.2015 127.294 18.2015C127.447 18.2015 127.599 18.2324 127.752 18.2633C127.904 18.2942 128.026 18.3251 128.117 18.3869L127.965 18.7886C127.874 18.7577 127.752 18.6959 127.63 18.6959C127.508 18.665 127.386 18.665 127.294 18.665C126.654 18.665 126.319 19.0976 126.319 19.932C126.319 20.3337 126.41 20.6428 126.563 20.8591C126.715 21.0754 126.959 21.1681 127.264 21.1681C127.538 21.1681 127.813 21.1063 128.087 20.9827V21.4153C127.813 21.4462 127.538 21.508 127.233 21.508Z" fill="white"/>
<path d="M130.922 18.6341H129.886V21.4462H129.398V18.6341H128.361V18.2324H130.892V18.6341H130.922Z" fill="white"/>
<path d="M132.02 18.2324V20.2719L131.989 20.7973V20.9518L133.697 18.2015H134.306V21.4153H133.849V18.6959L132.142 21.4462H131.532V18.2324H132.02Z" fill="white"/>
</g>
<defs>
<clipPath id="clip0_25_99">
<rect width="135" height="25" fill="white"/>
</clipPath>
</defs>
</svg>
