<svg width="21" height="21" viewBox="0 0 21 21" fill="none" xmlns="http://www.w3.org/2000/svg">
<path d="M4.18254 13.3612L6.40504 13.1075C6.93879 13.0462 7.46379 13.23 7.84004 13.6062L9.45004 15.2162C11.9263 13.9562 13.9563 11.935 15.2163 9.44999L13.5975 7.83124C13.4114 7.64527 13.2698 7.41954 13.1834 7.171C13.097 6.92245 13.0681 6.65757 13.0988 6.39624L13.3525 4.19124C13.4575 3.30749 14.2013 2.64249 15.0938 2.64249H16.6075C17.5963 2.64249 18.4188 3.46499 18.3575 4.45374C17.8938 11.9262 11.9175 17.8937 4.45379 18.3575C3.46504 18.4187 2.64254 17.5962 2.64254 16.6075V15.0937C2.63379 14.21 3.29879 13.4662 4.18254 13.3612Z" fill="white"/>
</svg>
